%TF.GenerationSoftware,KiCad,Pcbnew,9.0.0*%
%TF.CreationDate,2026-07-28T23:24:21-03:00*%
%TF.ProjectId,Phil_Tutorial,5068696c-5f54-4757-946f-7269616c2e6b,rev?*%
%TF.SameCoordinates,PX38444c0PY5a995c0*%
%TF.FileFunction,Copper,L2,Inr*%
%TF.FilePolarity,Positive*%
%FSLAX46Y46*%
G04 Gerber Fmt 4.6, Leading zero omitted, Abs format (unit mm)*
G04 Created by KiCad (PCBNEW 9.0.0) date 2026-07-28 23:24:21*
%MOMM*%
%LPD*%
G01*
G04 APERTURE LIST*
G04 Aperture macros list*
%AMRoundRect*
0 Rectangle with rounded corners*
0 $1 Rounding radius*
0 $2 $3 $4 $5 $6 $7 $8 $9 X,Y pos of 4 corners*
0 Add a 4 corners polygon primitive as box body*
4,1,4,$2,$3,$4,$5,$6,$7,$8,$9,$2,$3,0*
0 Add four circle primitives for the rounded corners*
1,1,$1+$1,$2,$3*
1,1,$1+$1,$4,$5*
1,1,$1+$1,$6,$7*
1,1,$1+$1,$8,$9*
0 Add four rect primitives between the rounded corners*
20,1,$1+$1,$2,$3,$4,$5,0*
20,1,$1+$1,$4,$5,$6,$7,0*
20,1,$1+$1,$6,$7,$8,$9,0*
20,1,$1+$1,$8,$9,$2,$3,0*%
G04 Aperture macros list end*
%TA.AperFunction,ComponentPad*%
%ADD10C,0.700000*%
%TD*%
%TA.AperFunction,ComponentPad*%
%ADD11C,4.400000*%
%TD*%
%TA.AperFunction,ComponentPad*%
%ADD12RoundRect,0.200000X-0.450000X0.200000X-0.450000X-0.200000X0.450000X-0.200000X0.450000X0.200000X0*%
%TD*%
%TA.AperFunction,ComponentPad*%
%ADD13O,1.300000X0.800000*%
%TD*%
%TA.AperFunction,HeatsinkPad*%
%ADD14O,2.100000X1.000000*%
%TD*%
%TA.AperFunction,HeatsinkPad*%
%ADD15O,1.800000X1.000000*%
%TD*%
%TA.AperFunction,ViaPad*%
%ADD16C,0.900000*%
%TD*%
%TA.AperFunction,ViaPad*%
%ADD17C,0.700000*%
%TD*%
%TA.AperFunction,ViaPad*%
%ADD18C,0.650000*%
%TD*%
G04 APERTURE END LIST*
D10*
%TO.N,GND*%
%TO.C,H3*%
X49850000Y23000000D03*
X50333274Y24166726D03*
X50333274Y21833274D03*
X51500000Y24650000D03*
D11*
X51500000Y23000000D03*
D10*
X51500000Y21350000D03*
X52666726Y24166726D03*
X52666726Y21833274D03*
X53150000Y23000000D03*
%TD*%
D12*
%TO.N,+3V3*%
%TO.C,J1*%
X6755000Y7745000D03*
D13*
%TO.N,/TXCON*%
X6755000Y6495000D03*
%TO.N,/RXCON*%
X6755000Y5245000D03*
%TO.N,GND*%
X6755000Y3995000D03*
%TD*%
D14*
%TO.N,GND*%
%TO.C,J2*%
X9155000Y21340000D03*
D15*
X4975000Y21340000D03*
D14*
X9155000Y12700000D03*
D15*
X4975000Y12700000D03*
%TD*%
D10*
%TO.N,GND*%
%TO.C,H4*%
X49850000Y3500000D03*
X50333274Y4666726D03*
X50333274Y2333274D03*
X51500000Y5150000D03*
D11*
X51500000Y3500000D03*
D10*
X51500000Y1850000D03*
X52666726Y4666726D03*
X52666726Y2333274D03*
X53150000Y3500000D03*
%TD*%
%TO.N,GND*%
%TO.C,H2*%
X15350000Y3000000D03*
X15833274Y4166726D03*
X15833274Y1833274D03*
X17000000Y4650000D03*
D11*
X17000000Y3000000D03*
D10*
X17000000Y1350000D03*
X18166726Y4166726D03*
X18166726Y1833274D03*
X18650000Y3000000D03*
%TD*%
%TO.N,GND*%
%TO.C,H1*%
X15350000Y23000000D03*
X15833274Y24166726D03*
X15833274Y21833274D03*
X17000000Y24650000D03*
D11*
X17000000Y23000000D03*
D10*
X17000000Y21350000D03*
X18166726Y24166726D03*
X18166726Y21833274D03*
X18650000Y23000000D03*
%TD*%
D16*
%TO.N,GND*%
X25000000Y10000000D03*
X25000000Y7000000D03*
D17*
X47400000Y18200000D03*
D16*
X24000000Y2000000D03*
D17*
X53100000Y19600000D03*
X29400000Y23400000D03*
D16*
X48000000Y21000000D03*
D17*
X37900000Y14000000D03*
X9590000Y11370000D03*
D16*
X21000000Y1000000D03*
D17*
X13662500Y9000000D03*
D18*
X35270000Y11350000D03*
D17*
X39400000Y21400000D03*
D16*
X22000000Y9000000D03*
D17*
X46125000Y3340000D03*
D16*
X29650000Y25900000D03*
X45000000Y21000000D03*
D17*
X49800000Y19600000D03*
D16*
X13000000Y25000000D03*
D17*
X43000000Y16000000D03*
X42900000Y23400000D03*
X35900000Y18000000D03*
X47800000Y10100000D03*
X27700000Y10400000D03*
X33800000Y16000000D03*
X44000000Y16000000D03*
X31600000Y21300000D03*
D16*
X44000000Y25000000D03*
X13000000Y21000000D03*
X47000000Y12000000D03*
D17*
X7315000Y24020000D03*
X34910000Y7510000D03*
D16*
X27800000Y21750000D03*
D17*
X50000000Y13600000D03*
D16*
X12000000Y4000000D03*
D17*
X43620000Y1900000D03*
X39400000Y22700000D03*
X40700000Y14610000D03*
X38000000Y16000000D03*
X47400000Y16000000D03*
X51600000Y19600000D03*
X27900000Y17200000D03*
X30500000Y14500000D03*
D16*
X10000000Y2000000D03*
D17*
X33800000Y13900000D03*
X19400000Y12500000D03*
X37700000Y8300000D03*
X31600000Y22400000D03*
D16*
X19700000Y20950000D03*
X47000000Y14000000D03*
D18*
X44130000Y5900000D03*
D17*
X29500000Y14500000D03*
X51600000Y13600000D03*
X38000000Y18000000D03*
X11300000Y15100000D03*
X8900000Y3100000D03*
X6600000Y10800000D03*
X53000000Y13600000D03*
D16*
X52000000Y9000000D03*
D17*
X33800000Y18000000D03*
X15885000Y10652500D03*
X11800000Y11600000D03*
X26600000Y7800000D03*
X35800000Y13900000D03*
X29400000Y24700000D03*
D16*
X52000000Y12000000D03*
D17*
X40531084Y20568916D03*
X27700000Y11700000D03*
X41600000Y17900000D03*
D16*
X19050000Y26250000D03*
D17*
X29900000Y6600000D03*
D16*
X41000000Y25000000D03*
D17*
X16985000Y10652500D03*
X11810000Y12400000D03*
%TO.N,+3V3*%
X31060000Y2030000D03*
X29750000Y18250000D03*
X21250000Y19250000D03*
X28500000Y12500000D03*
X32650000Y25240000D03*
X31500000Y10000000D03*
X42166699Y18878090D03*
X9000000Y8250000D03*
X41630000Y14860000D03*
X30810000Y25170000D03*
X35830000Y9220000D03*
X31500000Y11250000D03*
X17690000Y7890000D03*
%TO.N,+5V*%
X16000000Y12000000D03*
X11500000Y20250000D03*
D18*
%TO.N,/BOOT0*%
X42880000Y6110000D03*
X34890000Y10480000D03*
%TD*%
%TA.AperFunction,Conductor*%
%TO.N,GND*%
G36*
X54003614Y26699144D02*
G01*
X54129217Y26686773D01*
X54143435Y26683945D01*
X54260717Y26648369D01*
X54274112Y26642820D01*
X54382193Y26585049D01*
X54394254Y26576990D01*
X54488986Y26499245D01*
X54499244Y26488987D01*
X54576989Y26394255D01*
X54585048Y26382194D01*
X54642817Y26274117D01*
X54648369Y26260714D01*
X54683943Y26143441D01*
X54686773Y26129214D01*
X54699144Y26003616D01*
X54699500Y25996362D01*
X54699500Y1003639D01*
X54699144Y996386D01*
X54699144Y996385D01*
X54686773Y870787D01*
X54683943Y856560D01*
X54648369Y739287D01*
X54642817Y725884D01*
X54585048Y617807D01*
X54576989Y605746D01*
X54499244Y511014D01*
X54488986Y500756D01*
X54394254Y423011D01*
X54382193Y414952D01*
X54274116Y357183D01*
X54260713Y351631D01*
X54143440Y316057D01*
X54129213Y313227D01*
X54019418Y302413D01*
X54003613Y300856D01*
X53996361Y300500D01*
X1003639Y300500D01*
X996386Y300856D01*
X975832Y302881D01*
X870786Y313227D01*
X856559Y316057D01*
X739286Y351631D01*
X725883Y357183D01*
X617806Y414952D01*
X605745Y423011D01*
X511013Y500756D01*
X500755Y511014D01*
X423010Y605746D01*
X414951Y617807D01*
X357182Y725884D01*
X351630Y739287D01*
X316055Y856565D01*
X313227Y870783D01*
X300856Y996386D01*
X300500Y1003639D01*
X300500Y2094068D01*
X30409500Y2094068D01*
X30409500Y1965933D01*
X30434497Y1840261D01*
X30434498Y1840258D01*
X30434499Y1840256D01*
X30483535Y1721873D01*
X30554724Y1615331D01*
X30645331Y1524724D01*
X30751873Y1453535D01*
X30870256Y1404499D01*
X30870258Y1404499D01*
X30870260Y1404498D01*
X30912903Y1396016D01*
X30995931Y1379500D01*
X30995933Y1379500D01*
X31124067Y1379500D01*
X31124069Y1379500D01*
X31249744Y1404499D01*
X31368127Y1453535D01*
X31474669Y1524724D01*
X31565276Y1615331D01*
X31636465Y1721873D01*
X31685501Y1840256D01*
X31710500Y1965931D01*
X31710500Y2094069D01*
X31685501Y2219744D01*
X31636465Y2338127D01*
X31565276Y2444669D01*
X31474669Y2535276D01*
X31368127Y2606465D01*
X31368124Y2606467D01*
X31368123Y2606467D01*
X31249742Y2655502D01*
X31249739Y2655503D01*
X31159696Y2673414D01*
X31124069Y2680500D01*
X30995931Y2680500D01*
X30964726Y2674293D01*
X30870260Y2655503D01*
X30870257Y2655502D01*
X30751876Y2606467D01*
X30645331Y2535277D01*
X30645330Y2535275D01*
X30554725Y2444670D01*
X30554723Y2444669D01*
X30483533Y2338124D01*
X30434498Y2219743D01*
X30434497Y2219740D01*
X30409500Y2094068D01*
X300500Y2094068D01*
X300500Y4120001D01*
X5714190Y4120001D01*
X5714191Y4120000D01*
X6536178Y4120000D01*
X6505000Y4044728D01*
X6505000Y3945272D01*
X6536178Y3870000D01*
X5714190Y3870000D01*
X5735741Y3761656D01*
X5735743Y3761649D01*
X5796047Y3616062D01*
X5883598Y3485031D01*
X5995030Y3373599D01*
X6126061Y3286048D01*
X6271648Y3225744D01*
X6271655Y3225742D01*
X6426208Y3195000D01*
X6630000Y3195000D01*
X6630000Y3776179D01*
X6705272Y3745000D01*
X6804728Y3745000D01*
X6880000Y3776179D01*
X6880000Y3195000D01*
X7083792Y3195000D01*
X7238344Y3225742D01*
X7238351Y3225744D01*
X7383938Y3286048D01*
X7514969Y3373599D01*
X7514971Y3373600D01*
X7626400Y3485029D01*
X7626401Y3485031D01*
X7713952Y3616062D01*
X7774256Y3761649D01*
X7774258Y3761656D01*
X7795809Y3870000D01*
X6973822Y3870000D01*
X7005000Y3945272D01*
X7005000Y4044728D01*
X6973822Y4120000D01*
X7795809Y4120000D01*
X7795809Y4120001D01*
X7774258Y4228345D01*
X7774256Y4228352D01*
X7713952Y4373939D01*
X7626401Y4504970D01*
X7626400Y4504971D01*
X7514967Y4616403D01*
X7514964Y4616406D01*
X7501274Y4625553D01*
X7469809Y4672645D01*
X7480859Y4728194D01*
X7490057Y4739402D01*
X7549114Y4798458D01*
X7625775Y4913189D01*
X7678580Y5040672D01*
X7705500Y5176007D01*
X7705500Y5313993D01*
X7678580Y5449328D01*
X7625775Y5576811D01*
X7549114Y5691542D01*
X7451542Y5789114D01*
X7422571Y5808472D01*
X7391106Y5855563D01*
X7402155Y5911112D01*
X7422572Y5931529D01*
X7451542Y5950886D01*
X7549114Y6048458D01*
X7625775Y6163189D01*
X7629261Y6171606D01*
X42254500Y6171606D01*
X42254500Y6048395D01*
X42278535Y5927555D01*
X42278537Y5927548D01*
X42325688Y5813715D01*
X42329192Y5808471D01*
X42394142Y5711267D01*
X42481267Y5624142D01*
X42583714Y5555689D01*
X42697548Y5508537D01*
X42818394Y5484500D01*
X42941606Y5484500D01*
X43062452Y5508537D01*
X43176286Y5555689D01*
X43278733Y5624142D01*
X43365858Y5711267D01*
X43434311Y5813714D01*
X43481463Y5927548D01*
X43505500Y6048394D01*
X43505500Y6171606D01*
X43481463Y6292452D01*
X43434311Y6406286D01*
X43365858Y6508733D01*
X43278733Y6595858D01*
X43176286Y6664311D01*
X43176287Y6664311D01*
X43176285Y6664312D01*
X43062452Y6711463D01*
X43062445Y6711465D01*
X42941606Y6735500D01*
X42818394Y6735500D01*
X42697554Y6711465D01*
X42697547Y6711463D01*
X42583714Y6664312D01*
X42481270Y6595861D01*
X42394139Y6508730D01*
X42325688Y6406286D01*
X42278537Y6292453D01*
X42278535Y6292446D01*
X42254500Y6171606D01*
X7629261Y6171606D01*
X7678580Y6290672D01*
X7705500Y6426007D01*
X7705500Y6563993D01*
X7678580Y6699328D01*
X7625775Y6826811D01*
X7549114Y6941542D01*
X7474616Y7016040D01*
X7452943Y7068364D01*
X7474617Y7120690D01*
X7482590Y7127600D01*
X7562546Y7187454D01*
X7648796Y7302669D01*
X7652849Y7313534D01*
X7665561Y7347619D01*
X7699091Y7437517D01*
X7705500Y7497127D01*
X7705499Y7992872D01*
X7699091Y8052483D01*
X7688924Y8079743D01*
X7648797Y8187330D01*
X7648796Y8187331D01*
X7584397Y8273357D01*
X7582380Y8276051D01*
X7562546Y8302546D01*
X7547155Y8314068D01*
X8349500Y8314068D01*
X8349500Y8185933D01*
X8374497Y8060261D01*
X8374498Y8060258D01*
X8418483Y7954068D01*
X8423535Y7941873D01*
X8494724Y7835331D01*
X8585331Y7744724D01*
X8691873Y7673535D01*
X8810256Y7624499D01*
X8810258Y7624499D01*
X8810260Y7624498D01*
X8852903Y7616016D01*
X8935931Y7599500D01*
X8935933Y7599500D01*
X9064067Y7599500D01*
X9064069Y7599500D01*
X9189744Y7624499D01*
X9308127Y7673535D01*
X9414669Y7744724D01*
X9505276Y7835331D01*
X9576465Y7941873D01*
X9581516Y7954068D01*
X17039500Y7954068D01*
X17039500Y7825933D01*
X17064497Y7700261D01*
X17064498Y7700258D01*
X17106233Y7599500D01*
X17113535Y7581873D01*
X17184724Y7475331D01*
X17275331Y7384724D01*
X17381873Y7313535D01*
X17500256Y7264499D01*
X17500258Y7264499D01*
X17500260Y7264498D01*
X17542903Y7256016D01*
X17625931Y7239500D01*
X17625933Y7239500D01*
X17754067Y7239500D01*
X17754069Y7239500D01*
X17879744Y7264499D01*
X17998127Y7313535D01*
X18104669Y7384724D01*
X18195276Y7475331D01*
X18266465Y7581873D01*
X18315501Y7700256D01*
X18340500Y7825931D01*
X18340500Y7954069D01*
X18315501Y8079744D01*
X18266465Y8198127D01*
X18195276Y8304669D01*
X18104669Y8395276D01*
X17998127Y8466465D01*
X17998124Y8466467D01*
X17998123Y8466467D01*
X17879742Y8515502D01*
X17879739Y8515503D01*
X17789696Y8533414D01*
X17754069Y8540500D01*
X17625931Y8540500D01*
X17594726Y8534293D01*
X17500260Y8515503D01*
X17500257Y8515502D01*
X17381876Y8466467D01*
X17275331Y8395277D01*
X17275330Y8395275D01*
X17184725Y8304670D01*
X17184723Y8304669D01*
X17113533Y8198124D01*
X17064498Y8079743D01*
X17064497Y8079740D01*
X17039500Y7954068D01*
X9581516Y7954068D01*
X9625501Y8060256D01*
X9650500Y8185931D01*
X9650500Y8314069D01*
X9638168Y8376061D01*
X9625502Y8439740D01*
X9625501Y8439743D01*
X9623116Y8445500D01*
X9576465Y8558127D01*
X9505276Y8664669D01*
X9414669Y8755276D01*
X9308127Y8826465D01*
X9308124Y8826467D01*
X9308123Y8826467D01*
X9189742Y8875502D01*
X9189739Y8875503D01*
X9099696Y8893414D01*
X9064069Y8900500D01*
X8935931Y8900500D01*
X8904726Y8894293D01*
X8810260Y8875503D01*
X8810257Y8875502D01*
X8691876Y8826467D01*
X8585331Y8755277D01*
X8585330Y8755275D01*
X8494725Y8664670D01*
X8494723Y8664669D01*
X8423533Y8558124D01*
X8374498Y8439743D01*
X8374497Y8439740D01*
X8349500Y8314068D01*
X7547155Y8314068D01*
X7447331Y8388796D01*
X7447330Y8388797D01*
X7447329Y8388798D01*
X7312487Y8439090D01*
X7312484Y8439091D01*
X7312483Y8439091D01*
X7252873Y8445500D01*
X6257126Y8445500D01*
X6197514Y8439091D01*
X6062670Y8388798D01*
X6062669Y8388797D01*
X5947454Y8302546D01*
X5861203Y8187331D01*
X5861202Y8187330D01*
X5810910Y8052488D01*
X5810909Y8052483D01*
X5804500Y7992874D01*
X5804500Y7497128D01*
X5810909Y7437515D01*
X5861202Y7302671D01*
X5861203Y7302670D01*
X5861204Y7302669D01*
X5947454Y7187454D01*
X6017387Y7135102D01*
X6027403Y7127604D01*
X6056303Y7078895D01*
X6042296Y7024017D01*
X6035382Y7016038D01*
X5960883Y6941539D01*
X5884223Y6826809D01*
X5831421Y6699333D01*
X5831418Y6699323D01*
X5804500Y6563992D01*
X5804500Y6426009D01*
X5831418Y6290678D01*
X5831421Y6290668D01*
X5884223Y6163192D01*
X5884224Y6163190D01*
X5884225Y6163189D01*
X5960886Y6048458D01*
X6058458Y5950886D01*
X6058461Y5950884D01*
X6058463Y5950882D01*
X6087428Y5931528D01*
X6118893Y5884436D01*
X6107843Y5828887D01*
X6087428Y5808472D01*
X6058463Y5789119D01*
X5960883Y5691539D01*
X5884223Y5576809D01*
X5831421Y5449333D01*
X5831418Y5449323D01*
X5804500Y5313992D01*
X5804500Y5176009D01*
X5831418Y5040678D01*
X5831421Y5040668D01*
X5884223Y4913192D01*
X5884224Y4913190D01*
X5884225Y4913189D01*
X5960886Y4798458D01*
X6019938Y4739406D01*
X6041612Y4687081D01*
X6019938Y4634755D01*
X6008727Y4625554D01*
X5995034Y4616405D01*
X5995032Y4616403D01*
X5883599Y4504971D01*
X5883598Y4504970D01*
X5796047Y4373939D01*
X5735743Y4228352D01*
X5735741Y4228345D01*
X5714190Y4120001D01*
X300500Y4120001D01*
X300500Y9284068D01*
X35179500Y9284068D01*
X35179500Y9155933D01*
X35204497Y9030261D01*
X35204498Y9030258D01*
X35204499Y9030256D01*
X35253535Y8911873D01*
X35324724Y8805331D01*
X35415331Y8714724D01*
X35521873Y8643535D01*
X35640256Y8594499D01*
X35640258Y8594499D01*
X35640260Y8594498D01*
X35682903Y8586016D01*
X35765931Y8569500D01*
X35765933Y8569500D01*
X35894067Y8569500D01*
X35894069Y8569500D01*
X36019744Y8594499D01*
X36138127Y8643535D01*
X36244669Y8714724D01*
X36335276Y8805331D01*
X36406465Y8911873D01*
X36455501Y9030256D01*
X36480500Y9155931D01*
X36480500Y9284069D01*
X36455501Y9409744D01*
X36406465Y9528127D01*
X36335276Y9634669D01*
X36244669Y9725276D01*
X36138127Y9796465D01*
X36138124Y9796467D01*
X36138123Y9796467D01*
X36019742Y9845502D01*
X36019739Y9845503D01*
X35929696Y9863414D01*
X35894069Y9870500D01*
X35765931Y9870500D01*
X35734726Y9864293D01*
X35640260Y9845503D01*
X35640257Y9845502D01*
X35521876Y9796467D01*
X35415331Y9725277D01*
X35415330Y9725275D01*
X35324725Y9634670D01*
X35324723Y9634669D01*
X35253533Y9528124D01*
X35204498Y9409743D01*
X35204497Y9409740D01*
X35179500Y9284068D01*
X300500Y9284068D01*
X300500Y11314068D01*
X30849500Y11314068D01*
X30849500Y11185933D01*
X30874497Y11060261D01*
X30874498Y11060258D01*
X30874499Y11060256D01*
X30923535Y10941873D01*
X30994724Y10835331D01*
X31085331Y10744724D01*
X31172427Y10686528D01*
X31203893Y10639437D01*
X31192844Y10583888D01*
X31172428Y10563473D01*
X31139703Y10541606D01*
X31085331Y10505277D01*
X31085330Y10505275D01*
X30994725Y10414670D01*
X30994723Y10414669D01*
X30923533Y10308124D01*
X30874498Y10189743D01*
X30874497Y10189740D01*
X30853043Y10081883D01*
X30849500Y10064069D01*
X30849500Y9935931D01*
X30856586Y9900304D01*
X30874497Y9810261D01*
X30874498Y9810258D01*
X30909698Y9725277D01*
X30923535Y9691873D01*
X30994724Y9585331D01*
X31085331Y9494724D01*
X31191873Y9423535D01*
X31310256Y9374499D01*
X31310258Y9374499D01*
X31310260Y9374498D01*
X31352903Y9366016D01*
X31435931Y9349500D01*
X31435933Y9349500D01*
X31564067Y9349500D01*
X31564069Y9349500D01*
X31689744Y9374499D01*
X31808127Y9423535D01*
X31914669Y9494724D01*
X32005276Y9585331D01*
X32076465Y9691873D01*
X32125501Y9810256D01*
X32150500Y9935931D01*
X32150500Y10064069D01*
X32138168Y10126061D01*
X32125502Y10189740D01*
X32125501Y10189743D01*
X32076466Y10308124D01*
X32076465Y10308127D01*
X32005276Y10414669D01*
X31914669Y10505276D01*
X31860298Y10541606D01*
X34264500Y10541606D01*
X34264500Y10418395D01*
X34288535Y10297555D01*
X34288537Y10297548D01*
X34335688Y10183715D01*
X34335689Y10183714D01*
X34404142Y10081267D01*
X34491267Y9994142D01*
X34593714Y9925689D01*
X34707548Y9878537D01*
X34828394Y9854500D01*
X34951606Y9854500D01*
X35072452Y9878537D01*
X35186286Y9925689D01*
X35288733Y9994142D01*
X35375858Y10081267D01*
X35444311Y10183714D01*
X35491463Y10297548D01*
X35515500Y10418394D01*
X35515500Y10541606D01*
X35491463Y10662452D01*
X35444311Y10776286D01*
X35375858Y10878733D01*
X35288733Y10965858D01*
X35186286Y11034311D01*
X35186287Y11034311D01*
X35186285Y11034312D01*
X35072452Y11081463D01*
X35072445Y11081465D01*
X34951606Y11105500D01*
X34828394Y11105500D01*
X34707554Y11081465D01*
X34707547Y11081463D01*
X34593714Y11034312D01*
X34491270Y10965861D01*
X34404139Y10878730D01*
X34335688Y10776286D01*
X34288537Y10662453D01*
X34288535Y10662446D01*
X34264500Y10541606D01*
X31860298Y10541606D01*
X31826469Y10564210D01*
X31825419Y10564966D01*
X31811170Y10588018D01*
X31796106Y10610563D01*
X31796380Y10611945D01*
X31795640Y10613143D01*
X31801866Y10639525D01*
X31807155Y10666112D01*
X31808446Y10667404D01*
X31808650Y10668265D01*
X31810373Y10669331D01*
X31827568Y10686526D01*
X31914669Y10744724D01*
X32005276Y10835331D01*
X32076465Y10941873D01*
X32125501Y11060256D01*
X32150500Y11185931D01*
X32150500Y11314069D01*
X32136178Y11386071D01*
X32125502Y11439740D01*
X32125501Y11439743D01*
X32076466Y11558124D01*
X32076465Y11558127D01*
X32005276Y11664669D01*
X31914669Y11755276D01*
X31808127Y11826465D01*
X31808124Y11826467D01*
X31808123Y11826467D01*
X31689742Y11875502D01*
X31689739Y11875503D01*
X31599696Y11893414D01*
X31564069Y11900500D01*
X31435931Y11900500D01*
X31404726Y11894293D01*
X31310260Y11875503D01*
X31310257Y11875502D01*
X31191876Y11826467D01*
X31085331Y11755277D01*
X31085330Y11755275D01*
X30994725Y11664670D01*
X30994723Y11664669D01*
X30923533Y11558124D01*
X30874498Y11439743D01*
X30874497Y11439740D01*
X30849500Y11314068D01*
X300500Y11314068D01*
X300500Y12825001D01*
X3682231Y12825001D01*
X3682232Y12825000D01*
X4300758Y12825000D01*
X4295444Y12815796D01*
X4275000Y12739496D01*
X4275000Y12660504D01*
X4295444Y12584204D01*
X4300758Y12575000D01*
X3682231Y12575000D01*
X3709584Y12437487D01*
X3709587Y12437476D01*
X3777427Y12273695D01*
X3875923Y12126284D01*
X4001283Y12000924D01*
X4148695Y11902428D01*
X4148694Y11902428D01*
X4312475Y11834588D01*
X4312486Y11834585D01*
X4486359Y11800000D01*
X4850000Y11800000D01*
X4850000Y12400000D01*
X5100000Y12400000D01*
X5100000Y11800000D01*
X5463641Y11800000D01*
X5637513Y11834585D01*
X5637524Y11834588D01*
X5801305Y11902428D01*
X5948716Y12000924D01*
X5948718Y12000925D01*
X6074075Y12126282D01*
X6074076Y12126284D01*
X6172572Y12273695D01*
X6240412Y12437476D01*
X6240415Y12437487D01*
X6267768Y12575000D01*
X5649242Y12575000D01*
X5654556Y12584204D01*
X5675000Y12660504D01*
X5675000Y12739496D01*
X5654556Y12815796D01*
X5649242Y12825000D01*
X6267768Y12825000D01*
X6267768Y12825001D01*
X7712231Y12825001D01*
X7712232Y12825000D01*
X8330758Y12825000D01*
X8325444Y12815796D01*
X8305000Y12739496D01*
X8305000Y12660504D01*
X8325444Y12584204D01*
X8330758Y12575000D01*
X7712231Y12575000D01*
X7739584Y12437487D01*
X7739587Y12437476D01*
X7807427Y12273695D01*
X7905923Y12126284D01*
X8031283Y12000924D01*
X8178695Y11902428D01*
X8178694Y11902428D01*
X8342475Y11834588D01*
X8342486Y11834585D01*
X8516359Y11800000D01*
X9030000Y11800000D01*
X9030000Y12400000D01*
X9280000Y12400000D01*
X9280000Y11800000D01*
X9793641Y11800000D01*
X9967513Y11834585D01*
X9967524Y11834588D01*
X10131305Y11902428D01*
X10278716Y12000924D01*
X10278718Y12000925D01*
X10341861Y12064068D01*
X15349500Y12064068D01*
X15349500Y11935933D01*
X15374497Y11810261D01*
X15374498Y11810258D01*
X15397272Y11755276D01*
X15423535Y11691873D01*
X15494724Y11585331D01*
X15585331Y11494724D01*
X15691873Y11423535D01*
X15810256Y11374499D01*
X15810258Y11374499D01*
X15810260Y11374498D01*
X15852903Y11366016D01*
X15935931Y11349500D01*
X15935933Y11349500D01*
X16064067Y11349500D01*
X16064069Y11349500D01*
X16189744Y11374499D01*
X16308127Y11423535D01*
X16414669Y11494724D01*
X16505276Y11585331D01*
X16576465Y11691873D01*
X16625501Y11810256D01*
X16650500Y11935931D01*
X16650500Y12064069D01*
X16625501Y12189744D01*
X16576465Y12308127D01*
X16505276Y12414669D01*
X16414669Y12505276D01*
X16308127Y12576465D01*
X16308124Y12576467D01*
X16308123Y12576467D01*
X16189742Y12625502D01*
X16189739Y12625503D01*
X16099696Y12643414D01*
X16064069Y12650500D01*
X15935931Y12650500D01*
X15904726Y12644293D01*
X15810260Y12625503D01*
X15810257Y12625502D01*
X15691876Y12576467D01*
X15585331Y12505277D01*
X15585330Y12505275D01*
X15494725Y12414670D01*
X15494723Y12414669D01*
X15423533Y12308124D01*
X15374498Y12189743D01*
X15374497Y12189740D01*
X15349500Y12064068D01*
X10341861Y12064068D01*
X10404075Y12126282D01*
X10404076Y12126284D01*
X10502572Y12273695D01*
X10570412Y12437476D01*
X10570415Y12437487D01*
X10597768Y12575000D01*
X9979242Y12575000D01*
X9984556Y12584204D01*
X10005000Y12660504D01*
X10005000Y12739496D01*
X9984556Y12815796D01*
X9979242Y12825000D01*
X10597768Y12825000D01*
X10597768Y12825001D01*
X10570415Y12962514D01*
X10570413Y12962521D01*
X10534279Y13049756D01*
X10534279Y13049757D01*
X10524055Y13074440D01*
X20212200Y13074440D01*
X20212200Y12925561D01*
X20241243Y12779548D01*
X20241245Y12779541D01*
X20298218Y12641995D01*
X20380929Y12518210D01*
X20380932Y12518206D01*
X20486206Y12412932D01*
X20609994Y12330219D01*
X20747541Y12273245D01*
X20893560Y12244200D01*
X20893561Y12244200D01*
X21042439Y12244200D01*
X21042440Y12244200D01*
X21188459Y12273245D01*
X21326006Y12330219D01*
X21449794Y12412932D01*
X21555068Y12518206D01*
X21637781Y12641994D01*
X21694755Y12779541D01*
X21723800Y12925560D01*
X21723800Y13074440D01*
X22244200Y13074440D01*
X22244200Y12925561D01*
X22273243Y12779548D01*
X22273245Y12779541D01*
X22330218Y12641995D01*
X22412929Y12518210D01*
X22412932Y12518206D01*
X22518206Y12412932D01*
X22641994Y12330219D01*
X22779541Y12273245D01*
X22925560Y12244200D01*
X22925561Y12244200D01*
X23074439Y12244200D01*
X23074440Y12244200D01*
X23220459Y12273245D01*
X23358006Y12330219D01*
X23481794Y12412932D01*
X23587068Y12518206D01*
X23617713Y12564069D01*
X27849500Y12564069D01*
X27849500Y12435931D01*
X27854075Y12412932D01*
X27874497Y12310261D01*
X27874498Y12310258D01*
X27889829Y12273245D01*
X27923535Y12191873D01*
X27994724Y12085331D01*
X28085331Y11994724D01*
X28191873Y11923535D01*
X28310256Y11874499D01*
X28310258Y11874499D01*
X28310260Y11874498D01*
X28352903Y11866016D01*
X28435931Y11849500D01*
X28435933Y11849500D01*
X28564067Y11849500D01*
X28564069Y11849500D01*
X28689744Y11874499D01*
X28808127Y11923535D01*
X28914669Y11994724D01*
X29005276Y12085331D01*
X29076465Y12191873D01*
X29125501Y12310256D01*
X29150500Y12435931D01*
X29150500Y12564069D01*
X29125501Y12689744D01*
X29076465Y12808127D01*
X29005276Y12914669D01*
X28914669Y13005276D01*
X28808127Y13076465D01*
X28808124Y13076467D01*
X28808123Y13076467D01*
X28689742Y13125502D01*
X28689739Y13125503D01*
X28599696Y13143414D01*
X28564069Y13150500D01*
X28435931Y13150500D01*
X28404726Y13144293D01*
X28310260Y13125503D01*
X28310257Y13125502D01*
X28191876Y13076467D01*
X28085331Y13005277D01*
X28085330Y13005275D01*
X27994725Y12914670D01*
X27994723Y12914669D01*
X27923533Y12808124D01*
X27874498Y12689743D01*
X27874497Y12689740D01*
X27858401Y12608816D01*
X27849500Y12564069D01*
X23617713Y12564069D01*
X23669781Y12641994D01*
X23726755Y12779541D01*
X23755800Y12925560D01*
X23755800Y13074440D01*
X23726755Y13220459D01*
X23669781Y13358006D01*
X23587068Y13481794D01*
X23481794Y13587068D01*
X23481790Y13587071D01*
X23358005Y13669782D01*
X23220459Y13726755D01*
X23220452Y13726757D01*
X23110450Y13748638D01*
X23074440Y13755800D01*
X22925560Y13755800D01*
X22896674Y13750055D01*
X22779547Y13726757D01*
X22779540Y13726755D01*
X22641994Y13669782D01*
X22518209Y13587071D01*
X22412929Y13481791D01*
X22330218Y13358006D01*
X22273245Y13220460D01*
X22273243Y13220453D01*
X22244200Y13074440D01*
X21723800Y13074440D01*
X21694755Y13220459D01*
X21637781Y13358006D01*
X21555068Y13481794D01*
X21449794Y13587068D01*
X21449790Y13587071D01*
X21326005Y13669782D01*
X21188459Y13726755D01*
X21188452Y13726757D01*
X21078450Y13748638D01*
X21042440Y13755800D01*
X20893560Y13755800D01*
X20864674Y13750055D01*
X20747547Y13726757D01*
X20747540Y13726755D01*
X20609994Y13669782D01*
X20486209Y13587071D01*
X20380929Y13481791D01*
X20298218Y13358006D01*
X20241245Y13220460D01*
X20241243Y13220453D01*
X20212200Y13074440D01*
X10524055Y13074440D01*
X10502572Y13126306D01*
X10404076Y13273717D01*
X10278716Y13399077D01*
X10131304Y13497573D01*
X10131305Y13497573D01*
X9967524Y13565413D01*
X9967513Y13565416D01*
X9793641Y13600000D01*
X9280000Y13600000D01*
X9280000Y13000000D01*
X9030000Y13000000D01*
X9030000Y13619568D01*
X9022162Y13638490D01*
X9043835Y13690815D01*
X9123516Y13770495D01*
X9200599Y13904006D01*
X9240499Y14052915D01*
X9240500Y14052915D01*
X9240500Y14207085D01*
X9240499Y14207086D01*
X9200600Y14355991D01*
X9200598Y14355996D01*
X9123518Y14489502D01*
X9123517Y14489503D01*
X9123516Y14489505D01*
X9014505Y14598516D01*
X9014502Y14598518D01*
X9014501Y14598519D01*
X8880995Y14675599D01*
X8880990Y14675601D01*
X8732085Y14715500D01*
X8732083Y14715500D01*
X8577917Y14715500D01*
X8577915Y14715500D01*
X8429009Y14675601D01*
X8429004Y14675599D01*
X8295498Y14598519D01*
X8186481Y14489502D01*
X8109401Y14355996D01*
X8109399Y14355991D01*
X8069500Y14207086D01*
X8069500Y14052915D01*
X8109399Y13904010D01*
X8109401Y13904005D01*
X8186481Y13770499D01*
X8186482Y13770498D01*
X8186484Y13770495D01*
X8295495Y13661484D01*
X8295497Y13661483D01*
X8298877Y13658103D01*
X8320551Y13605777D01*
X8298877Y13553451D01*
X8274870Y13537410D01*
X8178693Y13497572D01*
X8031283Y13399077D01*
X8031282Y13399075D01*
X7905925Y13273718D01*
X7905923Y13273717D01*
X7807427Y13126306D01*
X7739587Y12962525D01*
X7739584Y12962514D01*
X7712231Y12825001D01*
X6267768Y12825001D01*
X6240415Y12962514D01*
X6240412Y12962525D01*
X6172572Y13126306D01*
X6074076Y13273717D01*
X5948716Y13399077D01*
X5801304Y13497573D01*
X5801305Y13497573D01*
X5637524Y13565413D01*
X5637513Y13565416D01*
X5463641Y13600000D01*
X5100000Y13600000D01*
X5100000Y13000000D01*
X4850000Y13000000D01*
X4850000Y13600000D01*
X4486359Y13600000D01*
X4312486Y13565416D01*
X4312475Y13565413D01*
X4148694Y13497573D01*
X4001283Y13399077D01*
X4001282Y13399075D01*
X3875925Y13273718D01*
X3875923Y13273717D01*
X3777427Y13126306D01*
X3709587Y12962525D01*
X3709584Y12962514D01*
X3682231Y12825001D01*
X300500Y12825001D01*
X300500Y15018958D01*
X17996050Y15018958D01*
X17996050Y14791043D01*
X18031703Y14565941D01*
X18031706Y14565928D01*
X18102130Y14349183D01*
X18102132Y14349179D01*
X18205600Y14146113D01*
X18205603Y14146107D01*
X18339562Y13961729D01*
X18339566Y13961724D01*
X18500724Y13800566D01*
X18500727Y13800564D01*
X18500728Y13800563D01*
X18542107Y13770499D01*
X18685109Y13666602D01*
X18804485Y13605777D01*
X18888178Y13563133D01*
X18888182Y13563131D01*
X19104927Y13492707D01*
X19104933Y13492706D01*
X19104938Y13492704D01*
X19173820Y13481794D01*
X19330042Y13457050D01*
X19330044Y13457050D01*
X19557958Y13457050D01*
X19647998Y13471312D01*
X19783062Y13492704D01*
X19783069Y13492707D01*
X19783072Y13492707D01*
X19999817Y13563131D01*
X19999817Y13563132D01*
X19999820Y13563132D01*
X20202891Y13666602D01*
X20387276Y13800566D01*
X20548434Y13961724D01*
X20682398Y14146109D01*
X20785868Y14349180D01*
X20851726Y14551873D01*
X20856293Y14565928D01*
X20856293Y14565931D01*
X20856296Y14565938D01*
X20891950Y14791044D01*
X20891950Y15018956D01*
X20891950Y15018958D01*
X23076050Y15018958D01*
X23076050Y14791043D01*
X23111703Y14565941D01*
X23111706Y14565928D01*
X23182130Y14349183D01*
X23182132Y14349179D01*
X23285600Y14146113D01*
X23285603Y14146107D01*
X23419562Y13961729D01*
X23419566Y13961724D01*
X23580724Y13800566D01*
X23580727Y13800564D01*
X23580728Y13800563D01*
X23622107Y13770499D01*
X23765109Y13666602D01*
X23884485Y13605777D01*
X23968178Y13563133D01*
X23968182Y13563131D01*
X24184927Y13492707D01*
X24184933Y13492706D01*
X24184938Y13492704D01*
X24253820Y13481794D01*
X24410042Y13457050D01*
X24410044Y13457050D01*
X24637958Y13457050D01*
X24727998Y13471312D01*
X24863062Y13492704D01*
X24863069Y13492707D01*
X24863072Y13492707D01*
X25079817Y13563131D01*
X25079817Y13563132D01*
X25079820Y13563132D01*
X25282891Y13666602D01*
X25467276Y13800566D01*
X25628434Y13961724D01*
X25762398Y14146109D01*
X25865868Y14349180D01*
X25931726Y14551873D01*
X25936293Y14565928D01*
X25936293Y14565931D01*
X25936296Y14565938D01*
X25971950Y14791044D01*
X25971950Y14924069D01*
X40979500Y14924069D01*
X40979500Y14795931D01*
X40986586Y14760304D01*
X41004497Y14670261D01*
X41004498Y14670258D01*
X41034214Y14598516D01*
X41053535Y14551873D01*
X41124724Y14445331D01*
X41215331Y14354724D01*
X41321873Y14283535D01*
X41440256Y14234499D01*
X41440258Y14234499D01*
X41440260Y14234498D01*
X41482903Y14226016D01*
X41565931Y14209500D01*
X41565933Y14209500D01*
X41694067Y14209500D01*
X41694069Y14209500D01*
X41819744Y14234499D01*
X41938127Y14283535D01*
X42044669Y14354724D01*
X42135276Y14445331D01*
X42206465Y14551873D01*
X42255501Y14670256D01*
X42280500Y14795931D01*
X42280500Y14924069D01*
X42255501Y15049744D01*
X42206465Y15168127D01*
X42135276Y15274669D01*
X42044669Y15365276D01*
X41938127Y15436465D01*
X41938124Y15436467D01*
X41938123Y15436467D01*
X41819742Y15485502D01*
X41819739Y15485503D01*
X41729696Y15503414D01*
X41694069Y15510500D01*
X41565931Y15510500D01*
X41534726Y15504293D01*
X41440260Y15485503D01*
X41440257Y15485502D01*
X41321876Y15436467D01*
X41215331Y15365277D01*
X41215330Y15365275D01*
X41124725Y15274670D01*
X41124723Y15274669D01*
X41053533Y15168124D01*
X41004498Y15049743D01*
X41004497Y15049740D01*
X40983043Y14941883D01*
X40979500Y14924069D01*
X25971950Y14924069D01*
X25971950Y15018956D01*
X25936296Y15244062D01*
X25936294Y15244067D01*
X25936293Y15244073D01*
X25865869Y15460818D01*
X25865867Y15460822D01*
X25840555Y15510500D01*
X25762398Y15663891D01*
X25628434Y15848276D01*
X25467276Y16009434D01*
X25467273Y16009437D01*
X25467271Y16009438D01*
X25282893Y16143397D01*
X25282887Y16143400D01*
X25171804Y16200000D01*
X50610000Y16200000D01*
X52700000Y16200000D01*
X52700000Y18100000D01*
X50610000Y18100000D01*
X50610000Y16200000D01*
X25171804Y16200000D01*
X25079821Y16246868D01*
X25079817Y16246870D01*
X24863072Y16317294D01*
X24863059Y16317297D01*
X24637958Y16352950D01*
X24637956Y16352950D01*
X24410044Y16352950D01*
X24410042Y16352950D01*
X24184940Y16317297D01*
X24184927Y16317294D01*
X23968182Y16246870D01*
X23968178Y16246868D01*
X23765112Y16143400D01*
X23765106Y16143397D01*
X23580728Y16009438D01*
X23419562Y15848272D01*
X23285603Y15663894D01*
X23285600Y15663888D01*
X23182132Y15460822D01*
X23182130Y15460818D01*
X23111706Y15244073D01*
X23111703Y15244060D01*
X23076050Y15018958D01*
X20891950Y15018958D01*
X20856296Y15244062D01*
X20856294Y15244067D01*
X20856293Y15244073D01*
X20785869Y15460818D01*
X20785867Y15460822D01*
X20760555Y15510500D01*
X20682398Y15663891D01*
X20548434Y15848276D01*
X20387276Y16009434D01*
X20387273Y16009437D01*
X20387271Y16009438D01*
X20202893Y16143397D01*
X20202887Y16143400D01*
X19999821Y16246868D01*
X19999817Y16246870D01*
X19783072Y16317294D01*
X19783059Y16317297D01*
X19557958Y16352950D01*
X19557956Y16352950D01*
X19330044Y16352950D01*
X19330042Y16352950D01*
X19104940Y16317297D01*
X19104927Y16317294D01*
X18888182Y16246870D01*
X18888178Y16246868D01*
X18685112Y16143400D01*
X18685106Y16143397D01*
X18500728Y16009438D01*
X18339562Y15848272D01*
X18205603Y15663894D01*
X18205600Y15663888D01*
X18102132Y15460822D01*
X18102130Y15460818D01*
X18031706Y15244073D01*
X18031703Y15244060D01*
X17996050Y15018958D01*
X300500Y15018958D01*
X300500Y18193958D01*
X17996050Y18193958D01*
X17996050Y17966043D01*
X18031703Y17740941D01*
X18031706Y17740928D01*
X18102130Y17524183D01*
X18102132Y17524179D01*
X18160198Y17410219D01*
X18205602Y17321109D01*
X18339566Y17136724D01*
X18500724Y16975566D01*
X18685109Y16841602D01*
X18881113Y16741733D01*
X18888178Y16738133D01*
X18888182Y16738131D01*
X19104927Y16667707D01*
X19104933Y16667706D01*
X19104938Y16667704D01*
X19217491Y16649877D01*
X19330042Y16632050D01*
X19330044Y16632050D01*
X19557958Y16632050D01*
X19647998Y16646312D01*
X19783062Y16667704D01*
X19783069Y16667707D01*
X19783072Y16667707D01*
X19999817Y16738131D01*
X19999817Y16738132D01*
X19999820Y16738132D01*
X20202891Y16841602D01*
X20387276Y16975566D01*
X20548434Y17136724D01*
X20682398Y17321109D01*
X20785868Y17524180D01*
X20809920Y17598206D01*
X20856293Y17740928D01*
X20856293Y17740931D01*
X20856296Y17740938D01*
X20891950Y17966044D01*
X20891950Y18193956D01*
X20882663Y18252588D01*
X20856296Y18419060D01*
X20856293Y18419073D01*
X20792897Y18614187D01*
X20797341Y18670649D01*
X20840408Y18707432D01*
X20896870Y18702988D01*
X20904378Y18698588D01*
X20941873Y18673535D01*
X21060256Y18624499D01*
X21060258Y18624499D01*
X21060260Y18624498D01*
X21102903Y18616016D01*
X21185931Y18599500D01*
X21185933Y18599500D01*
X21283682Y18599500D01*
X21336008Y18577826D01*
X21357682Y18525500D01*
X21345211Y18484388D01*
X21314218Y18438006D01*
X21257245Y18300460D01*
X21257243Y18300453D01*
X21228200Y18154440D01*
X21228200Y18005561D01*
X21257243Y17859548D01*
X21257245Y17859541D01*
X21314218Y17721995D01*
X21314219Y17721994D01*
X21396932Y17598206D01*
X21502206Y17492932D01*
X21625994Y17410219D01*
X21763541Y17353245D01*
X21909560Y17324200D01*
X21909561Y17324200D01*
X22058439Y17324200D01*
X22058440Y17324200D01*
X22204459Y17353245D01*
X22342006Y17410219D01*
X22465794Y17492932D01*
X22571068Y17598206D01*
X22653781Y17721994D01*
X22710755Y17859541D01*
X22739800Y18005560D01*
X22739800Y18154440D01*
X22731939Y18193958D01*
X23076050Y18193958D01*
X23076050Y17966043D01*
X23111703Y17740941D01*
X23111706Y17740928D01*
X23182130Y17524183D01*
X23182132Y17524179D01*
X23240198Y17410219D01*
X23285602Y17321109D01*
X23419566Y17136724D01*
X23580724Y16975566D01*
X23765109Y16841602D01*
X23961113Y16741733D01*
X23968178Y16738133D01*
X23968182Y16738131D01*
X24184927Y16667707D01*
X24184933Y16667706D01*
X24184938Y16667704D01*
X24297491Y16649877D01*
X24410042Y16632050D01*
X24410044Y16632050D01*
X24637958Y16632050D01*
X24727998Y16646312D01*
X24863062Y16667704D01*
X24863069Y16667707D01*
X24863072Y16667707D01*
X25079817Y16738131D01*
X25079817Y16738132D01*
X25079820Y16738132D01*
X25282891Y16841602D01*
X25467276Y16975566D01*
X25628434Y17136724D01*
X25762398Y17321109D01*
X25865868Y17524180D01*
X25889920Y17598206D01*
X25936293Y17740928D01*
X25936293Y17740931D01*
X25936296Y17740938D01*
X25971950Y17966044D01*
X25971950Y18193956D01*
X25952926Y18314068D01*
X29099500Y18314068D01*
X29099500Y18185933D01*
X29124497Y18060261D01*
X29124498Y18060258D01*
X29124499Y18060256D01*
X29173535Y17941873D01*
X29244724Y17835331D01*
X29335331Y17744724D01*
X29441873Y17673535D01*
X29560256Y17624499D01*
X29560258Y17624499D01*
X29560260Y17624498D01*
X29602903Y17616016D01*
X29685931Y17599500D01*
X29685933Y17599500D01*
X29814067Y17599500D01*
X29814069Y17599500D01*
X29939744Y17624499D01*
X30058127Y17673535D01*
X30164669Y17744724D01*
X30255276Y17835331D01*
X30326465Y17941873D01*
X30375501Y18060256D01*
X30400500Y18185931D01*
X30400500Y18314069D01*
X30388168Y18376061D01*
X30375502Y18439740D01*
X30375501Y18439743D01*
X30365693Y18463421D01*
X30326465Y18558127D01*
X30255276Y18664669D01*
X30164669Y18755276D01*
X30058127Y18826465D01*
X30058124Y18826467D01*
X30058123Y18826467D01*
X30010340Y18846259D01*
X29939744Y18875501D01*
X29939740Y18875502D01*
X29897096Y18883985D01*
X29814069Y18900500D01*
X29685931Y18900500D01*
X29654726Y18894293D01*
X29560260Y18875503D01*
X29560257Y18875502D01*
X29441876Y18826467D01*
X29335331Y18755277D01*
X29335330Y18755275D01*
X29244725Y18664670D01*
X29244723Y18664669D01*
X29173533Y18558124D01*
X29124498Y18439743D01*
X29124497Y18439740D01*
X29099500Y18314068D01*
X25952926Y18314068D01*
X25936296Y18419062D01*
X25936294Y18419067D01*
X25936293Y18419073D01*
X25865869Y18635818D01*
X25865867Y18635822D01*
X25839105Y18688346D01*
X25762398Y18838891D01*
X25735798Y18875502D01*
X25687369Y18942159D01*
X41516199Y18942159D01*
X41516199Y18814021D01*
X41522826Y18780705D01*
X41541196Y18688351D01*
X41541197Y18688348D01*
X41571915Y18614187D01*
X41590234Y18569963D01*
X41661423Y18463421D01*
X41752030Y18372814D01*
X41858572Y18301625D01*
X41976955Y18252589D01*
X41976957Y18252589D01*
X41976959Y18252588D01*
X42019602Y18244106D01*
X42102630Y18227590D01*
X42102632Y18227590D01*
X42230766Y18227590D01*
X42230768Y18227590D01*
X42356443Y18252589D01*
X42474826Y18301625D01*
X42581368Y18372814D01*
X42671975Y18463421D01*
X42743164Y18569963D01*
X42792200Y18688346D01*
X42817199Y18814021D01*
X42817199Y18942159D01*
X42801062Y19023281D01*
X42792201Y19067830D01*
X42792200Y19067833D01*
X42790728Y19071386D01*
X42743164Y19186217D01*
X42671975Y19292759D01*
X42581368Y19383366D01*
X42474826Y19454555D01*
X42474823Y19454557D01*
X42474822Y19454557D01*
X42356441Y19503592D01*
X42356438Y19503593D01*
X42266395Y19521504D01*
X42230768Y19528590D01*
X42102630Y19528590D01*
X42071425Y19522383D01*
X41976959Y19503593D01*
X41976956Y19503592D01*
X41858575Y19454557D01*
X41752030Y19383367D01*
X41752029Y19383365D01*
X41661424Y19292760D01*
X41661422Y19292759D01*
X41590232Y19186214D01*
X41541197Y19067833D01*
X41541196Y19067830D01*
X41519742Y18959973D01*
X41516199Y18942159D01*
X25687369Y18942159D01*
X25628437Y19023272D01*
X25628436Y19023273D01*
X25628434Y19023276D01*
X25467276Y19184434D01*
X25467273Y19184437D01*
X25467271Y19184438D01*
X25282893Y19318397D01*
X25282887Y19318400D01*
X25079821Y19421868D01*
X25079817Y19421870D01*
X24863072Y19492294D01*
X24863059Y19492297D01*
X24637958Y19527950D01*
X24637956Y19527950D01*
X24410044Y19527950D01*
X24410042Y19527950D01*
X24184940Y19492297D01*
X24184927Y19492294D01*
X23968182Y19421870D01*
X23968178Y19421868D01*
X23765112Y19318400D01*
X23765106Y19318397D01*
X23580728Y19184438D01*
X23419562Y19023272D01*
X23285603Y18838894D01*
X23285600Y18838888D01*
X23182132Y18635822D01*
X23182130Y18635818D01*
X23111706Y18419073D01*
X23111703Y18419060D01*
X23076050Y18193958D01*
X22731939Y18193958D01*
X22710756Y18300454D01*
X22710755Y18300455D01*
X22710755Y18300459D01*
X22653781Y18438006D01*
X22571068Y18561794D01*
X22465794Y18667068D01*
X22456116Y18673535D01*
X22342005Y18749782D01*
X22204459Y18806755D01*
X22204452Y18806757D01*
X22094450Y18828638D01*
X22058440Y18835800D01*
X21909560Y18835800D01*
X21906589Y18835209D01*
X21851040Y18846259D01*
X21819575Y18893351D01*
X21826207Y18938046D01*
X21825074Y18938515D01*
X21826583Y18942159D01*
X21875501Y19060256D01*
X21900500Y19185931D01*
X21900500Y19314069D01*
X21879057Y19421868D01*
X21875502Y19439740D01*
X21875501Y19439743D01*
X21853732Y19492297D01*
X21826465Y19558127D01*
X21755276Y19664669D01*
X21664669Y19755276D01*
X21558127Y19826465D01*
X21558124Y19826467D01*
X21558123Y19826467D01*
X21439742Y19875502D01*
X21439739Y19875503D01*
X21349696Y19893414D01*
X21314069Y19900500D01*
X21185931Y19900500D01*
X21154726Y19894293D01*
X21060260Y19875503D01*
X21060257Y19875502D01*
X20941876Y19826467D01*
X20835331Y19755277D01*
X20835330Y19755275D01*
X20744725Y19664670D01*
X20744723Y19664669D01*
X20673533Y19558124D01*
X20624498Y19439743D01*
X20624497Y19439740D01*
X20599500Y19314068D01*
X20599500Y19185932D01*
X20604976Y19158400D01*
X20593926Y19102851D01*
X20546834Y19071386D01*
X20491285Y19082436D01*
X20480072Y19091638D01*
X20387281Y19184429D01*
X20387276Y19184434D01*
X20387273Y19184437D01*
X20387271Y19184438D01*
X20202893Y19318397D01*
X20202887Y19318400D01*
X19999821Y19421868D01*
X19999817Y19421870D01*
X19783072Y19492294D01*
X19783059Y19492297D01*
X19557958Y19527950D01*
X19557956Y19527950D01*
X19330044Y19527950D01*
X19330042Y19527950D01*
X19104940Y19492297D01*
X19104927Y19492294D01*
X18888182Y19421870D01*
X18888178Y19421868D01*
X18685112Y19318400D01*
X18685106Y19318397D01*
X18500728Y19184438D01*
X18339562Y19023272D01*
X18205603Y18838894D01*
X18205600Y18838888D01*
X18102132Y18635822D01*
X18102130Y18635818D01*
X18031706Y18419073D01*
X18031703Y18419060D01*
X17996050Y18193958D01*
X300500Y18193958D01*
X300500Y21465001D01*
X3682231Y21465001D01*
X3682232Y21465000D01*
X4300758Y21465000D01*
X4295444Y21455796D01*
X4275000Y21379496D01*
X4275000Y21300504D01*
X4295444Y21224204D01*
X4300758Y21215000D01*
X3682231Y21215000D01*
X3709584Y21077487D01*
X3709587Y21077476D01*
X3777427Y20913695D01*
X3875923Y20766284D01*
X4001283Y20640924D01*
X4148695Y20542428D01*
X4148694Y20542428D01*
X4312475Y20474588D01*
X4312486Y20474585D01*
X4486359Y20440000D01*
X4850000Y20440000D01*
X4850000Y21040000D01*
X5100000Y21040000D01*
X5100000Y20440000D01*
X5463641Y20440000D01*
X5637513Y20474585D01*
X5637524Y20474588D01*
X5801305Y20542428D01*
X5948716Y20640924D01*
X5948718Y20640925D01*
X6074075Y20766282D01*
X6074076Y20766284D01*
X6172572Y20913695D01*
X6240412Y21077476D01*
X6240415Y21077487D01*
X6267768Y21215000D01*
X5649242Y21215000D01*
X5654556Y21224204D01*
X5675000Y21300504D01*
X5675000Y21379496D01*
X5654556Y21455796D01*
X5649242Y21465000D01*
X6267768Y21465000D01*
X6267768Y21465001D01*
X7712231Y21465001D01*
X7712232Y21465000D01*
X8330758Y21465000D01*
X8325444Y21455796D01*
X8305000Y21379496D01*
X8305000Y21300504D01*
X8325444Y21224204D01*
X8330758Y21215000D01*
X7712231Y21215000D01*
X7739584Y21077487D01*
X7739587Y21077476D01*
X7807427Y20913695D01*
X7905923Y20766284D01*
X8031283Y20640924D01*
X8178693Y20542429D01*
X8274870Y20502591D01*
X8314918Y20462543D01*
X8314918Y20405905D01*
X8298877Y20381898D01*
X8186481Y20269502D01*
X8109401Y20135996D01*
X8109399Y20135991D01*
X8069500Y19987086D01*
X8069500Y19832915D01*
X8109399Y19684010D01*
X8109401Y19684005D01*
X8186481Y19550499D01*
X8186482Y19550498D01*
X8186484Y19550495D01*
X8295495Y19441484D01*
X8295497Y19441483D01*
X8295498Y19441482D01*
X8429004Y19364402D01*
X8429006Y19364401D01*
X8429007Y19364401D01*
X8429009Y19364400D01*
X8503461Y19344451D01*
X8577914Y19324501D01*
X8577915Y19324500D01*
X8577917Y19324500D01*
X8732085Y19324500D01*
X8732085Y19324501D01*
X8880994Y19364401D01*
X9014505Y19441484D01*
X9123516Y19550495D01*
X9200599Y19684006D01*
X9240499Y19832915D01*
X9240500Y19832915D01*
X9240500Y19987085D01*
X9240499Y19987086D01*
X9200600Y20135991D01*
X9200598Y20135996D01*
X9123729Y20269136D01*
X9123516Y20269505D01*
X9078953Y20314068D01*
X10849500Y20314068D01*
X10849500Y20185933D01*
X10874497Y20060261D01*
X10874498Y20060258D01*
X10904807Y19987085D01*
X10923535Y19941873D01*
X10994724Y19835331D01*
X11085331Y19744724D01*
X11191873Y19673535D01*
X11310256Y19624499D01*
X11310258Y19624499D01*
X11310260Y19624498D01*
X11352903Y19616016D01*
X11435931Y19599500D01*
X11435933Y19599500D01*
X11564067Y19599500D01*
X11564069Y19599500D01*
X11689744Y19624499D01*
X11808127Y19673535D01*
X11914669Y19744724D01*
X12005276Y19835331D01*
X12076465Y19941873D01*
X12125501Y20060256D01*
X12150500Y20185931D01*
X12150500Y20314069D01*
X12125501Y20439744D01*
X12076465Y20558127D01*
X12005276Y20664669D01*
X11914669Y20755276D01*
X11898197Y20766282D01*
X11879473Y20778793D01*
X11808127Y20826465D01*
X11808124Y20826467D01*
X11808123Y20826467D01*
X11689742Y20875502D01*
X11689739Y20875503D01*
X11599696Y20893414D01*
X11564069Y20900500D01*
X11435931Y20900500D01*
X11404726Y20894293D01*
X11310260Y20875503D01*
X11310257Y20875502D01*
X11191876Y20826467D01*
X11085331Y20755277D01*
X11085330Y20755275D01*
X10994725Y20664670D01*
X10994723Y20664669D01*
X10923533Y20558124D01*
X10874498Y20439743D01*
X10874497Y20439740D01*
X10849500Y20314068D01*
X9078953Y20314068D01*
X9043785Y20349236D01*
X9032964Y20375433D01*
X9022162Y20401511D01*
X9022176Y20401547D01*
X9022162Y20401583D01*
X9030000Y20420454D01*
X9030000Y21040000D01*
X9280000Y21040000D01*
X9280000Y20440000D01*
X9793641Y20440000D01*
X9967513Y20474585D01*
X9967524Y20474588D01*
X10131305Y20542428D01*
X10278716Y20640924D01*
X10278718Y20640925D01*
X10404075Y20766282D01*
X10404076Y20766284D01*
X10502572Y20913695D01*
X10570412Y21077476D01*
X10570415Y21077487D01*
X10597768Y21215000D01*
X9979242Y21215000D01*
X9984556Y21224204D01*
X10005000Y21300504D01*
X10005000Y21379496D01*
X9984556Y21455796D01*
X9979242Y21465000D01*
X10597768Y21465000D01*
X10597768Y21465001D01*
X10570415Y21602514D01*
X10570412Y21602525D01*
X10502572Y21766306D01*
X10404076Y21913717D01*
X10278716Y22039077D01*
X10131304Y22137573D01*
X10131305Y22137573D01*
X9967524Y22205413D01*
X9967513Y22205416D01*
X9793641Y22240000D01*
X9280000Y22240000D01*
X9280000Y21640000D01*
X9030000Y21640000D01*
X9030000Y22240000D01*
X8516359Y22240000D01*
X8342486Y22205416D01*
X8342475Y22205413D01*
X8178694Y22137573D01*
X8031283Y22039077D01*
X8031282Y22039075D01*
X7905925Y21913718D01*
X7905923Y21913717D01*
X7807427Y21766306D01*
X7739587Y21602525D01*
X7739584Y21602514D01*
X7712231Y21465001D01*
X6267768Y21465001D01*
X6240415Y21602514D01*
X6240412Y21602525D01*
X6172572Y21766306D01*
X6074076Y21913717D01*
X5948716Y22039077D01*
X5801304Y22137573D01*
X5801305Y22137573D01*
X5637524Y22205413D01*
X5637513Y22205416D01*
X5463641Y22240000D01*
X5100000Y22240000D01*
X5100000Y21640000D01*
X4850000Y21640000D01*
X4850000Y22240000D01*
X4486359Y22240000D01*
X4312486Y22205416D01*
X4312475Y22205413D01*
X4148694Y22137573D01*
X4001283Y22039077D01*
X4001282Y22039075D01*
X3875925Y21913718D01*
X3875923Y21913717D01*
X3777427Y21766306D01*
X3709587Y21602525D01*
X3709584Y21602514D01*
X3682231Y21465001D01*
X300500Y21465001D01*
X300500Y25234068D01*
X30159500Y25234068D01*
X30159500Y25105933D01*
X30184497Y24980261D01*
X30184498Y24980258D01*
X30184499Y24980256D01*
X30233535Y24861873D01*
X30304724Y24755331D01*
X30395331Y24664724D01*
X30501873Y24593535D01*
X30620256Y24544499D01*
X30620258Y24544499D01*
X30620260Y24544498D01*
X30662903Y24536016D01*
X30745931Y24519500D01*
X30745933Y24519500D01*
X30874067Y24519500D01*
X30874069Y24519500D01*
X30999744Y24544499D01*
X31118127Y24593535D01*
X31224669Y24664724D01*
X31315276Y24755331D01*
X31386465Y24861873D01*
X31435501Y24980256D01*
X31460500Y25105931D01*
X31460500Y25234069D01*
X31446576Y25304068D01*
X31999500Y25304068D01*
X31999500Y25175933D01*
X32024497Y25050261D01*
X32024498Y25050258D01*
X32024499Y25050256D01*
X32073535Y24931873D01*
X32144724Y24825331D01*
X32235331Y24734724D01*
X32341873Y24663535D01*
X32460256Y24614499D01*
X32460258Y24614499D01*
X32460260Y24614498D01*
X32502903Y24606016D01*
X32585931Y24589500D01*
X32585933Y24589500D01*
X32714067Y24589500D01*
X32714069Y24589500D01*
X32839744Y24614499D01*
X32958127Y24663535D01*
X33064669Y24734724D01*
X33155276Y24825331D01*
X33226465Y24931873D01*
X33275501Y25050256D01*
X33300500Y25175931D01*
X33300500Y25304069D01*
X33275501Y25429744D01*
X33226465Y25548127D01*
X33155276Y25654669D01*
X33064669Y25745276D01*
X32958127Y25816465D01*
X32958124Y25816467D01*
X32958123Y25816467D01*
X32839742Y25865502D01*
X32839739Y25865503D01*
X32749696Y25883414D01*
X32714069Y25890500D01*
X32585931Y25890500D01*
X32554726Y25884293D01*
X32460260Y25865503D01*
X32460257Y25865502D01*
X32341876Y25816467D01*
X32235331Y25745277D01*
X32235330Y25745275D01*
X32144725Y25654670D01*
X32144723Y25654669D01*
X32073533Y25548124D01*
X32024498Y25429743D01*
X32024497Y25429740D01*
X31999500Y25304068D01*
X31446576Y25304068D01*
X31435501Y25359744D01*
X31386465Y25478127D01*
X31315276Y25584669D01*
X31224669Y25675276D01*
X31118127Y25746465D01*
X31118124Y25746467D01*
X31118123Y25746467D01*
X30999742Y25795502D01*
X30999739Y25795503D01*
X30909696Y25813414D01*
X30874069Y25820500D01*
X30745931Y25820500D01*
X30714726Y25814293D01*
X30620260Y25795503D01*
X30620257Y25795502D01*
X30501876Y25746467D01*
X30395331Y25675277D01*
X30395330Y25675275D01*
X30304725Y25584670D01*
X30304723Y25584669D01*
X30233533Y25478124D01*
X30184498Y25359743D01*
X30184497Y25359740D01*
X30159500Y25234068D01*
X300500Y25234068D01*
X300500Y25996362D01*
X300856Y26003615D01*
X300856Y26003616D01*
X313227Y26129220D01*
X316054Y26143434D01*
X351632Y26260722D01*
X357178Y26274110D01*
X414954Y26382200D01*
X423006Y26394251D01*
X500756Y26488989D01*
X511013Y26499245D01*
X605749Y26576994D01*
X617800Y26585046D01*
X725890Y26642822D01*
X739278Y26648368D01*
X856566Y26683946D01*
X870780Y26686773D01*
X996386Y26699144D01*
X1003639Y26699500D01*
X1047595Y26699500D01*
X53952405Y26699500D01*
X53996361Y26699500D01*
X54003614Y26699144D01*
G37*
%TD.AperFunction*%
%TD*%
%TA.AperFunction,Conductor*%
%TO.N,GND*%
G36*
X54003614Y26699144D02*
G01*
X54129217Y26686773D01*
X54143435Y26683945D01*
X54260717Y26648369D01*
X54274112Y26642820D01*
X54382193Y26585049D01*
X54394254Y26576990D01*
X54488986Y26499245D01*
X54499244Y26488987D01*
X54576989Y26394255D01*
X54585048Y26382194D01*
X54642817Y26274117D01*
X54648369Y26260714D01*
X54683943Y26143441D01*
X54686773Y26129214D01*
X54699144Y26003616D01*
X54699500Y25996362D01*
X54699500Y1003639D01*
X54699144Y996386D01*
X54699144Y996385D01*
X54686773Y870787D01*
X54683943Y856560D01*
X54648369Y739287D01*
X54642817Y725884D01*
X54585048Y617807D01*
X54576989Y605746D01*
X54499244Y511014D01*
X54488986Y500756D01*
X54394254Y423011D01*
X54382193Y414952D01*
X54274116Y357183D01*
X54260713Y351631D01*
X54143440Y316057D01*
X54129213Y313227D01*
X54019418Y302413D01*
X54003613Y300856D01*
X53996361Y300500D01*
X1003639Y300500D01*
X996386Y300856D01*
X975832Y302881D01*
X870786Y313227D01*
X856559Y316057D01*
X739286Y351631D01*
X725883Y357183D01*
X617806Y414952D01*
X605745Y423011D01*
X511013Y500756D01*
X500755Y511014D01*
X423010Y605746D01*
X414951Y617807D01*
X357182Y725884D01*
X351630Y739287D01*
X316055Y856565D01*
X313227Y870783D01*
X300856Y996386D01*
X300500Y1003639D01*
X300500Y2094068D01*
X30409500Y2094068D01*
X30409500Y1965933D01*
X30434497Y1840261D01*
X30434498Y1840258D01*
X30434499Y1840256D01*
X30483535Y1721873D01*
X30554724Y1615331D01*
X30645331Y1524724D01*
X30751873Y1453535D01*
X30870256Y1404499D01*
X30870258Y1404499D01*
X30870260Y1404498D01*
X30912903Y1396016D01*
X30995931Y1379500D01*
X30995933Y1379500D01*
X31124067Y1379500D01*
X31124069Y1379500D01*
X31249744Y1404499D01*
X31368127Y1453535D01*
X31474669Y1524724D01*
X31565276Y1615331D01*
X31636465Y1721873D01*
X31685501Y1840256D01*
X31710500Y1965931D01*
X31710500Y2094069D01*
X31685501Y2219744D01*
X31636465Y2338127D01*
X31565276Y2444669D01*
X31474669Y2535276D01*
X31368127Y2606465D01*
X31368124Y2606467D01*
X31368123Y2606467D01*
X31249742Y2655502D01*
X31249739Y2655503D01*
X31159696Y2673414D01*
X31124069Y2680500D01*
X30995931Y2680500D01*
X30964726Y2674293D01*
X30870260Y2655503D01*
X30870257Y2655502D01*
X30751876Y2606467D01*
X30645331Y2535277D01*
X30645330Y2535275D01*
X30554725Y2444670D01*
X30554723Y2444669D01*
X30483533Y2338124D01*
X30434498Y2219743D01*
X30434497Y2219740D01*
X30409500Y2094068D01*
X300500Y2094068D01*
X300500Y4120001D01*
X5714190Y4120001D01*
X5714191Y4120000D01*
X6536178Y4120000D01*
X6505000Y4044728D01*
X6505000Y3945272D01*
X6536178Y3870000D01*
X5714190Y3870000D01*
X5735741Y3761656D01*
X5735743Y3761649D01*
X5796047Y3616062D01*
X5883598Y3485031D01*
X5995030Y3373599D01*
X6126061Y3286048D01*
X6271648Y3225744D01*
X6271655Y3225742D01*
X6426208Y3195000D01*
X6630000Y3195000D01*
X6630000Y3776179D01*
X6705272Y3745000D01*
X6804728Y3745000D01*
X6880000Y3776179D01*
X6880000Y3195000D01*
X7083792Y3195000D01*
X7238344Y3225742D01*
X7238351Y3225744D01*
X7383938Y3286048D01*
X7514969Y3373599D01*
X7514971Y3373600D01*
X7626400Y3485029D01*
X7626401Y3485031D01*
X7713952Y3616062D01*
X7774256Y3761649D01*
X7774258Y3761656D01*
X7795809Y3870000D01*
X6973822Y3870000D01*
X7005000Y3945272D01*
X7005000Y4044728D01*
X6973822Y4120000D01*
X7795809Y4120000D01*
X7795809Y4120001D01*
X7774258Y4228345D01*
X7774256Y4228352D01*
X7713952Y4373939D01*
X7626401Y4504970D01*
X7626400Y4504971D01*
X7514967Y4616403D01*
X7514964Y4616406D01*
X7501274Y4625553D01*
X7469809Y4672645D01*
X7480859Y4728194D01*
X7490057Y4739402D01*
X7549114Y4798458D01*
X7625775Y4913189D01*
X7678580Y5040672D01*
X7705500Y5176007D01*
X7705500Y5313993D01*
X7678580Y5449328D01*
X7625775Y5576811D01*
X7549114Y5691542D01*
X7451542Y5789114D01*
X7422571Y5808472D01*
X7391106Y5855563D01*
X7402155Y5911112D01*
X7422572Y5931529D01*
X7451542Y5950886D01*
X7549114Y6048458D01*
X7625775Y6163189D01*
X7629261Y6171606D01*
X42254500Y6171606D01*
X42254500Y6048395D01*
X42278535Y5927555D01*
X42278537Y5927548D01*
X42325688Y5813715D01*
X42329192Y5808471D01*
X42394142Y5711267D01*
X42481267Y5624142D01*
X42583714Y5555689D01*
X42697548Y5508537D01*
X42818394Y5484500D01*
X42941606Y5484500D01*
X43062452Y5508537D01*
X43176286Y5555689D01*
X43278733Y5624142D01*
X43365858Y5711267D01*
X43434311Y5813714D01*
X43481463Y5927548D01*
X43505500Y6048394D01*
X43505500Y6171606D01*
X43481463Y6292452D01*
X43434311Y6406286D01*
X43365858Y6508733D01*
X43278733Y6595858D01*
X43176286Y6664311D01*
X43176287Y6664311D01*
X43176285Y6664312D01*
X43062452Y6711463D01*
X43062445Y6711465D01*
X42941606Y6735500D01*
X42818394Y6735500D01*
X42697554Y6711465D01*
X42697547Y6711463D01*
X42583714Y6664312D01*
X42481270Y6595861D01*
X42394139Y6508730D01*
X42325688Y6406286D01*
X42278537Y6292453D01*
X42278535Y6292446D01*
X42254500Y6171606D01*
X7629261Y6171606D01*
X7678580Y6290672D01*
X7705500Y6426007D01*
X7705500Y6563993D01*
X7678580Y6699328D01*
X7625775Y6826811D01*
X7549114Y6941542D01*
X7474616Y7016040D01*
X7452943Y7068364D01*
X7474617Y7120690D01*
X7482590Y7127600D01*
X7562546Y7187454D01*
X7648796Y7302669D01*
X7652849Y7313534D01*
X7665561Y7347619D01*
X7699091Y7437517D01*
X7705500Y7497127D01*
X7705499Y7992872D01*
X7699091Y8052483D01*
X7688924Y8079743D01*
X7648797Y8187330D01*
X7648796Y8187331D01*
X7584397Y8273357D01*
X7582380Y8276051D01*
X7562546Y8302546D01*
X7547155Y8314068D01*
X8349500Y8314068D01*
X8349500Y8185933D01*
X8374497Y8060261D01*
X8374498Y8060258D01*
X8418483Y7954068D01*
X8423535Y7941873D01*
X8494724Y7835331D01*
X8585331Y7744724D01*
X8691873Y7673535D01*
X8810256Y7624499D01*
X8810258Y7624499D01*
X8810260Y7624498D01*
X8852903Y7616016D01*
X8935931Y7599500D01*
X8935933Y7599500D01*
X9064067Y7599500D01*
X9064069Y7599500D01*
X9189744Y7624499D01*
X9308127Y7673535D01*
X9414669Y7744724D01*
X9505276Y7835331D01*
X9576465Y7941873D01*
X9581516Y7954068D01*
X17039500Y7954068D01*
X17039500Y7825933D01*
X17064497Y7700261D01*
X17064498Y7700258D01*
X17106233Y7599500D01*
X17113535Y7581873D01*
X17184724Y7475331D01*
X17275331Y7384724D01*
X17381873Y7313535D01*
X17500256Y7264499D01*
X17500258Y7264499D01*
X17500260Y7264498D01*
X17542903Y7256016D01*
X17625931Y7239500D01*
X17625933Y7239500D01*
X17754067Y7239500D01*
X17754069Y7239500D01*
X17879744Y7264499D01*
X17998127Y7313535D01*
X18104669Y7384724D01*
X18195276Y7475331D01*
X18266465Y7581873D01*
X18315501Y7700256D01*
X18340500Y7825931D01*
X18340500Y7954069D01*
X18315501Y8079744D01*
X18266465Y8198127D01*
X18195276Y8304669D01*
X18104669Y8395276D01*
X17998127Y8466465D01*
X17998124Y8466467D01*
X17998123Y8466467D01*
X17879742Y8515502D01*
X17879739Y8515503D01*
X17789696Y8533414D01*
X17754069Y8540500D01*
X17625931Y8540500D01*
X17594726Y8534293D01*
X17500260Y8515503D01*
X17500257Y8515502D01*
X17381876Y8466467D01*
X17275331Y8395277D01*
X17275330Y8395275D01*
X17184725Y8304670D01*
X17184723Y8304669D01*
X17113533Y8198124D01*
X17064498Y8079743D01*
X17064497Y8079740D01*
X17039500Y7954068D01*
X9581516Y7954068D01*
X9625501Y8060256D01*
X9650500Y8185931D01*
X9650500Y8314069D01*
X9638168Y8376061D01*
X9625502Y8439740D01*
X9625501Y8439743D01*
X9623116Y8445500D01*
X9576465Y8558127D01*
X9505276Y8664669D01*
X9414669Y8755276D01*
X9308127Y8826465D01*
X9308124Y8826467D01*
X9308123Y8826467D01*
X9189742Y8875502D01*
X9189739Y8875503D01*
X9099696Y8893414D01*
X9064069Y8900500D01*
X8935931Y8900500D01*
X8904726Y8894293D01*
X8810260Y8875503D01*
X8810257Y8875502D01*
X8691876Y8826467D01*
X8585331Y8755277D01*
X8585330Y8755275D01*
X8494725Y8664670D01*
X8494723Y8664669D01*
X8423533Y8558124D01*
X8374498Y8439743D01*
X8374497Y8439740D01*
X8349500Y8314068D01*
X7547155Y8314068D01*
X7447331Y8388796D01*
X7447330Y8388797D01*
X7447329Y8388798D01*
X7312487Y8439090D01*
X7312484Y8439091D01*
X7312483Y8439091D01*
X7252873Y8445500D01*
X6257126Y8445500D01*
X6197514Y8439091D01*
X6062670Y8388798D01*
X6062669Y8388797D01*
X5947454Y8302546D01*
X5861203Y8187331D01*
X5861202Y8187330D01*
X5810910Y8052488D01*
X5810909Y8052483D01*
X5804500Y7992874D01*
X5804500Y7497128D01*
X5810909Y7437515D01*
X5861202Y7302671D01*
X5861203Y7302670D01*
X5861204Y7302669D01*
X5947454Y7187454D01*
X6017387Y7135102D01*
X6027403Y7127604D01*
X6056303Y7078895D01*
X6042296Y7024017D01*
X6035382Y7016038D01*
X5960883Y6941539D01*
X5884223Y6826809D01*
X5831421Y6699333D01*
X5831418Y6699323D01*
X5804500Y6563992D01*
X5804500Y6426009D01*
X5831418Y6290678D01*
X5831421Y6290668D01*
X5884223Y6163192D01*
X5884224Y6163190D01*
X5884225Y6163189D01*
X5960886Y6048458D01*
X6058458Y5950886D01*
X6058461Y5950884D01*
X6058463Y5950882D01*
X6087428Y5931528D01*
X6118893Y5884436D01*
X6107843Y5828887D01*
X6087428Y5808472D01*
X6058463Y5789119D01*
X5960883Y5691539D01*
X5884223Y5576809D01*
X5831421Y5449333D01*
X5831418Y5449323D01*
X5804500Y5313992D01*
X5804500Y5176009D01*
X5831418Y5040678D01*
X5831421Y5040668D01*
X5884223Y4913192D01*
X5884224Y4913190D01*
X5884225Y4913189D01*
X5960886Y4798458D01*
X6019938Y4739406D01*
X6041612Y4687081D01*
X6019938Y4634755D01*
X6008727Y4625554D01*
X5995034Y4616405D01*
X5995032Y4616403D01*
X5883599Y4504971D01*
X5883598Y4504970D01*
X5796047Y4373939D01*
X5735743Y4228352D01*
X5735741Y4228345D01*
X5714190Y4120001D01*
X300500Y4120001D01*
X300500Y9284068D01*
X35179500Y9284068D01*
X35179500Y9155933D01*
X35204497Y9030261D01*
X35204498Y9030258D01*
X35204499Y9030256D01*
X35253535Y8911873D01*
X35324724Y8805331D01*
X35415331Y8714724D01*
X35521873Y8643535D01*
X35640256Y8594499D01*
X35640258Y8594499D01*
X35640260Y8594498D01*
X35682903Y8586016D01*
X35765931Y8569500D01*
X35765933Y8569500D01*
X35894067Y8569500D01*
X35894069Y8569500D01*
X36019744Y8594499D01*
X36138127Y8643535D01*
X36244669Y8714724D01*
X36335276Y8805331D01*
X36406465Y8911873D01*
X36455501Y9030256D01*
X36480500Y9155931D01*
X36480500Y9284069D01*
X36455501Y9409744D01*
X36406465Y9528127D01*
X36335276Y9634669D01*
X36244669Y9725276D01*
X36138127Y9796465D01*
X36138124Y9796467D01*
X36138123Y9796467D01*
X36019742Y9845502D01*
X36019739Y9845503D01*
X35929696Y9863414D01*
X35894069Y9870500D01*
X35765931Y9870500D01*
X35734726Y9864293D01*
X35640260Y9845503D01*
X35640257Y9845502D01*
X35521876Y9796467D01*
X35415331Y9725277D01*
X35415330Y9725275D01*
X35324725Y9634670D01*
X35324723Y9634669D01*
X35253533Y9528124D01*
X35204498Y9409743D01*
X35204497Y9409740D01*
X35179500Y9284068D01*
X300500Y9284068D01*
X300500Y11314068D01*
X30849500Y11314068D01*
X30849500Y11185933D01*
X30874497Y11060261D01*
X30874498Y11060258D01*
X30874499Y11060256D01*
X30923535Y10941873D01*
X30994724Y10835331D01*
X31085331Y10744724D01*
X31172427Y10686528D01*
X31203893Y10639437D01*
X31192844Y10583888D01*
X31172428Y10563473D01*
X31139703Y10541606D01*
X31085331Y10505277D01*
X31085330Y10505275D01*
X30994725Y10414670D01*
X30994723Y10414669D01*
X30923533Y10308124D01*
X30874498Y10189743D01*
X30874497Y10189740D01*
X30853043Y10081883D01*
X30849500Y10064069D01*
X30849500Y9935931D01*
X30856586Y9900304D01*
X30874497Y9810261D01*
X30874498Y9810258D01*
X30909698Y9725277D01*
X30923535Y9691873D01*
X30994724Y9585331D01*
X31085331Y9494724D01*
X31191873Y9423535D01*
X31310256Y9374499D01*
X31310258Y9374499D01*
X31310260Y9374498D01*
X31352903Y9366016D01*
X31435931Y9349500D01*
X31435933Y9349500D01*
X31564067Y9349500D01*
X31564069Y9349500D01*
X31689744Y9374499D01*
X31808127Y9423535D01*
X31914669Y9494724D01*
X32005276Y9585331D01*
X32076465Y9691873D01*
X32125501Y9810256D01*
X32150500Y9935931D01*
X32150500Y10064069D01*
X32138168Y10126061D01*
X32125502Y10189740D01*
X32125501Y10189743D01*
X32076466Y10308124D01*
X32076465Y10308127D01*
X32005276Y10414669D01*
X31914669Y10505276D01*
X31860298Y10541606D01*
X34264500Y10541606D01*
X34264500Y10418395D01*
X34288535Y10297555D01*
X34288537Y10297548D01*
X34335688Y10183715D01*
X34335689Y10183714D01*
X34404142Y10081267D01*
X34491267Y9994142D01*
X34593714Y9925689D01*
X34707548Y9878537D01*
X34828394Y9854500D01*
X34951606Y9854500D01*
X35072452Y9878537D01*
X35186286Y9925689D01*
X35288733Y9994142D01*
X35375858Y10081267D01*
X35444311Y10183714D01*
X35491463Y10297548D01*
X35515500Y10418394D01*
X35515500Y10541606D01*
X35491463Y10662452D01*
X35444311Y10776286D01*
X35375858Y10878733D01*
X35288733Y10965858D01*
X35186286Y11034311D01*
X35186287Y11034311D01*
X35186285Y11034312D01*
X35072452Y11081463D01*
X35072445Y11081465D01*
X34951606Y11105500D01*
X34828394Y11105500D01*
X34707554Y11081465D01*
X34707547Y11081463D01*
X34593714Y11034312D01*
X34491270Y10965861D01*
X34404139Y10878730D01*
X34335688Y10776286D01*
X34288537Y10662453D01*
X34288535Y10662446D01*
X34264500Y10541606D01*
X31860298Y10541606D01*
X31826469Y10564210D01*
X31825419Y10564966D01*
X31811170Y10588018D01*
X31796106Y10610563D01*
X31796380Y10611945D01*
X31795640Y10613143D01*
X31801866Y10639525D01*
X31807155Y10666112D01*
X31808446Y10667404D01*
X31808650Y10668265D01*
X31810373Y10669331D01*
X31827568Y10686526D01*
X31914669Y10744724D01*
X32005276Y10835331D01*
X32076465Y10941873D01*
X32125501Y11060256D01*
X32150500Y11185931D01*
X32150500Y11314069D01*
X32136178Y11386071D01*
X32125502Y11439740D01*
X32125501Y11439743D01*
X32076466Y11558124D01*
X32076465Y11558127D01*
X32005276Y11664669D01*
X31914669Y11755276D01*
X31808127Y11826465D01*
X31808124Y11826467D01*
X31808123Y11826467D01*
X31689742Y11875502D01*
X31689739Y11875503D01*
X31599696Y11893414D01*
X31564069Y11900500D01*
X31435931Y11900500D01*
X31404726Y11894293D01*
X31310260Y11875503D01*
X31310257Y11875502D01*
X31191876Y11826467D01*
X31085331Y11755277D01*
X31085330Y11755275D01*
X30994725Y11664670D01*
X30994723Y11664669D01*
X30923533Y11558124D01*
X30874498Y11439743D01*
X30874497Y11439740D01*
X30849500Y11314068D01*
X300500Y11314068D01*
X300500Y12825001D01*
X3682231Y12825001D01*
X3682232Y12825000D01*
X4300758Y12825000D01*
X4295444Y12815796D01*
X4275000Y12739496D01*
X4275000Y12660504D01*
X4295444Y12584204D01*
X4300758Y12575000D01*
X3682231Y12575000D01*
X3709584Y12437487D01*
X3709587Y12437476D01*
X3777427Y12273695D01*
X3875923Y12126284D01*
X4001283Y12000924D01*
X4148695Y11902428D01*
X4148694Y11902428D01*
X4312475Y11834588D01*
X4312486Y11834585D01*
X4486359Y11800000D01*
X4850000Y11800000D01*
X4850000Y12400000D01*
X5100000Y12400000D01*
X5100000Y11800000D01*
X5463641Y11800000D01*
X5637513Y11834585D01*
X5637524Y11834588D01*
X5801305Y11902428D01*
X5948716Y12000924D01*
X5948718Y12000925D01*
X6074075Y12126282D01*
X6074076Y12126284D01*
X6172572Y12273695D01*
X6240412Y12437476D01*
X6240415Y12437487D01*
X6267768Y12575000D01*
X5649242Y12575000D01*
X5654556Y12584204D01*
X5675000Y12660504D01*
X5675000Y12739496D01*
X5654556Y12815796D01*
X5649242Y12825000D01*
X6267768Y12825000D01*
X6267768Y12825001D01*
X7712231Y12825001D01*
X7712232Y12825000D01*
X8330758Y12825000D01*
X8325444Y12815796D01*
X8305000Y12739496D01*
X8305000Y12660504D01*
X8325444Y12584204D01*
X8330758Y12575000D01*
X7712231Y12575000D01*
X7739584Y12437487D01*
X7739587Y12437476D01*
X7807427Y12273695D01*
X7905923Y12126284D01*
X8031283Y12000924D01*
X8178695Y11902428D01*
X8178694Y11902428D01*
X8342475Y11834588D01*
X8342486Y11834585D01*
X8516359Y11800000D01*
X9030000Y11800000D01*
X9030000Y12400000D01*
X9280000Y12400000D01*
X9280000Y11800000D01*
X9793641Y11800000D01*
X9967513Y11834585D01*
X9967524Y11834588D01*
X10131305Y11902428D01*
X10278716Y12000924D01*
X10278718Y12000925D01*
X10341861Y12064068D01*
X15349500Y12064068D01*
X15349500Y11935933D01*
X15374497Y11810261D01*
X15374498Y11810258D01*
X15397272Y11755276D01*
X15423535Y11691873D01*
X15494724Y11585331D01*
X15585331Y11494724D01*
X15691873Y11423535D01*
X15810256Y11374499D01*
X15810258Y11374499D01*
X15810260Y11374498D01*
X15852903Y11366016D01*
X15935931Y11349500D01*
X15935933Y11349500D01*
X16064067Y11349500D01*
X16064069Y11349500D01*
X16189744Y11374499D01*
X16308127Y11423535D01*
X16414669Y11494724D01*
X16505276Y11585331D01*
X16576465Y11691873D01*
X16625501Y11810256D01*
X16650500Y11935931D01*
X16650500Y12064069D01*
X16625501Y12189744D01*
X16576465Y12308127D01*
X16505276Y12414669D01*
X16414669Y12505276D01*
X16308127Y12576465D01*
X16308124Y12576467D01*
X16308123Y12576467D01*
X16189742Y12625502D01*
X16189739Y12625503D01*
X16099696Y12643414D01*
X16064069Y12650500D01*
X15935931Y12650500D01*
X15904726Y12644293D01*
X15810260Y12625503D01*
X15810257Y12625502D01*
X15691876Y12576467D01*
X15585331Y12505277D01*
X15585330Y12505275D01*
X15494725Y12414670D01*
X15494723Y12414669D01*
X15423533Y12308124D01*
X15374498Y12189743D01*
X15374497Y12189740D01*
X15349500Y12064068D01*
X10341861Y12064068D01*
X10404075Y12126282D01*
X10404076Y12126284D01*
X10502572Y12273695D01*
X10570412Y12437476D01*
X10570415Y12437487D01*
X10597768Y12575000D01*
X9979242Y12575000D01*
X9984556Y12584204D01*
X10005000Y12660504D01*
X10005000Y12739496D01*
X9984556Y12815796D01*
X9979242Y12825000D01*
X10597768Y12825000D01*
X10597768Y12825001D01*
X10570415Y12962514D01*
X10570413Y12962521D01*
X10534279Y13049756D01*
X10534279Y13049757D01*
X10524055Y13074440D01*
X20212200Y13074440D01*
X20212200Y12925561D01*
X20241243Y12779548D01*
X20241245Y12779541D01*
X20298218Y12641995D01*
X20380929Y12518210D01*
X20380932Y12518206D01*
X20486206Y12412932D01*
X20609994Y12330219D01*
X20747541Y12273245D01*
X20893560Y12244200D01*
X20893561Y12244200D01*
X21042439Y12244200D01*
X21042440Y12244200D01*
X21188459Y12273245D01*
X21326006Y12330219D01*
X21449794Y12412932D01*
X21555068Y12518206D01*
X21637781Y12641994D01*
X21694755Y12779541D01*
X21723800Y12925560D01*
X21723800Y13074440D01*
X22244200Y13074440D01*
X22244200Y12925561D01*
X22273243Y12779548D01*
X22273245Y12779541D01*
X22330218Y12641995D01*
X22412929Y12518210D01*
X22412932Y12518206D01*
X22518206Y12412932D01*
X22641994Y12330219D01*
X22779541Y12273245D01*
X22925560Y12244200D01*
X22925561Y12244200D01*
X23074439Y12244200D01*
X23074440Y12244200D01*
X23220459Y12273245D01*
X23358006Y12330219D01*
X23481794Y12412932D01*
X23587068Y12518206D01*
X23617713Y12564069D01*
X27849500Y12564069D01*
X27849500Y12435931D01*
X27854075Y12412932D01*
X27874497Y12310261D01*
X27874498Y12310258D01*
X27889829Y12273245D01*
X27923535Y12191873D01*
X27994724Y12085331D01*
X28085331Y11994724D01*
X28191873Y11923535D01*
X28310256Y11874499D01*
X28310258Y11874499D01*
X28310260Y11874498D01*
X28352903Y11866016D01*
X28435931Y11849500D01*
X28435933Y11849500D01*
X28564067Y11849500D01*
X28564069Y11849500D01*
X28689744Y11874499D01*
X28808127Y11923535D01*
X28914669Y11994724D01*
X29005276Y12085331D01*
X29076465Y12191873D01*
X29125501Y12310256D01*
X29150500Y12435931D01*
X29150500Y12564069D01*
X29125501Y12689744D01*
X29076465Y12808127D01*
X29005276Y12914669D01*
X28914669Y13005276D01*
X28808127Y13076465D01*
X28808124Y13076467D01*
X28808123Y13076467D01*
X28689742Y13125502D01*
X28689739Y13125503D01*
X28599696Y13143414D01*
X28564069Y13150500D01*
X28435931Y13150500D01*
X28404726Y13144293D01*
X28310260Y13125503D01*
X28310257Y13125502D01*
X28191876Y13076467D01*
X28085331Y13005277D01*
X28085330Y13005275D01*
X27994725Y12914670D01*
X27994723Y12914669D01*
X27923533Y12808124D01*
X27874498Y12689743D01*
X27874497Y12689740D01*
X27858401Y12608816D01*
X27849500Y12564069D01*
X23617713Y12564069D01*
X23669781Y12641994D01*
X23726755Y12779541D01*
X23755800Y12925560D01*
X23755800Y13074440D01*
X23726755Y13220459D01*
X23669781Y13358006D01*
X23587068Y13481794D01*
X23481794Y13587068D01*
X23481790Y13587071D01*
X23358005Y13669782D01*
X23220459Y13726755D01*
X23220452Y13726757D01*
X23110450Y13748638D01*
X23074440Y13755800D01*
X22925560Y13755800D01*
X22896674Y13750055D01*
X22779547Y13726757D01*
X22779540Y13726755D01*
X22641994Y13669782D01*
X22518209Y13587071D01*
X22412929Y13481791D01*
X22330218Y13358006D01*
X22273245Y13220460D01*
X22273243Y13220453D01*
X22244200Y13074440D01*
X21723800Y13074440D01*
X21694755Y13220459D01*
X21637781Y13358006D01*
X21555068Y13481794D01*
X21449794Y13587068D01*
X21449790Y13587071D01*
X21326005Y13669782D01*
X21188459Y13726755D01*
X21188452Y13726757D01*
X21078450Y13748638D01*
X21042440Y13755800D01*
X20893560Y13755800D01*
X20864674Y13750055D01*
X20747547Y13726757D01*
X20747540Y13726755D01*
X20609994Y13669782D01*
X20486209Y13587071D01*
X20380929Y13481791D01*
X20298218Y13358006D01*
X20241245Y13220460D01*
X20241243Y13220453D01*
X20212200Y13074440D01*
X10524055Y13074440D01*
X10502572Y13126306D01*
X10404076Y13273717D01*
X10278716Y13399077D01*
X10131304Y13497573D01*
X10131305Y13497573D01*
X9967524Y13565413D01*
X9967513Y13565416D01*
X9793641Y13600000D01*
X9280000Y13600000D01*
X9280000Y13000000D01*
X9030000Y13000000D01*
X9030000Y13619568D01*
X9022162Y13638490D01*
X9043835Y13690815D01*
X9123516Y13770495D01*
X9200599Y13904006D01*
X9240499Y14052915D01*
X9240500Y14052915D01*
X9240500Y14207085D01*
X9240499Y14207086D01*
X9200600Y14355991D01*
X9200598Y14355996D01*
X9123518Y14489502D01*
X9123517Y14489503D01*
X9123516Y14489505D01*
X9014505Y14598516D01*
X9014502Y14598518D01*
X9014501Y14598519D01*
X8880995Y14675599D01*
X8880990Y14675601D01*
X8732085Y14715500D01*
X8732083Y14715500D01*
X8577917Y14715500D01*
X8577915Y14715500D01*
X8429009Y14675601D01*
X8429004Y14675599D01*
X8295498Y14598519D01*
X8186481Y14489502D01*
X8109401Y14355996D01*
X8109399Y14355991D01*
X8069500Y14207086D01*
X8069500Y14052915D01*
X8109399Y13904010D01*
X8109401Y13904005D01*
X8186481Y13770499D01*
X8186482Y13770498D01*
X8186484Y13770495D01*
X8295495Y13661484D01*
X8295497Y13661483D01*
X8298877Y13658103D01*
X8320551Y13605777D01*
X8298877Y13553451D01*
X8274870Y13537410D01*
X8178693Y13497572D01*
X8031283Y13399077D01*
X8031282Y13399075D01*
X7905925Y13273718D01*
X7905923Y13273717D01*
X7807427Y13126306D01*
X7739587Y12962525D01*
X7739584Y12962514D01*
X7712231Y12825001D01*
X6267768Y12825001D01*
X6240415Y12962514D01*
X6240412Y12962525D01*
X6172572Y13126306D01*
X6074076Y13273717D01*
X5948716Y13399077D01*
X5801304Y13497573D01*
X5801305Y13497573D01*
X5637524Y13565413D01*
X5637513Y13565416D01*
X5463641Y13600000D01*
X5100000Y13600000D01*
X5100000Y13000000D01*
X4850000Y13000000D01*
X4850000Y13600000D01*
X4486359Y13600000D01*
X4312486Y13565416D01*
X4312475Y13565413D01*
X4148694Y13497573D01*
X4001283Y13399077D01*
X4001282Y13399075D01*
X3875925Y13273718D01*
X3875923Y13273717D01*
X3777427Y13126306D01*
X3709587Y12962525D01*
X3709584Y12962514D01*
X3682231Y12825001D01*
X300500Y12825001D01*
X300500Y15018958D01*
X17996050Y15018958D01*
X17996050Y14791043D01*
X18031703Y14565941D01*
X18031706Y14565928D01*
X18102130Y14349183D01*
X18102132Y14349179D01*
X18205600Y14146113D01*
X18205603Y14146107D01*
X18339562Y13961729D01*
X18339566Y13961724D01*
X18500724Y13800566D01*
X18500727Y13800564D01*
X18500728Y13800563D01*
X18542107Y13770499D01*
X18685109Y13666602D01*
X18804485Y13605777D01*
X18888178Y13563133D01*
X18888182Y13563131D01*
X19104927Y13492707D01*
X19104933Y13492706D01*
X19104938Y13492704D01*
X19173820Y13481794D01*
X19330042Y13457050D01*
X19330044Y13457050D01*
X19557958Y13457050D01*
X19647998Y13471312D01*
X19783062Y13492704D01*
X19783069Y13492707D01*
X19783072Y13492707D01*
X19999817Y13563131D01*
X19999817Y13563132D01*
X19999820Y13563132D01*
X20202891Y13666602D01*
X20387276Y13800566D01*
X20548434Y13961724D01*
X20682398Y14146109D01*
X20785868Y14349180D01*
X20851726Y14551873D01*
X20856293Y14565928D01*
X20856293Y14565931D01*
X20856296Y14565938D01*
X20891950Y14791044D01*
X20891950Y15018956D01*
X20891950Y15018958D01*
X23076050Y15018958D01*
X23076050Y14791043D01*
X23111703Y14565941D01*
X23111706Y14565928D01*
X23182130Y14349183D01*
X23182132Y14349179D01*
X23285600Y14146113D01*
X23285603Y14146107D01*
X23419562Y13961729D01*
X23419566Y13961724D01*
X23580724Y13800566D01*
X23580727Y13800564D01*
X23580728Y13800563D01*
X23622107Y13770499D01*
X23765109Y13666602D01*
X23884485Y13605777D01*
X23968178Y13563133D01*
X23968182Y13563131D01*
X24184927Y13492707D01*
X24184933Y13492706D01*
X24184938Y13492704D01*
X24253820Y13481794D01*
X24410042Y13457050D01*
X24410044Y13457050D01*
X24637958Y13457050D01*
X24727998Y13471312D01*
X24863062Y13492704D01*
X24863069Y13492707D01*
X24863072Y13492707D01*
X25079817Y13563131D01*
X25079817Y13563132D01*
X25079820Y13563132D01*
X25282891Y13666602D01*
X25467276Y13800566D01*
X25628434Y13961724D01*
X25762398Y14146109D01*
X25865868Y14349180D01*
X25931726Y14551873D01*
X25936293Y14565928D01*
X25936293Y14565931D01*
X25936296Y14565938D01*
X25971950Y14791044D01*
X25971950Y14924069D01*
X40979500Y14924069D01*
X40979500Y14795931D01*
X40986586Y14760304D01*
X41004497Y14670261D01*
X41004498Y14670258D01*
X41034214Y14598516D01*
X41053535Y14551873D01*
X41124724Y14445331D01*
X41215331Y14354724D01*
X41321873Y14283535D01*
X41440256Y14234499D01*
X41440258Y14234499D01*
X41440260Y14234498D01*
X41482903Y14226016D01*
X41565931Y14209500D01*
X41565933Y14209500D01*
X41694067Y14209500D01*
X41694069Y14209500D01*
X41819744Y14234499D01*
X41938127Y14283535D01*
X42044669Y14354724D01*
X42135276Y14445331D01*
X42206465Y14551873D01*
X42255501Y14670256D01*
X42280500Y14795931D01*
X42280500Y14924069D01*
X42255501Y15049744D01*
X42206465Y15168127D01*
X42135276Y15274669D01*
X42044669Y15365276D01*
X41938127Y15436465D01*
X41938124Y15436467D01*
X41938123Y15436467D01*
X41819742Y15485502D01*
X41819739Y15485503D01*
X41729696Y15503414D01*
X41694069Y15510500D01*
X41565931Y15510500D01*
X41534726Y15504293D01*
X41440260Y15485503D01*
X41440257Y15485502D01*
X41321876Y15436467D01*
X41215331Y15365277D01*
X41215330Y15365275D01*
X41124725Y15274670D01*
X41124723Y15274669D01*
X41053533Y15168124D01*
X41004498Y15049743D01*
X41004497Y15049740D01*
X40983043Y14941883D01*
X40979500Y14924069D01*
X25971950Y14924069D01*
X25971950Y15018956D01*
X25936296Y15244062D01*
X25936294Y15244067D01*
X25936293Y15244073D01*
X25865869Y15460818D01*
X25865867Y15460822D01*
X25840555Y15510500D01*
X25762398Y15663891D01*
X25628434Y15848276D01*
X25467276Y16009434D01*
X25467273Y16009437D01*
X25467271Y16009438D01*
X25282893Y16143397D01*
X25282887Y16143400D01*
X25171804Y16200000D01*
X50610000Y16200000D01*
X52700000Y16200000D01*
X52700000Y18100000D01*
X50610000Y18100000D01*
X50610000Y16200000D01*
X25171804Y16200000D01*
X25079821Y16246868D01*
X25079817Y16246870D01*
X24863072Y16317294D01*
X24863059Y16317297D01*
X24637958Y16352950D01*
X24637956Y16352950D01*
X24410044Y16352950D01*
X24410042Y16352950D01*
X24184940Y16317297D01*
X24184927Y16317294D01*
X23968182Y16246870D01*
X23968178Y16246868D01*
X23765112Y16143400D01*
X23765106Y16143397D01*
X23580728Y16009438D01*
X23419562Y15848272D01*
X23285603Y15663894D01*
X23285600Y15663888D01*
X23182132Y15460822D01*
X23182130Y15460818D01*
X23111706Y15244073D01*
X23111703Y15244060D01*
X23076050Y15018958D01*
X20891950Y15018958D01*
X20856296Y15244062D01*
X20856294Y15244067D01*
X20856293Y15244073D01*
X20785869Y15460818D01*
X20785867Y15460822D01*
X20760555Y15510500D01*
X20682398Y15663891D01*
X20548434Y15848276D01*
X20387276Y16009434D01*
X20387273Y16009437D01*
X20387271Y16009438D01*
X20202893Y16143397D01*
X20202887Y16143400D01*
X19999821Y16246868D01*
X19999817Y16246870D01*
X19783072Y16317294D01*
X19783059Y16317297D01*
X19557958Y16352950D01*
X19557956Y16352950D01*
X19330044Y16352950D01*
X19330042Y16352950D01*
X19104940Y16317297D01*
X19104927Y16317294D01*
X18888182Y16246870D01*
X18888178Y16246868D01*
X18685112Y16143400D01*
X18685106Y16143397D01*
X18500728Y16009438D01*
X18339562Y15848272D01*
X18205603Y15663894D01*
X18205600Y15663888D01*
X18102132Y15460822D01*
X18102130Y15460818D01*
X18031706Y15244073D01*
X18031703Y15244060D01*
X17996050Y15018958D01*
X300500Y15018958D01*
X300500Y18193958D01*
X17996050Y18193958D01*
X17996050Y17966043D01*
X18031703Y17740941D01*
X18031706Y17740928D01*
X18102130Y17524183D01*
X18102132Y17524179D01*
X18160198Y17410219D01*
X18205602Y17321109D01*
X18339566Y17136724D01*
X18500724Y16975566D01*
X18685109Y16841602D01*
X18881113Y16741733D01*
X18888178Y16738133D01*
X18888182Y16738131D01*
X19104927Y16667707D01*
X19104933Y16667706D01*
X19104938Y16667704D01*
X19217491Y16649877D01*
X19330042Y16632050D01*
X19330044Y16632050D01*
X19557958Y16632050D01*
X19647998Y16646312D01*
X19783062Y16667704D01*
X19783069Y16667707D01*
X19783072Y16667707D01*
X19999817Y16738131D01*
X19999817Y16738132D01*
X19999820Y16738132D01*
X20202891Y16841602D01*
X20387276Y16975566D01*
X20548434Y17136724D01*
X20682398Y17321109D01*
X20785868Y17524180D01*
X20809920Y17598206D01*
X20856293Y17740928D01*
X20856293Y17740931D01*
X20856296Y17740938D01*
X20891950Y17966044D01*
X20891950Y18193956D01*
X20882663Y18252588D01*
X20856296Y18419060D01*
X20856293Y18419073D01*
X20792897Y18614187D01*
X20797341Y18670649D01*
X20840408Y18707432D01*
X20896870Y18702988D01*
X20904378Y18698588D01*
X20941873Y18673535D01*
X21060256Y18624499D01*
X21060258Y18624499D01*
X21060260Y18624498D01*
X21102903Y18616016D01*
X21185931Y18599500D01*
X21185933Y18599500D01*
X21283682Y18599500D01*
X21336008Y18577826D01*
X21357682Y18525500D01*
X21345211Y18484388D01*
X21314218Y18438006D01*
X21257245Y18300460D01*
X21257243Y18300453D01*
X21228200Y18154440D01*
X21228200Y18005561D01*
X21257243Y17859548D01*
X21257245Y17859541D01*
X21314218Y17721995D01*
X21314219Y17721994D01*
X21396932Y17598206D01*
X21502206Y17492932D01*
X21625994Y17410219D01*
X21763541Y17353245D01*
X21909560Y17324200D01*
X21909561Y17324200D01*
X22058439Y17324200D01*
X22058440Y17324200D01*
X22204459Y17353245D01*
X22342006Y17410219D01*
X22465794Y17492932D01*
X22571068Y17598206D01*
X22653781Y17721994D01*
X22710755Y17859541D01*
X22739800Y18005560D01*
X22739800Y18154440D01*
X22731939Y18193958D01*
X23076050Y18193958D01*
X23076050Y17966043D01*
X23111703Y17740941D01*
X23111706Y17740928D01*
X23182130Y17524183D01*
X23182132Y17524179D01*
X23240198Y17410219D01*
X23285602Y17321109D01*
X23419566Y17136724D01*
X23580724Y16975566D01*
X23765109Y16841602D01*
X23961113Y16741733D01*
X23968178Y16738133D01*
X23968182Y16738131D01*
X24184927Y16667707D01*
X24184933Y16667706D01*
X24184938Y16667704D01*
X24297491Y16649877D01*
X24410042Y16632050D01*
X24410044Y16632050D01*
X24637958Y16632050D01*
X24727998Y16646312D01*
X24863062Y16667704D01*
X24863069Y16667707D01*
X24863072Y16667707D01*
X25079817Y16738131D01*
X25079817Y16738132D01*
X25079820Y16738132D01*
X25282891Y16841602D01*
X25467276Y16975566D01*
X25628434Y17136724D01*
X25762398Y17321109D01*
X25865868Y17524180D01*
X25889920Y17598206D01*
X25936293Y17740928D01*
X25936293Y17740931D01*
X25936296Y17740938D01*
X25971950Y17966044D01*
X25971950Y18193956D01*
X25952926Y18314068D01*
X29099500Y18314068D01*
X29099500Y18185933D01*
X29124497Y18060261D01*
X29124498Y18060258D01*
X29124499Y18060256D01*
X29173535Y17941873D01*
X29244724Y17835331D01*
X29335331Y17744724D01*
X29441873Y17673535D01*
X29560256Y17624499D01*
X29560258Y17624499D01*
X29560260Y17624498D01*
X29602903Y17616016D01*
X29685931Y17599500D01*
X29685933Y17599500D01*
X29814067Y17599500D01*
X29814069Y17599500D01*
X29939744Y17624499D01*
X30058127Y17673535D01*
X30164669Y17744724D01*
X30255276Y17835331D01*
X30326465Y17941873D01*
X30375501Y18060256D01*
X30400500Y18185931D01*
X30400500Y18314069D01*
X30388168Y18376061D01*
X30375502Y18439740D01*
X30375501Y18439743D01*
X30365693Y18463421D01*
X30326465Y18558127D01*
X30255276Y18664669D01*
X30164669Y18755276D01*
X30058127Y18826465D01*
X30058124Y18826467D01*
X30058123Y18826467D01*
X30010340Y18846259D01*
X29939744Y18875501D01*
X29939740Y18875502D01*
X29897096Y18883985D01*
X29814069Y18900500D01*
X29685931Y18900500D01*
X29654726Y18894293D01*
X29560260Y18875503D01*
X29560257Y18875502D01*
X29441876Y18826467D01*
X29335331Y18755277D01*
X29335330Y18755275D01*
X29244725Y18664670D01*
X29244723Y18664669D01*
X29173533Y18558124D01*
X29124498Y18439743D01*
X29124497Y18439740D01*
X29099500Y18314068D01*
X25952926Y18314068D01*
X25936296Y18419062D01*
X25936294Y18419067D01*
X25936293Y18419073D01*
X25865869Y18635818D01*
X25865867Y18635822D01*
X25839105Y18688346D01*
X25762398Y18838891D01*
X25735798Y18875502D01*
X25687369Y18942159D01*
X41516199Y18942159D01*
X41516199Y18814021D01*
X41522826Y18780705D01*
X41541196Y18688351D01*
X41541197Y18688348D01*
X41571915Y18614187D01*
X41590234Y18569963D01*
X41661423Y18463421D01*
X41752030Y18372814D01*
X41858572Y18301625D01*
X41976955Y18252589D01*
X41976957Y18252589D01*
X41976959Y18252588D01*
X42019602Y18244106D01*
X42102630Y18227590D01*
X42102632Y18227590D01*
X42230766Y18227590D01*
X42230768Y18227590D01*
X42356443Y18252589D01*
X42474826Y18301625D01*
X42581368Y18372814D01*
X42671975Y18463421D01*
X42743164Y18569963D01*
X42792200Y18688346D01*
X42817199Y18814021D01*
X42817199Y18942159D01*
X42801062Y19023281D01*
X42792201Y19067830D01*
X42792200Y19067833D01*
X42790728Y19071386D01*
X42743164Y19186217D01*
X42671975Y19292759D01*
X42581368Y19383366D01*
X42474826Y19454555D01*
X42474823Y19454557D01*
X42474822Y19454557D01*
X42356441Y19503592D01*
X42356438Y19503593D01*
X42266395Y19521504D01*
X42230768Y19528590D01*
X42102630Y19528590D01*
X42071425Y19522383D01*
X41976959Y19503593D01*
X41976956Y19503592D01*
X41858575Y19454557D01*
X41752030Y19383367D01*
X41752029Y19383365D01*
X41661424Y19292760D01*
X41661422Y19292759D01*
X41590232Y19186214D01*
X41541197Y19067833D01*
X41541196Y19067830D01*
X41519742Y18959973D01*
X41516199Y18942159D01*
X25687369Y18942159D01*
X25628437Y19023272D01*
X25628436Y19023273D01*
X25628434Y19023276D01*
X25467276Y19184434D01*
X25467273Y19184437D01*
X25467271Y19184438D01*
X25282893Y19318397D01*
X25282887Y19318400D01*
X25079821Y19421868D01*
X25079817Y19421870D01*
X24863072Y19492294D01*
X24863059Y19492297D01*
X24637958Y19527950D01*
X24637956Y19527950D01*
X24410044Y19527950D01*
X24410042Y19527950D01*
X24184940Y19492297D01*
X24184927Y19492294D01*
X23968182Y19421870D01*
X23968178Y19421868D01*
X23765112Y19318400D01*
X23765106Y19318397D01*
X23580728Y19184438D01*
X23419562Y19023272D01*
X23285603Y18838894D01*
X23285600Y18838888D01*
X23182132Y18635822D01*
X23182130Y18635818D01*
X23111706Y18419073D01*
X23111703Y18419060D01*
X23076050Y18193958D01*
X22731939Y18193958D01*
X22710756Y18300454D01*
X22710755Y18300455D01*
X22710755Y18300459D01*
X22653781Y18438006D01*
X22571068Y18561794D01*
X22465794Y18667068D01*
X22456116Y18673535D01*
X22342005Y18749782D01*
X22204459Y18806755D01*
X22204452Y18806757D01*
X22094450Y18828638D01*
X22058440Y18835800D01*
X21909560Y18835800D01*
X21906589Y18835209D01*
X21851040Y18846259D01*
X21819575Y18893351D01*
X21826207Y18938046D01*
X21825074Y18938515D01*
X21826583Y18942159D01*
X21875501Y19060256D01*
X21900500Y19185931D01*
X21900500Y19314069D01*
X21879057Y19421868D01*
X21875502Y19439740D01*
X21875501Y19439743D01*
X21853732Y19492297D01*
X21826465Y19558127D01*
X21755276Y19664669D01*
X21664669Y19755276D01*
X21558127Y19826465D01*
X21558124Y19826467D01*
X21558123Y19826467D01*
X21439742Y19875502D01*
X21439739Y19875503D01*
X21349696Y19893414D01*
X21314069Y19900500D01*
X21185931Y19900500D01*
X21154726Y19894293D01*
X21060260Y19875503D01*
X21060257Y19875502D01*
X20941876Y19826467D01*
X20835331Y19755277D01*
X20835330Y19755275D01*
X20744725Y19664670D01*
X20744723Y19664669D01*
X20673533Y19558124D01*
X20624498Y19439743D01*
X20624497Y19439740D01*
X20599500Y19314068D01*
X20599500Y19185932D01*
X20604976Y19158400D01*
X20593926Y19102851D01*
X20546834Y19071386D01*
X20491285Y19082436D01*
X20480072Y19091638D01*
X20387281Y19184429D01*
X20387276Y19184434D01*
X20387273Y19184437D01*
X20387271Y19184438D01*
X20202893Y19318397D01*
X20202887Y19318400D01*
X19999821Y19421868D01*
X19999817Y19421870D01*
X19783072Y19492294D01*
X19783059Y19492297D01*
X19557958Y19527950D01*
X19557956Y19527950D01*
X19330044Y19527950D01*
X19330042Y19527950D01*
X19104940Y19492297D01*
X19104927Y19492294D01*
X18888182Y19421870D01*
X18888178Y19421868D01*
X18685112Y19318400D01*
X18685106Y19318397D01*
X18500728Y19184438D01*
X18339562Y19023272D01*
X18205603Y18838894D01*
X18205600Y18838888D01*
X18102132Y18635822D01*
X18102130Y18635818D01*
X18031706Y18419073D01*
X18031703Y18419060D01*
X17996050Y18193958D01*
X300500Y18193958D01*
X300500Y21465001D01*
X3682231Y21465001D01*
X3682232Y21465000D01*
X4300758Y21465000D01*
X4295444Y21455796D01*
X4275000Y21379496D01*
X4275000Y21300504D01*
X4295444Y21224204D01*
X4300758Y21215000D01*
X3682231Y21215000D01*
X3709584Y21077487D01*
X3709587Y21077476D01*
X3777427Y20913695D01*
X3875923Y20766284D01*
X4001283Y20640924D01*
X4148695Y20542428D01*
X4148694Y20542428D01*
X4312475Y20474588D01*
X4312486Y20474585D01*
X4486359Y20440000D01*
X4850000Y20440000D01*
X4850000Y21040000D01*
X5100000Y21040000D01*
X5100000Y20440000D01*
X5463641Y20440000D01*
X5637513Y20474585D01*
X5637524Y20474588D01*
X5801305Y20542428D01*
X5948716Y20640924D01*
X5948718Y20640925D01*
X6074075Y20766282D01*
X6074076Y20766284D01*
X6172572Y20913695D01*
X6240412Y21077476D01*
X6240415Y21077487D01*
X6267768Y21215000D01*
X5649242Y21215000D01*
X5654556Y21224204D01*
X5675000Y21300504D01*
X5675000Y21379496D01*
X5654556Y21455796D01*
X5649242Y21465000D01*
X6267768Y21465000D01*
X6267768Y21465001D01*
X7712231Y21465001D01*
X7712232Y21465000D01*
X8330758Y21465000D01*
X8325444Y21455796D01*
X8305000Y21379496D01*
X8305000Y21300504D01*
X8325444Y21224204D01*
X8330758Y21215000D01*
X7712231Y21215000D01*
X7739584Y21077487D01*
X7739587Y21077476D01*
X7807427Y20913695D01*
X7905923Y20766284D01*
X8031283Y20640924D01*
X8178693Y20542429D01*
X8274870Y20502591D01*
X8314918Y20462543D01*
X8314918Y20405905D01*
X8298877Y20381898D01*
X8186481Y20269502D01*
X8109401Y20135996D01*
X8109399Y20135991D01*
X8069500Y19987086D01*
X8069500Y19832915D01*
X8109399Y19684010D01*
X8109401Y19684005D01*
X8186481Y19550499D01*
X8186482Y19550498D01*
X8186484Y19550495D01*
X8295495Y19441484D01*
X8295497Y19441483D01*
X8295498Y19441482D01*
X8429004Y19364402D01*
X8429006Y19364401D01*
X8429007Y19364401D01*
X8429009Y19364400D01*
X8503461Y19344451D01*
X8577914Y19324501D01*
X8577915Y19324500D01*
X8577917Y19324500D01*
X8732085Y19324500D01*
X8732085Y19324501D01*
X8880994Y19364401D01*
X9014505Y19441484D01*
X9123516Y19550495D01*
X9200599Y19684006D01*
X9240499Y19832915D01*
X9240500Y19832915D01*
X9240500Y19987085D01*
X9240499Y19987086D01*
X9200600Y20135991D01*
X9200598Y20135996D01*
X9123729Y20269136D01*
X9123516Y20269505D01*
X9078953Y20314068D01*
X10849500Y20314068D01*
X10849500Y20185933D01*
X10874497Y20060261D01*
X10874498Y20060258D01*
X10904807Y19987085D01*
X10923535Y19941873D01*
X10994724Y19835331D01*
X11085331Y19744724D01*
X11191873Y19673535D01*
X11310256Y19624499D01*
X11310258Y19624499D01*
X11310260Y19624498D01*
X11352903Y19616016D01*
X11435931Y19599500D01*
X11435933Y19599500D01*
X11564067Y19599500D01*
X11564069Y19599500D01*
X11689744Y19624499D01*
X11808127Y19673535D01*
X11914669Y19744724D01*
X12005276Y19835331D01*
X12076465Y19941873D01*
X12125501Y20060256D01*
X12150500Y20185931D01*
X12150500Y20314069D01*
X12125501Y20439744D01*
X12076465Y20558127D01*
X12005276Y20664669D01*
X11914669Y20755276D01*
X11898197Y20766282D01*
X11879473Y20778793D01*
X11808127Y20826465D01*
X11808124Y20826467D01*
X11808123Y20826467D01*
X11689742Y20875502D01*
X11689739Y20875503D01*
X11599696Y20893414D01*
X11564069Y20900500D01*
X11435931Y20900500D01*
X11404726Y20894293D01*
X11310260Y20875503D01*
X11310257Y20875502D01*
X11191876Y20826467D01*
X11085331Y20755277D01*
X11085330Y20755275D01*
X10994725Y20664670D01*
X10994723Y20664669D01*
X10923533Y20558124D01*
X10874498Y20439743D01*
X10874497Y20439740D01*
X10849500Y20314068D01*
X9078953Y20314068D01*
X9043785Y20349236D01*
X9032964Y20375433D01*
X9022162Y20401511D01*
X9022176Y20401547D01*
X9022162Y20401583D01*
X9030000Y20420454D01*
X9030000Y21040000D01*
X9280000Y21040000D01*
X9280000Y20440000D01*
X9793641Y20440000D01*
X9967513Y20474585D01*
X9967524Y20474588D01*
X10131305Y20542428D01*
X10278716Y20640924D01*
X10278718Y20640925D01*
X10404075Y20766282D01*
X10404076Y20766284D01*
X10502572Y20913695D01*
X10570412Y21077476D01*
X10570415Y21077487D01*
X10597768Y21215000D01*
X9979242Y21215000D01*
X9984556Y21224204D01*
X10005000Y21300504D01*
X10005000Y21379496D01*
X9984556Y21455796D01*
X9979242Y21465000D01*
X10597768Y21465000D01*
X10597768Y21465001D01*
X10570415Y21602514D01*
X10570412Y21602525D01*
X10502572Y21766306D01*
X10404076Y21913717D01*
X10278716Y22039077D01*
X10131304Y22137573D01*
X10131305Y22137573D01*
X9967524Y22205413D01*
X9967513Y22205416D01*
X9793641Y22240000D01*
X9280000Y22240000D01*
X9280000Y21640000D01*
X9030000Y21640000D01*
X9030000Y22240000D01*
X8516359Y22240000D01*
X8342486Y22205416D01*
X8342475Y22205413D01*
X8178694Y22137573D01*
X8031283Y22039077D01*
X8031282Y22039075D01*
X7905925Y21913718D01*
X7905923Y21913717D01*
X7807427Y21766306D01*
X7739587Y21602525D01*
X7739584Y21602514D01*
X7712231Y21465001D01*
X6267768Y21465001D01*
X6240415Y21602514D01*
X6240412Y21602525D01*
X6172572Y21766306D01*
X6074076Y21913717D01*
X5948716Y22039077D01*
X5801304Y22137573D01*
X5801305Y22137573D01*
X5637524Y22205413D01*
X5637513Y22205416D01*
X5463641Y22240000D01*
X5100000Y22240000D01*
X5100000Y21640000D01*
X4850000Y21640000D01*
X4850000Y22240000D01*
X4486359Y22240000D01*
X4312486Y22205416D01*
X4312475Y22205413D01*
X4148694Y22137573D01*
X4001283Y22039077D01*
X4001282Y22039075D01*
X3875925Y21913718D01*
X3875923Y21913717D01*
X3777427Y21766306D01*
X3709587Y21602525D01*
X3709584Y21602514D01*
X3682231Y21465001D01*
X300500Y21465001D01*
X300500Y25234068D01*
X30159500Y25234068D01*
X30159500Y25105933D01*
X30184497Y24980261D01*
X30184498Y24980258D01*
X30184499Y24980256D01*
X30233535Y24861873D01*
X30304724Y24755331D01*
X30395331Y24664724D01*
X30501873Y24593535D01*
X30620256Y24544499D01*
X30620258Y24544499D01*
X30620260Y24544498D01*
X30662903Y24536016D01*
X30745931Y24519500D01*
X30745933Y24519500D01*
X30874067Y24519500D01*
X30874069Y24519500D01*
X30999744Y24544499D01*
X31118127Y24593535D01*
X31224669Y24664724D01*
X31315276Y24755331D01*
X31386465Y24861873D01*
X31435501Y24980256D01*
X31460500Y25105931D01*
X31460500Y25234069D01*
X31446576Y25304068D01*
X31999500Y25304068D01*
X31999500Y25175933D01*
X32024497Y25050261D01*
X32024498Y25050258D01*
X32024499Y25050256D01*
X32073535Y24931873D01*
X32144724Y24825331D01*
X32235331Y24734724D01*
X32341873Y24663535D01*
X32460256Y24614499D01*
X32460258Y24614499D01*
X32460260Y24614498D01*
X32502903Y24606016D01*
X32585931Y24589500D01*
X32585933Y24589500D01*
X32714067Y24589500D01*
X32714069Y24589500D01*
X32839744Y24614499D01*
X32958127Y24663535D01*
X33064669Y24734724D01*
X33155276Y24825331D01*
X33226465Y24931873D01*
X33275501Y25050256D01*
X33300500Y25175931D01*
X33300500Y25304069D01*
X33275501Y25429744D01*
X33226465Y25548127D01*
X33155276Y25654669D01*
X33064669Y25745276D01*
X32958127Y25816465D01*
X32958124Y25816467D01*
X32958123Y25816467D01*
X32839742Y25865502D01*
X32839739Y25865503D01*
X32749696Y25883414D01*
X32714069Y25890500D01*
X32585931Y25890500D01*
X32554726Y25884293D01*
X32460260Y25865503D01*
X32460257Y25865502D01*
X32341876Y25816467D01*
X32235331Y25745277D01*
X32235330Y25745275D01*
X32144725Y25654670D01*
X32144723Y25654669D01*
X32073533Y25548124D01*
X32024498Y25429743D01*
X32024497Y25429740D01*
X31999500Y25304068D01*
X31446576Y25304068D01*
X31435501Y25359744D01*
X31386465Y25478127D01*
X31315276Y25584669D01*
X31224669Y25675276D01*
X31118127Y25746465D01*
X31118124Y25746467D01*
X31118123Y25746467D01*
X30999742Y25795502D01*
X30999739Y25795503D01*
X30909696Y25813414D01*
X30874069Y25820500D01*
X30745931Y25820500D01*
X30714726Y25814293D01*
X30620260Y25795503D01*
X30620257Y25795502D01*
X30501876Y25746467D01*
X30395331Y25675277D01*
X30395330Y25675275D01*
X30304725Y25584670D01*
X30304723Y25584669D01*
X30233533Y25478124D01*
X30184498Y25359743D01*
X30184497Y25359740D01*
X30159500Y25234068D01*
X300500Y25234068D01*
X300500Y25996362D01*
X300856Y26003615D01*
X300856Y26003616D01*
X313227Y26129220D01*
X316054Y26143434D01*
X351632Y26260722D01*
X357178Y26274110D01*
X414954Y26382200D01*
X423006Y26394251D01*
X500756Y26488989D01*
X511013Y26499245D01*
X605749Y26576994D01*
X617800Y26585046D01*
X725890Y26642822D01*
X739278Y26648368D01*
X856566Y26683946D01*
X870780Y26686773D01*
X996386Y26699144D01*
X1003639Y26699500D01*
X1047595Y26699500D01*
X53952405Y26699500D01*
X53996361Y26699500D01*
X54003614Y26699144D01*
G37*
%TD.AperFunction*%
%TD*%
M02*
