%TF.GenerationSoftware,KiCad,Pcbnew,9.0.0*%
%TF.CreationDate,2026-07-28T23:24:21-03:00*%
%TF.ProjectId,Phil_Tutorial,5068696c-5f54-4757-946f-7269616c2e6b,rev?*%
%TF.SameCoordinates,PX38444c0PY5a995c0*%
%TF.FileFunction,Copper,L4,Bot*%
%TF.FilePolarity,Positive*%
%FSLAX46Y46*%
G04 Gerber Fmt 4.6, Leading zero omitted, Abs format (unit mm)*
G04 Created by KiCad (PCBNEW 9.0.0) date 2026-07-28 23:24:21*
%MOMM*%
%LPD*%
G01*
G04 APERTURE LIST*
G04 Aperture macros list*
%AMRoundRect*
0 Rectangle with rounded corners*
0 $1 Rounding radius*
0 $2 $3 $4 $5 $6 $7 $8 $9 X,Y pos of 4 corners*
0 Add a 4 corners polygon primitive as box body*
4,1,4,$2,$3,$4,$5,$6,$7,$8,$9,$2,$3,0*
0 Add four circle primitives for the rounded corners*
1,1,$1+$1,$2,$3*
1,1,$1+$1,$4,$5*
1,1,$1+$1,$6,$7*
1,1,$1+$1,$8,$9*
0 Add four rect primitives between the rounded corners*
20,1,$1+$1,$2,$3,$4,$5,0*
20,1,$1+$1,$4,$5,$6,$7,0*
20,1,$1+$1,$6,$7,$8,$9,0*
20,1,$1+$1,$8,$9,$2,$3,0*%
G04 Aperture macros list end*
%TA.AperFunction,ComponentPad*%
%ADD10C,0.700000*%
%TD*%
%TA.AperFunction,ComponentPad*%
%ADD11C,4.400000*%
%TD*%
%TA.AperFunction,ComponentPad*%
%ADD12RoundRect,0.200000X-0.450000X0.200000X-0.450000X-0.200000X0.450000X-0.200000X0.450000X0.200000X0*%
%TD*%
%TA.AperFunction,ComponentPad*%
%ADD13O,1.300000X0.800000*%
%TD*%
%TA.AperFunction,HeatsinkPad*%
%ADD14O,2.100000X1.000000*%
%TD*%
%TA.AperFunction,HeatsinkPad*%
%ADD15O,1.800000X1.000000*%
%TD*%
%TA.AperFunction,ViaPad*%
%ADD16C,0.900000*%
%TD*%
%TA.AperFunction,ViaPad*%
%ADD17C,0.700000*%
%TD*%
%TA.AperFunction,ViaPad*%
%ADD18C,0.650000*%
%TD*%
%TA.AperFunction,Conductor*%
%ADD19C,0.500000*%
%TD*%
%TA.AperFunction,Conductor*%
%ADD20C,0.190000*%
%TD*%
G04 APERTURE END LIST*
D10*
%TO.P,H3,1,1*%
%TO.N,GND*%
X49850000Y23000000D03*
X50333274Y24166726D03*
X50333274Y21833274D03*
X51500000Y24650000D03*
D11*
X51500000Y23000000D03*
D10*
X51500000Y21350000D03*
X52666726Y24166726D03*
X52666726Y21833274D03*
X53150000Y23000000D03*
%TD*%
D12*
%TO.P,J1,1,Pin_1*%
%TO.N,+3V3*%
X6755000Y7745000D03*
D13*
%TO.P,J1,2,Pin_2*%
%TO.N,/TXCON*%
X6755000Y6495000D03*
%TO.P,J1,3,Pin_3*%
%TO.N,/RXCON*%
X6755000Y5245000D03*
%TO.P,J1,4,Pin_4*%
%TO.N,GND*%
X6755000Y3995000D03*
%TD*%
D14*
%TO.P,J2,S1,SHIELD*%
%TO.N,GND*%
X9155000Y21340000D03*
D15*
X4975000Y21340000D03*
D14*
X9155000Y12700000D03*
D15*
X4975000Y12700000D03*
%TD*%
D10*
%TO.P,H4,1,1*%
%TO.N,GND*%
X49850000Y3500000D03*
X50333274Y4666726D03*
X50333274Y2333274D03*
X51500000Y5150000D03*
D11*
X51500000Y3500000D03*
D10*
X51500000Y1850000D03*
X52666726Y4666726D03*
X52666726Y2333274D03*
X53150000Y3500000D03*
%TD*%
%TO.P,H2,1,1*%
%TO.N,GND*%
X15350000Y3000000D03*
X15833274Y4166726D03*
X15833274Y1833274D03*
X17000000Y4650000D03*
D11*
X17000000Y3000000D03*
D10*
X17000000Y1350000D03*
X18166726Y4166726D03*
X18166726Y1833274D03*
X18650000Y3000000D03*
%TD*%
%TO.P,H1,1,1*%
%TO.N,GND*%
X15350000Y23000000D03*
X15833274Y24166726D03*
X15833274Y21833274D03*
X17000000Y24650000D03*
D11*
X17000000Y23000000D03*
D10*
X17000000Y21350000D03*
X18166726Y24166726D03*
X18166726Y21833274D03*
X18650000Y23000000D03*
%TD*%
D16*
%TO.N,GND*%
X25000000Y10000000D03*
X25000000Y7000000D03*
D17*
X47400000Y18200000D03*
D16*
X24000000Y2000000D03*
D17*
X53100000Y19600000D03*
X29400000Y23400000D03*
D16*
X48000000Y21000000D03*
D17*
X37900000Y14000000D03*
X9590000Y11370000D03*
D16*
X21000000Y1000000D03*
D17*
X13662500Y9000000D03*
D18*
X35270000Y11350000D03*
D17*
X39400000Y21400000D03*
D16*
X22000000Y9000000D03*
D17*
X46125000Y3340000D03*
D16*
X29650000Y25900000D03*
X45000000Y21000000D03*
D17*
X49800000Y19600000D03*
D16*
X13000000Y25000000D03*
D17*
X43000000Y16000000D03*
X42900000Y23400000D03*
X35900000Y18000000D03*
X47800000Y10100000D03*
X27700000Y10400000D03*
X33800000Y16000000D03*
X44000000Y16000000D03*
X31600000Y21300000D03*
D16*
X44000000Y25000000D03*
X13000000Y21000000D03*
X47000000Y12000000D03*
D17*
X7315000Y24020000D03*
X34910000Y7510000D03*
D16*
X27800000Y21750000D03*
D17*
X50000000Y13600000D03*
D16*
X12000000Y4000000D03*
D17*
X43620000Y1900000D03*
X39400000Y22700000D03*
X40700000Y14610000D03*
X38000000Y16000000D03*
X47400000Y16000000D03*
X51600000Y19600000D03*
X27900000Y17200000D03*
X30500000Y14500000D03*
D16*
X10000000Y2000000D03*
D17*
X33800000Y13900000D03*
X19400000Y12500000D03*
X37700000Y8300000D03*
X31600000Y22400000D03*
D16*
X19700000Y20950000D03*
X47000000Y14000000D03*
D18*
X44130000Y5900000D03*
D17*
X29500000Y14500000D03*
X51600000Y13600000D03*
X38000000Y18000000D03*
X11300000Y15100000D03*
X8900000Y3100000D03*
X6600000Y10800000D03*
X53000000Y13600000D03*
D16*
X52000000Y9000000D03*
D17*
X33800000Y18000000D03*
X15885000Y10652500D03*
X11800000Y11600000D03*
X26600000Y7800000D03*
X35800000Y13900000D03*
X29400000Y24700000D03*
D16*
X52000000Y12000000D03*
D17*
X40531084Y20568916D03*
X27700000Y11700000D03*
X41600000Y17900000D03*
D16*
X19050000Y26250000D03*
D17*
X29900000Y6600000D03*
D16*
X41000000Y25000000D03*
D17*
X16985000Y10652500D03*
X11810000Y12400000D03*
%TO.N,+3V3*%
X31060000Y2030000D03*
X29750000Y18250000D03*
X21250000Y19250000D03*
X28500000Y12500000D03*
X32650000Y25240000D03*
X31500000Y10000000D03*
X42166699Y18878090D03*
X9000000Y8250000D03*
X41630000Y14860000D03*
X30810000Y25170000D03*
X35830000Y9220000D03*
X31500000Y11250000D03*
X17690000Y7890000D03*
%TO.N,+5V*%
X16000000Y12000000D03*
X11500000Y20250000D03*
D18*
%TO.N,/BOOT0*%
X42880000Y6110000D03*
X34890000Y10480000D03*
%TD*%
D19*
%TO.N,+3V3*%
X21250000Y19250000D02*
X21778450Y19778450D01*
X26222450Y14777550D02*
X28500000Y12500000D01*
X31500000Y11250000D02*
X33530000Y9220000D01*
X41630000Y16797214D02*
X42401000Y17568214D01*
X34114000Y11291430D02*
X35921570Y13099000D01*
X31500000Y11250000D02*
X31500000Y10000000D01*
X9570000Y7680000D02*
X17480000Y7680000D01*
X32650000Y21150000D02*
X32650000Y25240000D01*
X17480000Y7680000D02*
X17690000Y7890000D01*
X35830000Y9220000D02*
X35052570Y9220000D01*
X17690000Y11080286D02*
X17786000Y10984286D01*
X32580000Y25170000D02*
X32650000Y25240000D01*
D20*
X29750000Y18250000D02*
X26282450Y18250000D01*
D19*
X35052570Y9220000D02*
X34114000Y10158570D01*
X41630000Y14407214D02*
X41630000Y14860000D01*
X21250000Y19250000D02*
X20721550Y19778450D01*
X30810000Y25170000D02*
X32580000Y25170000D01*
X7260000Y8250000D02*
X6755000Y7745000D01*
D20*
X26282450Y18250000D02*
X26222450Y18190000D01*
D19*
X17786000Y10984286D02*
X17786000Y7986000D01*
X17690000Y18727971D02*
X17690000Y11080286D01*
X28500000Y12500000D02*
X30250000Y12500000D01*
X34114000Y10158570D02*
X34114000Y11291430D01*
X41630000Y14860000D02*
X41630000Y16797214D01*
X33530000Y9220000D02*
X35830000Y9220000D01*
X26420000Y2030000D02*
X20560000Y7890000D01*
X20560000Y7890000D02*
X17690000Y7890000D01*
X26222450Y18190000D02*
X26222450Y14777550D01*
X29750000Y18250000D02*
X32650000Y21150000D01*
X26222450Y18783521D02*
X26222450Y18190000D01*
X25227521Y19778450D02*
X26222450Y18783521D01*
X40321786Y13099000D02*
X41630000Y14407214D01*
X42401000Y17568214D02*
X42401000Y18643789D01*
X30250000Y12500000D02*
X31500000Y11250000D01*
X9000000Y8250000D02*
X7260000Y8250000D01*
X35921570Y13099000D02*
X40321786Y13099000D01*
X20721550Y19778450D02*
X18740479Y19778450D01*
X31060000Y2030000D02*
X26420000Y2030000D01*
X17786000Y7986000D02*
X17690000Y7890000D01*
X21778450Y19778450D02*
X25227521Y19778450D01*
X42401000Y18643789D02*
X42166699Y18878090D01*
X18740479Y19778450D02*
X17690000Y18727971D01*
X9000000Y8250000D02*
X9570000Y7680000D01*
%TO.N,+5V*%
X16000000Y15750000D02*
X16000000Y12000000D01*
X11500000Y20250000D02*
X16000000Y15750000D01*
D20*
%TO.N,/BOOT0*%
X38510000Y10480000D02*
X42880000Y6110000D01*
X34890000Y10480000D02*
X38510000Y10480000D01*
%TD*%
M02*
