%TF.GenerationSoftware,KiCad,Pcbnew,9.0.0*%
%TF.CreationDate,2026-07-28T23:24:21-03:00*%
%TF.ProjectId,Phil_Tutorial,5068696c-5f54-4757-946f-7269616c2e6b,rev?*%
%TF.SameCoordinates,PX38444c0PY5a995c0*%
%TF.FileFunction,Paste,Top*%
%TF.FilePolarity,Positive*%
%FSLAX46Y46*%
G04 Gerber Fmt 4.6, Leading zero omitted, Abs format (unit mm)*
G04 Created by KiCad (PCBNEW 9.0.0) date 2026-07-28 23:24:21*
%MOMM*%
%LPD*%
G01*
G04 APERTURE LIST*
G04 Aperture macros list*
%AMRoundRect*
0 Rectangle with rounded corners*
0 $1 Rounding radius*
0 $2 $3 $4 $5 $6 $7 $8 $9 X,Y pos of 4 corners*
0 Add a 4 corners polygon primitive as box body*
4,1,4,$2,$3,$4,$5,$6,$7,$8,$9,$2,$3,0*
0 Add four circle primitives for the rounded corners*
1,1,$1+$1,$2,$3*
1,1,$1+$1,$4,$5*
1,1,$1+$1,$6,$7*
1,1,$1+$1,$8,$9*
0 Add four rect primitives between the rounded corners*
20,1,$1+$1,$2,$3,$4,$5,0*
20,1,$1+$1,$4,$5,$6,$7,0*
20,1,$1+$1,$6,$7,$8,$9,0*
20,1,$1+$1,$8,$9,$2,$3,0*%
G04 Aperture macros list end*
%ADD10RoundRect,0.140000X0.140000X0.170000X-0.140000X0.170000X-0.140000X-0.170000X0.140000X-0.170000X0*%
%ADD11RoundRect,0.218750X0.218750X0.381250X-0.218750X0.381250X-0.218750X-0.381250X0.218750X-0.381250X0*%
%ADD12RoundRect,0.150000X-0.512500X-0.150000X0.512500X-0.150000X0.512500X0.150000X-0.512500X0.150000X0*%
%ADD13RoundRect,0.225000X-0.225000X-0.250000X0.225000X-0.250000X0.225000X0.250000X-0.225000X0.250000X0*%
%ADD14RoundRect,0.225000X0.225000X0.250000X-0.225000X0.250000X-0.225000X-0.250000X0.225000X-0.250000X0*%
%ADD15RoundRect,0.140000X-0.170000X0.140000X-0.170000X-0.140000X0.170000X-0.140000X0.170000X0.140000X0*%
%ADD16R,0.800000X0.900000*%
%ADD17RoundRect,0.147500X-0.172500X0.147500X-0.172500X-0.147500X0.172500X-0.147500X0.172500X0.147500X0*%
%ADD18RoundRect,0.140000X-0.140000X-0.170000X0.140000X-0.170000X0.140000X0.170000X-0.140000X0.170000X0*%
%ADD19RoundRect,0.225000X0.250000X-0.225000X0.250000X0.225000X-0.250000X0.225000X-0.250000X-0.225000X0*%
%ADD20RoundRect,0.147500X-0.147500X-0.172500X0.147500X-0.172500X0.147500X0.172500X-0.147500X0.172500X0*%
%ADD21RoundRect,0.135000X-0.185000X0.135000X-0.185000X-0.135000X0.185000X-0.135000X0.185000X0.135000X0*%
%ADD22RoundRect,0.150000X-0.425000X0.150000X-0.425000X-0.150000X0.425000X-0.150000X0.425000X0.150000X0*%
%ADD23RoundRect,0.075000X-0.500000X0.075000X-0.500000X-0.075000X0.500000X-0.075000X0.500000X0.075000X0*%
%ADD24O,2.100000X1.000000*%
%ADD25O,1.800000X1.000000*%
%ADD26RoundRect,0.140000X0.170000X-0.140000X0.170000X0.140000X-0.170000X0.140000X-0.170000X-0.140000X0*%
%ADD27RoundRect,0.041250X-0.096250X-0.308750X0.096250X-0.308750X0.096250X0.308750X-0.096250X0.308750X0*%
%ADD28RoundRect,0.036750X-0.188250X-0.085750X0.188250X-0.085750X0.188250X0.085750X-0.188250X0.085750X0*%
%ADD29RoundRect,0.135000X0.185000X-0.135000X0.185000X0.135000X-0.185000X0.135000X-0.185000X-0.135000X0*%
%ADD30RoundRect,0.135000X-0.135000X-0.185000X0.135000X-0.185000X0.135000X0.185000X-0.135000X0.185000X0*%
%ADD31RoundRect,0.250000X0.315000X-0.315000X0.315000X0.315000X-0.315000X0.315000X-0.315000X-0.315000X0*%
%ADD32RoundRect,0.062500X0.062500X-0.375000X0.062500X0.375000X-0.062500X0.375000X-0.062500X-0.375000X0*%
%ADD33RoundRect,0.062500X0.375000X-0.062500X0.375000X0.062500X-0.375000X0.062500X-0.375000X-0.062500X0*%
%ADD34RoundRect,0.150000X-0.150000X0.512500X-0.150000X-0.512500X0.150000X-0.512500X0.150000X0.512500X0*%
%ADD35RoundRect,0.250000X-0.275000X-0.250000X0.275000X-0.250000X0.275000X0.250000X-0.275000X0.250000X0*%
%ADD36RoundRect,0.250000X-0.850000X-0.275000X0.850000X-0.275000X0.850000X0.275000X-0.850000X0.275000X0*%
%ADD37RoundRect,0.147500X0.172500X-0.147500X0.172500X0.147500X-0.172500X0.147500X-0.172500X-0.147500X0*%
%ADD38RoundRect,0.135000X0.135000X0.185000X-0.135000X0.185000X-0.135000X-0.185000X0.135000X-0.185000X0*%
%ADD39R,0.600000X1.100000*%
%ADD40R,1.500000X1.500000*%
G04 APERTURE END LIST*
D10*
%TO.C,C2*%
X33530000Y21350000D03*
X32570000Y21350000D03*
%TD*%
D11*
%TO.C,L1*%
X36812500Y23950000D03*
X34687500Y23950000D03*
%TD*%
D12*
%TO.C,U2*%
X12675000Y16050000D03*
X12675000Y15100000D03*
X12675000Y14150000D03*
X14950000Y14150000D03*
X14950000Y15100000D03*
X14950000Y16050000D03*
%TD*%
D13*
%TO.C,C14*%
X36700000Y22050000D03*
X38250000Y22050000D03*
%TD*%
D14*
%TO.C,C1*%
X32050000Y24000000D03*
X30500000Y24000000D03*
%TD*%
D15*
%TO.C,C17*%
X29900000Y8510000D03*
X29900000Y7550000D03*
%TD*%
D16*
%TO.C,X1*%
X42850000Y20850000D03*
X42850000Y22250000D03*
X41750000Y22250000D03*
X41750000Y20850000D03*
%TD*%
D17*
%TO.C,L2*%
X34650000Y22370000D03*
X34650000Y21400000D03*
%TD*%
D18*
%TO.C,C7*%
X36740000Y9250000D03*
X37700000Y9250000D03*
%TD*%
D15*
%TO.C,C18*%
X34000000Y8480000D03*
X34000000Y7520000D03*
%TD*%
D19*
%TO.C,C4*%
X16410000Y7890000D03*
X16410000Y9440000D03*
%TD*%
D20*
%TO.C,L3*%
X43030000Y17000000D03*
X44000000Y17000000D03*
%TD*%
D14*
%TO.C,C5*%
X30400000Y11000000D03*
X28850000Y11000000D03*
%TD*%
D21*
%TO.C,R7*%
X43990000Y4930000D03*
X43990000Y3910000D03*
%TD*%
D22*
%TO.C,J2*%
X9730000Y20220000D03*
X9730000Y19420000D03*
D23*
X9730000Y18270000D03*
X9730000Y17270000D03*
X9730000Y16770000D03*
X9730000Y15770000D03*
D22*
X9730000Y14620000D03*
X9730000Y13820000D03*
X9730000Y13820000D03*
X9730000Y14620000D03*
D23*
X9730000Y15270000D03*
X9730000Y16270000D03*
X9730000Y17770000D03*
X9730000Y18770000D03*
D22*
X9730000Y19420000D03*
X9730000Y20220000D03*
D24*
X9155000Y21340000D03*
D25*
X4975000Y21340000D03*
D24*
X9155000Y12700000D03*
D25*
X4975000Y12700000D03*
%TD*%
D21*
%TO.C,R2*%
X42300000Y9000000D03*
X42300000Y7980000D03*
%TD*%
D26*
%TO.C,C11*%
X30520000Y12520000D03*
X30520000Y13480000D03*
%TD*%
D15*
%TO.C,C19*%
X45080000Y4880000D03*
X45080000Y3920000D03*
%TD*%
D27*
%TO.C,FLT1*%
X46775000Y17150000D03*
D28*
X47387500Y16922500D03*
D27*
X48000000Y17150000D03*
D28*
X47387500Y17377500D03*
%TD*%
D29*
%TO.C,R3*%
X46875000Y9100000D03*
X46875000Y10120000D03*
%TD*%
D21*
%TO.C,R1*%
X40000000Y9020000D03*
X40000000Y8000000D03*
%TD*%
D10*
%TO.C,C9*%
X33550000Y22450000D03*
X32590000Y22450000D03*
%TD*%
D15*
%TO.C,C10*%
X40700000Y16400000D03*
X40700000Y15440000D03*
%TD*%
D30*
%TO.C,R4*%
X7300000Y23090000D03*
X8320000Y23090000D03*
%TD*%
D31*
%TO.C,U3*%
X33800000Y13800000D03*
X35200000Y13800000D03*
X36600000Y13800000D03*
X38000000Y13800000D03*
X33800000Y15200000D03*
X35200000Y15200000D03*
X36600000Y15200000D03*
X38000000Y15200000D03*
X33800000Y16600000D03*
X35200000Y16600000D03*
X36600000Y16600000D03*
X38000000Y16600000D03*
X33800000Y18000000D03*
X35200000Y18000000D03*
X36600000Y18000000D03*
X38000000Y18000000D03*
D32*
X33150000Y12462500D03*
X33650000Y12462500D03*
X34150000Y12462500D03*
X34650000Y12462500D03*
X35150000Y12462500D03*
X35650000Y12462500D03*
X36150000Y12462500D03*
X36650000Y12462500D03*
X37150000Y12462500D03*
X37650000Y12462500D03*
X38150000Y12462500D03*
X38650000Y12462500D03*
D33*
X39337500Y13150000D03*
X39337500Y13650000D03*
X39337500Y14150000D03*
X39337500Y14650000D03*
X39337500Y15150000D03*
X39337500Y15650000D03*
X39337500Y16150000D03*
X39337500Y16650000D03*
X39337500Y17150000D03*
X39337500Y17650000D03*
X39337500Y18150000D03*
X39337500Y18650000D03*
D32*
X38650000Y19337500D03*
X38150000Y19337500D03*
X37650000Y19337500D03*
X37150000Y19337500D03*
X36650000Y19337500D03*
X36150000Y19337500D03*
X35650000Y19337500D03*
X35150000Y19337500D03*
X34650000Y19337500D03*
X34150000Y19337500D03*
X33650000Y19337500D03*
X33150000Y19337500D03*
D33*
X32462500Y18650000D03*
X32462500Y18150000D03*
X32462500Y17650000D03*
X32462500Y17150000D03*
X32462500Y16650000D03*
X32462500Y16150000D03*
X32462500Y15650000D03*
X32462500Y15150000D03*
X32462500Y14650000D03*
X32462500Y14150000D03*
X32462500Y13650000D03*
X32462500Y13150000D03*
%TD*%
D30*
%TO.C,R5*%
X7560000Y10845000D03*
X8580000Y10845000D03*
%TD*%
D10*
%TO.C,C13*%
X28560000Y7850000D03*
X27600000Y7850000D03*
%TD*%
D15*
%TO.C,C15*%
X45000000Y16960000D03*
X45000000Y16000000D03*
%TD*%
D14*
%TO.C,C3*%
X14512500Y12175000D03*
X12962500Y12175000D03*
%TD*%
D34*
%TO.C,U1*%
X14612500Y10275000D03*
X13662500Y10275000D03*
X12712500Y10275000D03*
X12712500Y8000000D03*
X14612500Y8000000D03*
%TD*%
D35*
%TO.C,J4*%
X50075000Y17150000D03*
D36*
X51600000Y18625000D03*
X51600000Y15675000D03*
%TD*%
D15*
%TO.C,C12*%
X40650000Y18880000D03*
X40650000Y17920000D03*
%TD*%
D37*
%TO.C,D1*%
X44225000Y9030000D03*
X44225000Y10000000D03*
%TD*%
D38*
%TO.C,R6*%
X45690000Y1920000D03*
X44670000Y1920000D03*
%TD*%
D26*
%TO.C,C8*%
X29500000Y12540000D03*
X29500000Y13500000D03*
%TD*%
D15*
%TO.C,C16*%
X42000000Y17000000D03*
X42000000Y16040000D03*
%TD*%
D39*
%TO.C,X2*%
X31300000Y8000000D03*
X32700000Y8000000D03*
%TD*%
D10*
%TO.C,C6*%
X29830000Y17150000D03*
X28870000Y17150000D03*
%TD*%
D40*
%TO.C,SW1*%
X41210000Y3660000D03*
X33410000Y3660000D03*
%TD*%
M02*
