%TF.GenerationSoftware,KiCad,Pcbnew,9.0.0*%
%TF.CreationDate,2026-07-28T23:24:20-03:00*%
%TF.ProjectId,Phil_Tutorial,5068696c-5f54-4757-946f-7269616c2e6b,rev?*%
%TF.SameCoordinates,PX38444c0PY5a995c0*%
%TF.FileFunction,Copper,L1,Top*%
%TF.FilePolarity,Positive*%
%FSLAX46Y46*%
G04 Gerber Fmt 4.6, Leading zero omitted, Abs format (unit mm)*
G04 Created by KiCad (PCBNEW 9.0.0) date 2026-07-28 23:24:20*
%MOMM*%
%LPD*%
G01*
G04 APERTURE LIST*
G04 Aperture macros list*
%AMRoundRect*
0 Rectangle with rounded corners*
0 $1 Rounding radius*
0 $2 $3 $4 $5 $6 $7 $8 $9 X,Y pos of 4 corners*
0 Add a 4 corners polygon primitive as box body*
4,1,4,$2,$3,$4,$5,$6,$7,$8,$9,$2,$3,0*
0 Add four circle primitives for the rounded corners*
1,1,$1+$1,$2,$3*
1,1,$1+$1,$4,$5*
1,1,$1+$1,$6,$7*
1,1,$1+$1,$8,$9*
0 Add four rect primitives between the rounded corners*
20,1,$1+$1,$2,$3,$4,$5,0*
20,1,$1+$1,$4,$5,$6,$7,0*
20,1,$1+$1,$6,$7,$8,$9,0*
20,1,$1+$1,$8,$9,$2,$3,0*%
G04 Aperture macros list end*
%TA.AperFunction,ComponentPad*%
%ADD10C,0.700000*%
%TD*%
%TA.AperFunction,ComponentPad*%
%ADD11C,4.400000*%
%TD*%
%TA.AperFunction,SMDPad,CuDef*%
%ADD12RoundRect,0.140000X0.140000X0.170000X-0.140000X0.170000X-0.140000X-0.170000X0.140000X-0.170000X0*%
%TD*%
%TA.AperFunction,SMDPad,CuDef*%
%ADD13RoundRect,0.218750X0.218750X0.381250X-0.218750X0.381250X-0.218750X-0.381250X0.218750X-0.381250X0*%
%TD*%
%TA.AperFunction,SMDPad,CuDef*%
%ADD14RoundRect,0.150000X-0.512500X-0.150000X0.512500X-0.150000X0.512500X0.150000X-0.512500X0.150000X0*%
%TD*%
%TA.AperFunction,SMDPad,CuDef*%
%ADD15RoundRect,0.225000X-0.225000X-0.250000X0.225000X-0.250000X0.225000X0.250000X-0.225000X0.250000X0*%
%TD*%
%TA.AperFunction,SMDPad,CuDef*%
%ADD16RoundRect,0.225000X0.225000X0.250000X-0.225000X0.250000X-0.225000X-0.250000X0.225000X-0.250000X0*%
%TD*%
%TA.AperFunction,SMDPad,CuDef*%
%ADD17RoundRect,0.140000X-0.170000X0.140000X-0.170000X-0.140000X0.170000X-0.140000X0.170000X0.140000X0*%
%TD*%
%TA.AperFunction,SMDPad,CuDef*%
%ADD18R,0.800000X0.900000*%
%TD*%
%TA.AperFunction,SMDPad,CuDef*%
%ADD19RoundRect,0.147500X-0.172500X0.147500X-0.172500X-0.147500X0.172500X-0.147500X0.172500X0.147500X0*%
%TD*%
%TA.AperFunction,SMDPad,CuDef*%
%ADD20RoundRect,0.140000X-0.140000X-0.170000X0.140000X-0.170000X0.140000X0.170000X-0.140000X0.170000X0*%
%TD*%
%TA.AperFunction,SMDPad,CuDef*%
%ADD21C,1.000000*%
%TD*%
%TA.AperFunction,ComponentPad*%
%ADD22RoundRect,0.200000X-0.450000X0.200000X-0.450000X-0.200000X0.450000X-0.200000X0.450000X0.200000X0*%
%TD*%
%TA.AperFunction,ComponentPad*%
%ADD23O,1.300000X0.800000*%
%TD*%
%TA.AperFunction,SMDPad,CuDef*%
%ADD24RoundRect,0.225000X0.250000X-0.225000X0.250000X0.225000X-0.250000X0.225000X-0.250000X-0.225000X0*%
%TD*%
%TA.AperFunction,SMDPad,CuDef*%
%ADD25RoundRect,0.147500X-0.147500X-0.172500X0.147500X-0.172500X0.147500X0.172500X-0.147500X0.172500X0*%
%TD*%
%TA.AperFunction,SMDPad,CuDef*%
%ADD26RoundRect,0.135000X-0.185000X0.135000X-0.185000X-0.135000X0.185000X-0.135000X0.185000X0.135000X0*%
%TD*%
%TA.AperFunction,SMDPad,CuDef*%
%ADD27RoundRect,0.150000X-0.425000X0.150000X-0.425000X-0.150000X0.425000X-0.150000X0.425000X0.150000X0*%
%TD*%
%TA.AperFunction,SMDPad,CuDef*%
%ADD28RoundRect,0.075000X-0.500000X0.075000X-0.500000X-0.075000X0.500000X-0.075000X0.500000X0.075000X0*%
%TD*%
%TA.AperFunction,HeatsinkPad*%
%ADD29O,2.100000X1.000000*%
%TD*%
%TA.AperFunction,HeatsinkPad*%
%ADD30O,1.800000X1.000000*%
%TD*%
%TA.AperFunction,SMDPad,CuDef*%
%ADD31RoundRect,0.140000X0.170000X-0.140000X0.170000X0.140000X-0.170000X0.140000X-0.170000X-0.140000X0*%
%TD*%
%TA.AperFunction,SMDPad,CuDef*%
%ADD32RoundRect,0.041250X-0.096250X-0.308750X0.096250X-0.308750X0.096250X0.308750X-0.096250X0.308750X0*%
%TD*%
%TA.AperFunction,SMDPad,CuDef*%
%ADD33RoundRect,0.036750X-0.188250X-0.085750X0.188250X-0.085750X0.188250X0.085750X-0.188250X0.085750X0*%
%TD*%
%TA.AperFunction,SMDPad,CuDef*%
%ADD34RoundRect,0.135000X0.185000X-0.135000X0.185000X0.135000X-0.185000X0.135000X-0.185000X-0.135000X0*%
%TD*%
%TA.AperFunction,SMDPad,CuDef*%
%ADD35RoundRect,0.135000X-0.135000X-0.185000X0.135000X-0.185000X0.135000X0.185000X-0.135000X0.185000X0*%
%TD*%
%TA.AperFunction,SMDPad,CuDef*%
%ADD36RoundRect,0.062500X0.062500X-0.375000X0.062500X0.375000X-0.062500X0.375000X-0.062500X-0.375000X0*%
%TD*%
%TA.AperFunction,SMDPad,CuDef*%
%ADD37RoundRect,0.062500X0.375000X-0.062500X0.375000X0.062500X-0.375000X0.062500X-0.375000X-0.062500X0*%
%TD*%
%TA.AperFunction,HeatsinkPad*%
%ADD38R,5.600000X5.600000*%
%TD*%
%TA.AperFunction,SMDPad,CuDef*%
%ADD39RoundRect,0.150000X-0.150000X0.512500X-0.150000X-0.512500X0.150000X-0.512500X0.150000X0.512500X0*%
%TD*%
%TA.AperFunction,SMDPad,CuDef*%
%ADD40RoundRect,0.250000X-0.275000X-0.250000X0.275000X-0.250000X0.275000X0.250000X-0.275000X0.250000X0*%
%TD*%
%TA.AperFunction,SMDPad,CuDef*%
%ADD41RoundRect,0.250000X-0.850000X-0.275000X0.850000X-0.275000X0.850000X0.275000X-0.850000X0.275000X0*%
%TD*%
%TA.AperFunction,ConnectorPad*%
%ADD42C,0.787400*%
%TD*%
%TA.AperFunction,SMDPad,CuDef*%
%ADD43RoundRect,0.147500X0.172500X-0.147500X0.172500X0.147500X-0.172500X0.147500X-0.172500X-0.147500X0*%
%TD*%
%TA.AperFunction,SMDPad,CuDef*%
%ADD44RoundRect,0.135000X0.135000X0.185000X-0.135000X0.185000X-0.135000X-0.185000X0.135000X-0.185000X0*%
%TD*%
%TA.AperFunction,SMDPad,CuDef*%
%ADD45R,0.600000X1.100000*%
%TD*%
%TA.AperFunction,SMDPad,CuDef*%
%ADD46R,1.500000X1.500000*%
%TD*%
%TA.AperFunction,ViaPad*%
%ADD47C,0.900000*%
%TD*%
%TA.AperFunction,ViaPad*%
%ADD48C,0.700000*%
%TD*%
%TA.AperFunction,ViaPad*%
%ADD49C,0.650000*%
%TD*%
%TA.AperFunction,Conductor*%
%ADD50C,0.500000*%
%TD*%
%TA.AperFunction,Conductor*%
%ADD51C,0.190000*%
%TD*%
%TA.AperFunction,Conductor*%
%ADD52C,0.200000*%
%TD*%
%TA.AperFunction,Conductor*%
%ADD53C,0.220000*%
%TD*%
%TA.AperFunction,Conductor*%
%ADD54C,0.300000*%
%TD*%
%TA.AperFunction,Conductor*%
%ADD55C,0.150000*%
%TD*%
G04 APERTURE END LIST*
D10*
%TO.P,H3,1,1*%
%TO.N,GND*%
X49850000Y23000000D03*
X50333274Y24166726D03*
X50333274Y21833274D03*
X51500000Y24650000D03*
D11*
X51500000Y23000000D03*
D10*
X51500000Y21350000D03*
X52666726Y24166726D03*
X52666726Y21833274D03*
X53150000Y23000000D03*
%TD*%
D12*
%TO.P,C2,1*%
%TO.N,+3V3*%
X33530000Y21350000D03*
%TO.P,C2,2*%
%TO.N,GND*%
X32570000Y21350000D03*
%TD*%
D13*
%TO.P,L1,1,1*%
%TO.N,/SMPSFB*%
X36812500Y23950000D03*
%TO.P,L1,2,2*%
%TO.N,/SMPSLXL*%
X34687500Y23950000D03*
%TD*%
D14*
%TO.P,U2,1,I/O1*%
%TO.N,Net-(J2-D--PadA7)*%
X12675000Y16050000D03*
%TO.P,U2,2,GND*%
%TO.N,GND*%
X12675000Y15100000D03*
%TO.P,U2,3,I/O2*%
%TO.N,Net-(J2-D+-PadA6)*%
X12675000Y14150000D03*
%TO.P,U2,4,I/O2*%
%TO.N,/USB_D+*%
X14950000Y14150000D03*
%TO.P,U2,5,VBUS*%
%TO.N,+5V*%
X14950000Y15100000D03*
%TO.P,U2,6,I/O1*%
%TO.N,/USB_D-*%
X14950000Y16050000D03*
%TD*%
D15*
%TO.P,C14,1*%
%TO.N,/SMPSFB*%
X36700000Y22050000D03*
%TO.P,C14,2*%
%TO.N,GND*%
X38250000Y22050000D03*
%TD*%
D16*
%TO.P,C1,1*%
%TO.N,+3V3*%
X32050000Y24000000D03*
%TO.P,C1,2*%
%TO.N,GND*%
X30500000Y24000000D03*
%TD*%
D17*
%TO.P,C17,1*%
%TO.N,/LSE_IN*%
X29900000Y8510000D03*
%TO.P,C17,2*%
%TO.N,GND*%
X29900000Y7550000D03*
%TD*%
D18*
%TO.P,X1,1,1*%
%TO.N,Net-(U3-OSC_OUT)*%
X42850000Y20850000D03*
%TO.P,X1,2,2*%
%TO.N,GND*%
X42850000Y22250000D03*
%TO.P,X1,3,3*%
%TO.N,Net-(U3-OSC_IN)*%
X41750000Y22250000D03*
%TO.P,X1,4,4*%
%TO.N,GND*%
X41750000Y20850000D03*
%TD*%
D19*
%TO.P,L2,1,1*%
%TO.N,/SMPSLXL*%
X34650000Y22370000D03*
%TO.P,L2,2,2*%
%TO.N,/SMPSLX*%
X34650000Y21400000D03*
%TD*%
D20*
%TO.P,C7,1*%
%TO.N,+3V3*%
X36740000Y9250000D03*
%TO.P,C7,2*%
%TO.N,GND*%
X37700000Y9250000D03*
%TD*%
D17*
%TO.P,C18,1*%
%TO.N,/LSE_OUT*%
X34000000Y8480000D03*
%TO.P,C18,2*%
%TO.N,GND*%
X34000000Y7520000D03*
%TD*%
D21*
%TO.P,FID1,*%
%TO.N,*%
X3500000Y24000000D03*
%TD*%
D22*
%TO.P,J1,1,Pin_1*%
%TO.N,+3V3*%
X6755000Y7745000D03*
D23*
%TO.P,J1,2,Pin_2*%
%TO.N,/TXCON*%
X6755000Y6495000D03*
%TO.P,J1,3,Pin_3*%
%TO.N,/RXCON*%
X6755000Y5245000D03*
%TO.P,J1,4,Pin_4*%
%TO.N,GND*%
X6755000Y3995000D03*
%TD*%
D24*
%TO.P,C4,1*%
%TO.N,+3V3*%
X16410000Y7890000D03*
%TO.P,C4,2*%
%TO.N,GND*%
X16410000Y9440000D03*
%TD*%
D25*
%TO.P,L3,1,1*%
%TO.N,/RF*%
X43030000Y17000000D03*
%TO.P,L3,2,2*%
X44000000Y17000000D03*
%TD*%
D16*
%TO.P,C5,1*%
%TO.N,+3V3*%
X30400000Y11000000D03*
%TO.P,C5,2*%
%TO.N,GND*%
X28850000Y11000000D03*
%TD*%
D26*
%TO.P,R7,1*%
%TO.N,/BOOT0*%
X43990000Y4930000D03*
%TO.P,R7,2*%
%TO.N,Net-(R7-Pad2)*%
X43990000Y3910000D03*
%TD*%
D27*
%TO.P,J2,A1,GND*%
%TO.N,GND*%
X9730000Y20220000D03*
%TO.P,J2,A4,VBUS*%
%TO.N,+5V*%
X9730000Y19420000D03*
D28*
%TO.P,J2,A5,CC1*%
%TO.N,Net-(J2-CC1)*%
X9730000Y18270000D03*
%TO.P,J2,A6,D+*%
%TO.N,Net-(J2-D+-PadA6)*%
X9730000Y17270000D03*
%TO.P,J2,A7,D-*%
%TO.N,Net-(J2-D--PadA7)*%
X9730000Y16770000D03*
%TO.P,J2,A8,SBU1*%
%TO.N,unconnected-(J2-SBU1-PadA8)*%
X9730000Y15770000D03*
D27*
%TO.P,J2,A9,VBUS*%
%TO.N,+5V*%
X9730000Y14620000D03*
%TO.P,J2,A12,GND*%
%TO.N,GND*%
X9730000Y13820000D03*
%TO.P,J2,B1,GND*%
X9730000Y13820000D03*
%TO.P,J2,B4,VBUS*%
%TO.N,+5V*%
X9730000Y14620000D03*
D28*
%TO.P,J2,B5,CC2*%
%TO.N,Net-(J2-CC2)*%
X9730000Y15270000D03*
%TO.P,J2,B6,D+*%
%TO.N,Net-(J2-D+-PadA6)*%
X9730000Y16270000D03*
%TO.P,J2,B7,D-*%
%TO.N,Net-(J2-D--PadA7)*%
X9730000Y17770000D03*
%TO.P,J2,B8,SBU2*%
%TO.N,unconnected-(J2-SBU2-PadB8)*%
X9730000Y18770000D03*
D27*
%TO.P,J2,B9,VBUS*%
%TO.N,+5V*%
X9730000Y19420000D03*
%TO.P,J2,B12,GND*%
%TO.N,GND*%
X9730000Y20220000D03*
D29*
%TO.P,J2,S1,SHIELD*%
X9155000Y21340000D03*
D30*
X4975000Y21340000D03*
D29*
X9155000Y12700000D03*
D30*
X4975000Y12700000D03*
%TD*%
D26*
%TO.P,R2,1*%
%TO.N,/UART_RX*%
X42300000Y9000000D03*
%TO.P,R2,2*%
%TO.N,/RXCON*%
X42300000Y7980000D03*
%TD*%
D31*
%TO.P,C11,1*%
%TO.N,+3V3*%
X30520000Y12520000D03*
%TO.P,C11,2*%
%TO.N,GND*%
X30520000Y13480000D03*
%TD*%
D17*
%TO.P,C19,1*%
%TO.N,/BOOT0*%
X45080000Y4880000D03*
%TO.P,C19,2*%
%TO.N,GND*%
X45080000Y3920000D03*
%TD*%
D32*
%TO.P,FLT1,1,IN*%
%TO.N,/RF*%
X46775000Y17150000D03*
D33*
%TO.P,FLT1,2,GND*%
%TO.N,GND*%
X47387500Y16922500D03*
D32*
%TO.P,FLT1,3,OUT*%
%TO.N,/RF_ANT*%
X48000000Y17150000D03*
D33*
%TO.P,FLT1,4,GND*%
%TO.N,GND*%
X47387500Y17377500D03*
%TD*%
D21*
%TO.P,FID3,*%
%TO.N,*%
X48460000Y6050000D03*
%TD*%
D10*
%TO.P,H4,1,1*%
%TO.N,GND*%
X49850000Y3500000D03*
X50333274Y4666726D03*
X50333274Y2333274D03*
X51500000Y5150000D03*
D11*
X51500000Y3500000D03*
D10*
X51500000Y1850000D03*
X52666726Y4666726D03*
X52666726Y2333274D03*
X53150000Y3500000D03*
%TD*%
D34*
%TO.P,R3,1*%
%TO.N,/D1_K*%
X46875000Y9100000D03*
%TO.P,R3,2*%
%TO.N,GND*%
X46875000Y10120000D03*
%TD*%
D26*
%TO.P,R1,1*%
%TO.N,/UART_TX*%
X40000000Y9020000D03*
%TO.P,R1,2*%
%TO.N,/TXCON*%
X40000000Y8000000D03*
%TD*%
D12*
%TO.P,C9,1*%
%TO.N,+3V3*%
X33550000Y22450000D03*
%TO.P,C9,2*%
%TO.N,GND*%
X32590000Y22450000D03*
%TD*%
D17*
%TO.P,C10,1*%
%TO.N,+3V3*%
X40700000Y16400000D03*
%TO.P,C10,2*%
%TO.N,GND*%
X40700000Y15440000D03*
%TD*%
D35*
%TO.P,R4,1*%
%TO.N,GND*%
X7300000Y23090000D03*
%TO.P,R4,2*%
%TO.N,Net-(J2-CC1)*%
X8320000Y23090000D03*
%TD*%
D36*
%TO.P,U3,1,VBAT*%
%TO.N,+3V3*%
X33150000Y12462500D03*
%TO.P,U3,2,PC14*%
%TO.N,/LSE_IN*%
X33650000Y12462500D03*
%TO.P,U3,3,PC15*%
%TO.N,/LSE_OUT*%
X34150000Y12462500D03*
%TO.P,U3,4,PH3*%
%TO.N,/BOOT0*%
X34650000Y12462500D03*
%TO.P,U3,5,PB8*%
%TO.N,unconnected-(U3-PB8-Pad5)*%
X35150000Y12462500D03*
%TO.P,U3,6,PB9*%
%TO.N,unconnected-(U3-PB9-Pad6)*%
X35650000Y12462500D03*
%TO.P,U3,7,NRST*%
%TO.N,/SWD_NRST*%
X36150000Y12462500D03*
%TO.P,U3,8,VDDA*%
%TO.N,+3V3*%
X36650000Y12462500D03*
%TO.P,U3,9,PA0*%
%TO.N,unconnected-(U3-PA0-Pad9)*%
X37150000Y12462500D03*
%TO.P,U3,10,PA1*%
%TO.N,unconnected-(U3-PA1-Pad10)*%
X37650000Y12462500D03*
%TO.P,U3,11,PA2*%
%TO.N,/UART_TX*%
X38150000Y12462500D03*
%TO.P,U3,12,PA3*%
%TO.N,/UART_RX*%
X38650000Y12462500D03*
D37*
%TO.P,U3,13,PA4*%
%TO.N,unconnected-(U3-PA4-Pad13)*%
X39337500Y13150000D03*
%TO.P,U3,14,PA5*%
%TO.N,unconnected-(U3-PA5-Pad14)*%
X39337500Y13650000D03*
%TO.P,U3,15,PA6*%
%TO.N,unconnected-(U3-PA6-Pad15)*%
X39337500Y14150000D03*
%TO.P,U3,16,PA7*%
%TO.N,/D1_A*%
X39337500Y14650000D03*
%TO.P,U3,17,PA8*%
%TO.N,unconnected-(U3-PA8-Pad17)*%
X39337500Y15150000D03*
%TO.P,U3,18,PA9*%
%TO.N,unconnected-(U3-PA9-Pad18)*%
X39337500Y15650000D03*
%TO.P,U3,19,PB2*%
%TO.N,unconnected-(U3-PB2-Pad19)*%
X39337500Y16150000D03*
%TO.P,U3,20,VDD*%
%TO.N,+3V3*%
X39337500Y16650000D03*
%TO.P,U3,21,RF1*%
%TO.N,/RF*%
X39337500Y17150000D03*
%TO.P,U3,22,VSSRF*%
%TO.N,GND*%
X39337500Y17650000D03*
%TO.P,U3,23,VDDRF*%
%TO.N,+3V3*%
X39337500Y18150000D03*
%TO.P,U3,24,OSC_OUT*%
%TO.N,Net-(U3-OSC_OUT)*%
X39337500Y18650000D03*
D36*
%TO.P,U3,25,OSC_IN*%
%TO.N,Net-(U3-OSC_IN)*%
X38650000Y19337500D03*
%TO.P,U3,26,AT0*%
%TO.N,unconnected-(U3-AT0-Pad26)*%
X38150000Y19337500D03*
%TO.P,U3,27,AT1*%
%TO.N,unconnected-(U3-AT1-Pad27)*%
X37650000Y19337500D03*
%TO.P,U3,28,PB0*%
%TO.N,unconnected-(U3-PB0-Pad28)*%
X37150000Y19337500D03*
%TO.P,U3,29,PB1*%
%TO.N,unconnected-(U3-PB1-Pad29)*%
X36650000Y19337500D03*
%TO.P,U3,30,PE4*%
%TO.N,unconnected-(U3-PE4-Pad30)*%
X36150000Y19337500D03*
%TO.P,U3,31,VFBSMPS*%
%TO.N,/SMPSFB*%
X35650000Y19337500D03*
%TO.P,U3,32,VSSSMPS*%
%TO.N,GND*%
X35150000Y19337500D03*
%TO.P,U3,33,VLXSMPS*%
%TO.N,/SMPSLX*%
X34650000Y19337500D03*
%TO.P,U3,34,VDDSMPS*%
%TO.N,+3V3*%
X34150000Y19337500D03*
%TO.P,U3,35,VDD*%
X33650000Y19337500D03*
%TO.P,U3,36,PA10*%
%TO.N,unconnected-(U3-PA10-Pad36)*%
X33150000Y19337500D03*
D37*
%TO.P,U3,37,PA11*%
%TO.N,/USB_D-*%
X32462500Y18650000D03*
%TO.P,U3,38,PA12*%
%TO.N,/USB_D+*%
X32462500Y18150000D03*
%TO.P,U3,39,PA13*%
%TO.N,/SWDIO*%
X32462500Y17650000D03*
%TO.P,U3,40,VDDUSB*%
%TO.N,+3V3*%
X32462500Y17150000D03*
%TO.P,U3,41,PA14*%
%TO.N,/SWCLK*%
X32462500Y16650000D03*
%TO.P,U3,42,PA15*%
%TO.N,unconnected-(U3-PA15-Pad42)*%
X32462500Y16150000D03*
%TO.P,U3,43,PB3*%
%TO.N,/SWD_TRC*%
X32462500Y15650000D03*
%TO.P,U3,44,PB4*%
%TO.N,unconnected-(U3-PB4-Pad44)*%
X32462500Y15150000D03*
%TO.P,U3,45,PB5*%
%TO.N,unconnected-(U3-PB5-Pad45)*%
X32462500Y14650000D03*
%TO.P,U3,46,PB6*%
%TO.N,unconnected-(U3-PB6-Pad46)*%
X32462500Y14150000D03*
%TO.P,U3,47,PB7*%
%TO.N,unconnected-(U3-PB7-Pad47)*%
X32462500Y13650000D03*
%TO.P,U3,48,VDD*%
%TO.N,+3V3*%
X32462500Y13150000D03*
D38*
%TO.P,U3,49,VSS*%
%TO.N,GND*%
X35900000Y15900000D03*
%TD*%
D35*
%TO.P,R5,1*%
%TO.N,GND*%
X7560000Y10845000D03*
%TO.P,R5,2*%
%TO.N,Net-(J2-CC2)*%
X8580000Y10845000D03*
%TD*%
D12*
%TO.P,C13,1*%
%TO.N,/SWD_NRST*%
X28560000Y7850000D03*
%TO.P,C13,2*%
%TO.N,GND*%
X27600000Y7850000D03*
%TD*%
D17*
%TO.P,C15,1*%
%TO.N,/RF*%
X45000000Y16960000D03*
%TO.P,C15,2*%
%TO.N,GND*%
X45000000Y16000000D03*
%TD*%
D10*
%TO.P,H2,1,1*%
%TO.N,GND*%
X15350000Y3000000D03*
X15833274Y4166726D03*
X15833274Y1833274D03*
X17000000Y4650000D03*
D11*
X17000000Y3000000D03*
D10*
X17000000Y1350000D03*
X18166726Y4166726D03*
X18166726Y1833274D03*
X18650000Y3000000D03*
%TD*%
D16*
%TO.P,C3,1*%
%TO.N,+5V*%
X14512500Y12175000D03*
%TO.P,C3,2*%
%TO.N,GND*%
X12962500Y12175000D03*
%TD*%
D39*
%TO.P,U1,1,VIN*%
%TO.N,+5V*%
X14612500Y10275000D03*
%TO.P,U1,2,GND*%
%TO.N,GND*%
X13662500Y10275000D03*
%TO.P,U1,3,EN*%
%TO.N,+5V*%
X12712500Y10275000D03*
%TO.P,U1,4,NC*%
%TO.N,unconnected-(U1-NC-Pad4)*%
X12712500Y8000000D03*
%TO.P,U1,5,VOUT*%
%TO.N,+3V3*%
X14612500Y8000000D03*
%TD*%
D40*
%TO.P,J4,1,In*%
%TO.N,/RF_ANT*%
X50075000Y17150000D03*
D41*
%TO.P,J4,2,Ext*%
%TO.N,GND*%
X51600000Y18625000D03*
X51600000Y15675000D03*
%TD*%
D42*
%TO.P,J3,1,VCC*%
%TO.N,+3V3*%
X21349000Y16810000D03*
%TO.P,J3,2,SWDIO*%
%TO.N,/SWDIO*%
X22619000Y16810000D03*
%TO.P,J3,3,~{RESET}*%
%TO.N,/SWD_NRST*%
X21349000Y15540000D03*
%TO.P,J3,4,SWCLK*%
%TO.N,/SWCLK*%
X22619000Y15540000D03*
%TO.P,J3,5,GND*%
%TO.N,GND*%
X21349000Y14270000D03*
%TO.P,J3,6,SWO*%
%TO.N,/SWD_TRC*%
X22619000Y14270000D03*
%TD*%
D17*
%TO.P,C12,1*%
%TO.N,+3V3*%
X40650000Y18880000D03*
%TO.P,C12,2*%
%TO.N,GND*%
X40650000Y17920000D03*
%TD*%
D43*
%TO.P,D1,1,K*%
%TO.N,/D1_K*%
X44225000Y9030000D03*
%TO.P,D1,2,A*%
%TO.N,/D1_A*%
X44225000Y10000000D03*
%TD*%
D10*
%TO.P,H1,1,1*%
%TO.N,GND*%
X15350000Y23000000D03*
X15833274Y24166726D03*
X15833274Y21833274D03*
X17000000Y24650000D03*
D11*
X17000000Y23000000D03*
D10*
X17000000Y21350000D03*
X18166726Y24166726D03*
X18166726Y21833274D03*
X18650000Y23000000D03*
%TD*%
D44*
%TO.P,R6,1*%
%TO.N,/BOOT0*%
X45690000Y1920000D03*
%TO.P,R6,2*%
%TO.N,GND*%
X44670000Y1920000D03*
%TD*%
D21*
%TO.P,FID2,*%
%TO.N,*%
X47000000Y24000000D03*
%TD*%
D31*
%TO.P,C8,1*%
%TO.N,+3V3*%
X29500000Y12540000D03*
%TO.P,C8,2*%
%TO.N,GND*%
X29500000Y13500000D03*
%TD*%
D17*
%TO.P,C16,1*%
%TO.N,/RF*%
X42000000Y17000000D03*
%TO.P,C16,2*%
%TO.N,GND*%
X42000000Y16040000D03*
%TD*%
D45*
%TO.P,X2,1,1*%
%TO.N,/LSE_IN*%
X31300000Y8000000D03*
%TO.P,X2,2,2*%
%TO.N,/LSE_OUT*%
X32700000Y8000000D03*
%TD*%
D12*
%TO.P,C6,1*%
%TO.N,+3V3*%
X29830000Y17150000D03*
%TO.P,C6,2*%
%TO.N,GND*%
X28870000Y17150000D03*
%TD*%
D46*
%TO.P,SW1,1,1*%
%TO.N,Net-(R7-Pad2)*%
X41210000Y3660000D03*
%TO.P,SW1,2,2*%
%TO.N,+3V3*%
X33410000Y3660000D03*
%TD*%
D47*
%TO.N,GND*%
X25000000Y10000000D03*
X25000000Y7000000D03*
D48*
X47400000Y18200000D03*
D47*
X24000000Y2000000D03*
D48*
X53100000Y19600000D03*
X29400000Y23400000D03*
D47*
X48000000Y21000000D03*
D48*
X37900000Y14000000D03*
X9590000Y11370000D03*
D47*
X21000000Y1000000D03*
D48*
X13662500Y9000000D03*
D49*
X35270000Y11350000D03*
D48*
X39400000Y21400000D03*
D47*
X22000000Y9000000D03*
D48*
X46125000Y3340000D03*
D47*
X29650000Y25900000D03*
X45000000Y21000000D03*
D48*
X49800000Y19600000D03*
D47*
X13000000Y25000000D03*
D48*
X43000000Y16000000D03*
X42900000Y23400000D03*
X35900000Y18000000D03*
X47800000Y10100000D03*
X27700000Y10400000D03*
X33800000Y16000000D03*
X44000000Y16000000D03*
X31600000Y21300000D03*
D47*
X44000000Y25000000D03*
X13000000Y21000000D03*
X47000000Y12000000D03*
D48*
X7315000Y24020000D03*
X34910000Y7510000D03*
D47*
X27800000Y21750000D03*
D48*
X50000000Y13600000D03*
D47*
X12000000Y4000000D03*
D48*
X43620000Y1900000D03*
X39400000Y22700000D03*
X40700000Y14610000D03*
X38000000Y16000000D03*
X47400000Y16000000D03*
X51600000Y19600000D03*
X27900000Y17200000D03*
X30500000Y14500000D03*
D47*
X10000000Y2000000D03*
D48*
X33800000Y13900000D03*
X19400000Y12500000D03*
X37700000Y8300000D03*
X31600000Y22400000D03*
D47*
X19700000Y20950000D03*
X47000000Y14000000D03*
D49*
X44130000Y5900000D03*
D48*
X29500000Y14500000D03*
X51600000Y13600000D03*
X38000000Y18000000D03*
X11300000Y15100000D03*
X8900000Y3100000D03*
X6600000Y10800000D03*
X53000000Y13600000D03*
D47*
X52000000Y9000000D03*
D48*
X33800000Y18000000D03*
X15885000Y10652500D03*
X11800000Y11600000D03*
X26600000Y7800000D03*
X35800000Y13900000D03*
X29400000Y24700000D03*
D47*
X52000000Y12000000D03*
D48*
X40531084Y20568916D03*
X27700000Y11700000D03*
X41600000Y17900000D03*
D47*
X19050000Y26250000D03*
D48*
X29900000Y6600000D03*
D47*
X41000000Y25000000D03*
D48*
X16985000Y10652500D03*
X11810000Y12400000D03*
%TO.N,+3V3*%
X31060000Y2030000D03*
X29750000Y18250000D03*
X21250000Y19250000D03*
X28500000Y12500000D03*
X32650000Y25240000D03*
X31500000Y10000000D03*
X42166699Y18878090D03*
X9000000Y8250000D03*
X41630000Y14860000D03*
X30810000Y25170000D03*
X35830000Y9220000D03*
X31500000Y11250000D03*
X17690000Y7890000D03*
%TO.N,+5V*%
X16000000Y12000000D03*
X11500000Y20250000D03*
D49*
%TO.N,/BOOT0*%
X42880000Y6110000D03*
X34890000Y10480000D03*
%TD*%
D50*
%TO.N,GND*%
X9155000Y12700000D02*
X9155000Y11805000D01*
X32600000Y22400000D02*
X31600000Y22400000D01*
X9810000Y23910000D02*
X9810000Y21995000D01*
X30000000Y24000000D02*
X29400000Y23400000D01*
D51*
X28850000Y11000000D02*
X28400000Y11000000D01*
D52*
X35150000Y19337500D02*
X35150000Y16650000D01*
D50*
X40600000Y17900000D02*
X41600000Y17900000D01*
X37700000Y9300000D02*
X37700000Y8300000D01*
D51*
X15885000Y9965000D02*
X16410000Y9440000D01*
D50*
X45000000Y16000000D02*
X44000000Y16000000D01*
D51*
X39337500Y17650000D02*
X40380000Y17650000D01*
X40380000Y17650000D02*
X40650000Y17920000D01*
D50*
X9730000Y20220000D02*
X9730000Y20765000D01*
X29400000Y24600000D02*
X30000000Y24000000D01*
D51*
X28400000Y11000000D02*
X28155000Y11245000D01*
D50*
X51600000Y19600000D02*
X51600000Y18625000D01*
X38900000Y21400000D02*
X38250000Y22050000D01*
X7315000Y24020000D02*
X9700000Y24020000D01*
X50625000Y19600000D02*
X51600000Y18625000D01*
X11800000Y11600000D02*
X11800000Y12390000D01*
X13662500Y10275000D02*
X13662500Y9000000D01*
D51*
X27700000Y10790000D02*
X28155000Y11245000D01*
D50*
X42900000Y23400000D02*
X42900000Y22300000D01*
X33910000Y7510000D02*
X34910000Y7510000D01*
D51*
X27700000Y10400000D02*
X27700000Y10790000D01*
D53*
X47400000Y17390000D02*
X47387500Y17377500D01*
D51*
X20991768Y14270000D02*
X19400000Y12678232D01*
D53*
X47400000Y18200000D02*
X47400000Y17390000D01*
D50*
X45545000Y3920000D02*
X46125000Y3340000D01*
D51*
X28155000Y11245000D02*
X27700000Y11700000D01*
D50*
X4975000Y12700000D02*
X4975000Y12425000D01*
X8005000Y3995000D02*
X8900000Y3100000D01*
X6755000Y3995000D02*
X8005000Y3995000D01*
X51600000Y13600000D02*
X51600000Y15675000D01*
X40700000Y15440000D02*
X40700000Y14610000D01*
X9700000Y24020000D02*
X9810000Y23910000D01*
X45080000Y3920000D02*
X45545000Y3920000D01*
X42900000Y22300000D02*
X42850000Y22250000D01*
X9730000Y20765000D02*
X9155000Y21340000D01*
X11800000Y12390000D02*
X11810000Y12400000D01*
X52575000Y19600000D02*
X51600000Y18625000D01*
X53100000Y19600000D02*
X52575000Y19600000D01*
D53*
X47387500Y16012500D02*
X47400000Y16000000D01*
D51*
X19400000Y12678232D02*
X19400000Y12500000D01*
X21349000Y14270000D02*
X20991768Y14270000D01*
D50*
X12737500Y12400000D02*
X11810000Y12400000D01*
X42000000Y16000000D02*
X43000000Y16000000D01*
X7315000Y23020000D02*
X7315000Y24020000D01*
X4975000Y12425000D02*
X6600000Y10800000D01*
X49800000Y19600000D02*
X50625000Y19600000D01*
X38250000Y22050000D02*
X38900000Y22700000D01*
X32600000Y21300000D02*
X31600000Y21300000D01*
X41468916Y20568916D02*
X41750000Y20850000D01*
D53*
X47387500Y16922500D02*
X47387500Y16012500D01*
D50*
X7600000Y10800000D02*
X6600000Y10800000D01*
X53000000Y13600000D02*
X53000000Y14275000D01*
X9155000Y11805000D02*
X9590000Y11370000D01*
X40531084Y20568916D02*
X41468916Y20568916D01*
X28900000Y17200000D02*
X27900000Y17200000D01*
X53000000Y14275000D02*
X51600000Y15675000D01*
X29500000Y13500000D02*
X29500000Y14500000D01*
D51*
X15885000Y10652500D02*
X15885000Y9965000D01*
D50*
X50000000Y13600000D02*
X50000000Y14075000D01*
X9810000Y21995000D02*
X9155000Y21340000D01*
D52*
X35150000Y16650000D02*
X35900000Y15900000D01*
D50*
X46800000Y10100000D02*
X47800000Y10100000D01*
X27600000Y7800000D02*
X26600000Y7800000D01*
X50000000Y14075000D02*
X51600000Y15675000D01*
X12962500Y12175000D02*
X12737500Y12400000D01*
X30500000Y13500000D02*
X30500000Y14500000D01*
X29900000Y7600000D02*
X29900000Y6600000D01*
X38900000Y22700000D02*
X39400000Y22700000D01*
X39400000Y21400000D02*
X38900000Y21400000D01*
X44620000Y1900000D02*
X43620000Y1900000D01*
X29400000Y24700000D02*
X29400000Y24600000D01*
X30500000Y24000000D02*
X30000000Y24000000D01*
D51*
%TO.N,+3V3*%
X33650000Y20440000D02*
X33650000Y21230000D01*
X31150000Y13150000D02*
X30520000Y12520000D01*
X33650000Y19337500D02*
X33650000Y20440000D01*
X35860000Y9250000D02*
X35830000Y9220000D01*
X36650000Y10747042D02*
X35830000Y9927042D01*
X29830000Y18170000D02*
X29750000Y18250000D01*
X16410000Y7890000D02*
X17620000Y7890000D01*
X29830000Y17150000D02*
X29830000Y18170000D01*
X34150000Y19940000D02*
X33650000Y20440000D01*
X31250000Y11000000D02*
X31500000Y11250000D01*
X35830000Y9927042D02*
X35830000Y9220000D01*
X21349000Y16810000D02*
X21132700Y17026300D01*
X21132700Y17026300D02*
X21132700Y19132700D01*
X30400000Y11000000D02*
X31250000Y11000000D01*
X39337500Y16650000D02*
X40450000Y16650000D01*
X21132700Y19132700D02*
X21250000Y19250000D01*
D50*
X33410000Y3660000D02*
X32700000Y3660000D01*
D51*
X32462500Y13150000D02*
X31150000Y13150000D01*
D54*
X41467473Y18878090D02*
X41465563Y18880000D01*
X41465563Y18880000D02*
X40650000Y18880000D01*
D51*
X36740000Y9250000D02*
X35860000Y9250000D01*
D50*
X32700000Y3660000D02*
X31080000Y2040000D01*
D51*
X39337500Y18150000D02*
X39920000Y18150000D01*
X34150000Y19337500D02*
X34150000Y19940000D01*
X31937500Y11250000D02*
X31500000Y11250000D01*
X33150000Y12462500D02*
X31937500Y11250000D01*
X40450000Y16650000D02*
X40700000Y16400000D01*
X32462500Y17150000D02*
X29830000Y17150000D01*
X39920000Y18150000D02*
X40650000Y18880000D01*
X33650000Y21230000D02*
X33530000Y21350000D01*
X36650000Y12462500D02*
X36650000Y10747042D01*
D54*
X42166699Y18878090D02*
X41467473Y18878090D01*
D53*
%TO.N,+5V*%
X14287501Y15100000D02*
X13818750Y14631250D01*
D54*
X13818750Y16529428D02*
X13818750Y14631250D01*
D53*
X10249820Y14620000D02*
X11689820Y13180000D01*
X11689820Y13180000D02*
X13507500Y13180000D01*
D50*
X14612500Y12075000D02*
X14512500Y12175000D01*
D53*
X13648500Y13321000D02*
X13507500Y13180000D01*
D51*
X12712500Y10275000D02*
X12712500Y10937499D01*
D54*
X15825000Y12175000D02*
X16000000Y12000000D01*
D53*
X14950000Y15100000D02*
X14287501Y15100000D01*
D51*
X12712500Y10937499D02*
X13095001Y11320000D01*
D53*
X13648500Y14460999D02*
X13648500Y13321000D01*
D50*
X14612500Y11320000D02*
X14612500Y12075000D01*
D53*
X13818750Y14631250D02*
X13648500Y14460999D01*
X9730000Y14620000D02*
X10249820Y14620000D01*
X13507500Y13180000D02*
X14512500Y12175000D01*
D54*
X10928178Y19420000D02*
X13818750Y16529428D01*
X14512500Y12175000D02*
X15825000Y12175000D01*
D51*
X13095001Y11320000D02*
X14612500Y11320000D01*
D50*
X14612500Y10275000D02*
X14612500Y11320000D01*
D54*
X9730000Y19420000D02*
X10928178Y19420000D01*
D51*
%TO.N,/SWD_NRST*%
X31100000Y6850000D02*
X31100000Y5513582D01*
X25540000Y10870000D02*
X17400000Y10870000D01*
X36150000Y12462500D02*
X36150000Y12016272D01*
X27720000Y4370000D02*
X27720000Y5570000D01*
X35716540Y8083460D02*
X35716540Y6850000D01*
X17400000Y15210000D02*
X18690000Y16500000D01*
X28560000Y6470000D02*
X28560000Y7850000D01*
X35947001Y10597001D02*
X34910000Y9560000D01*
X31246000Y4832418D02*
X30783582Y4370000D01*
X31100000Y5513582D02*
X31246000Y5367582D01*
X28560000Y7850000D02*
X25540000Y10870000D01*
X30783582Y4370000D02*
X27720000Y4370000D01*
X20389000Y16500000D02*
X21349000Y15540000D01*
X34910000Y9560000D02*
X34910000Y8890000D01*
X17400000Y10870000D02*
X17400000Y15210000D01*
X27720000Y5570000D02*
X28590000Y6440000D01*
X36150000Y12016272D02*
X35947001Y11813273D01*
X35716540Y6850000D02*
X31100000Y6850000D01*
X18690000Y16500000D02*
X20389000Y16500000D01*
X34910000Y8890000D02*
X35716540Y8083460D01*
X28590000Y6440000D02*
X28560000Y6470000D01*
X35947001Y11813273D02*
X35947001Y10597001D01*
X31246000Y5367582D02*
X31246000Y4832418D01*
%TO.N,/RF*%
X41850000Y17150000D02*
X42000000Y17000000D01*
X44960000Y17000000D02*
X45000000Y16960000D01*
X46585000Y16960000D02*
X46775000Y17150000D01*
X44000000Y17000000D02*
X44960000Y17000000D01*
X39337500Y17150000D02*
X41850000Y17150000D01*
X45000000Y16960000D02*
X46585000Y16960000D01*
X42000000Y17000000D02*
X43030000Y17000000D01*
%TO.N,/LSE_IN*%
X29900000Y9300000D02*
X29900000Y8510000D01*
X29900000Y8510000D02*
X30790000Y8510000D01*
X33650000Y11236418D02*
X31713582Y9300000D01*
X33650000Y12462500D02*
X33650000Y11236418D01*
X31713582Y9300000D02*
X29900000Y9300000D01*
X30790000Y8510000D02*
X31300000Y8000000D01*
%TO.N,/LSE_OUT*%
X34150000Y8630000D02*
X34000000Y8480000D01*
X34000000Y8480000D02*
X33180000Y8480000D01*
X33180000Y8480000D02*
X32700000Y8000000D01*
X34150000Y12462500D02*
X34150000Y8630000D01*
%TO.N,/BOOT0*%
X34650000Y12462500D02*
X34650000Y11060000D01*
X42880000Y6110000D02*
X42880000Y6040000D01*
X43990000Y4930000D02*
X45030000Y4930000D01*
X42880000Y6040000D02*
X43990000Y4930000D01*
X46771000Y3001000D02*
X45690000Y1920000D01*
X45030000Y4930000D02*
X45080000Y4880000D01*
X34650000Y11060000D02*
X34650000Y10720000D01*
X45080000Y4880000D02*
X45498582Y4880000D01*
X34650000Y10720000D02*
X34890000Y10480000D01*
X45498582Y4880000D02*
X46771000Y3607582D01*
X46771000Y3607582D02*
X46771000Y3001000D01*
D52*
%TO.N,/D1_A*%
X39337500Y14650000D02*
X39790798Y14650000D01*
X40076000Y14364798D02*
X40076000Y14304000D01*
X40230000Y14150000D02*
X40230000Y13995000D01*
X39790798Y14650000D02*
X40076000Y14364798D01*
X40076000Y14304000D02*
X40230000Y14150000D01*
X40230000Y13995000D02*
X44225000Y10000000D01*
D51*
%TO.N,/RF_ANT*%
X48000000Y17150000D02*
X50075000Y17150000D01*
%TO.N,/RXCON*%
X6755000Y5245000D02*
X7510000Y6000000D01*
X38601957Y6048999D02*
X38278043Y6048999D01*
X31508042Y3899000D02*
X31188042Y3579000D01*
X40367268Y7434000D02*
X39986958Y7434000D01*
X42300000Y7980000D02*
X40616000Y7980000D01*
X31831958Y3899000D02*
X31508042Y3899000D01*
X10550958Y6000000D02*
X10550957Y5999999D01*
X40616000Y7980000D02*
X40616000Y7682732D01*
X38278043Y6048999D02*
X38278042Y6049000D01*
X38278042Y6049000D02*
X32131958Y6049000D01*
X21601000Y3579000D02*
X19180000Y6000000D01*
X19180000Y6000000D02*
X10550958Y6000000D01*
X32131958Y6049000D02*
X32061000Y5978042D01*
X31188042Y3579000D02*
X21601000Y3579000D01*
X10227043Y5999999D02*
X10550958Y6000000D01*
X32061000Y4128042D02*
X31831958Y3899000D01*
X39986958Y7434000D02*
X38601957Y6048999D01*
X32061000Y5978042D02*
X32061000Y4128042D01*
X7510000Y6000000D02*
X10227043Y5999999D01*
X40616000Y7682732D02*
X40367268Y7434000D01*
%TO.N,/TXCON*%
X31270000Y4290000D02*
X30950000Y3970000D01*
X40000000Y8000000D02*
X38440000Y6440000D01*
X31670000Y6140000D02*
X31670000Y4290000D01*
X19341958Y6391000D02*
X10389000Y6391000D01*
X21762958Y3970000D02*
X19341958Y6391000D01*
X31670000Y4290000D02*
X31270000Y4290000D01*
X38440000Y6440000D02*
X31970000Y6440000D01*
X10220000Y6560000D02*
X6820000Y6560000D01*
X10389000Y6391000D02*
X10220000Y6560000D01*
X31970000Y6440000D02*
X31670000Y6140000D01*
X6820000Y6560000D02*
X6755000Y6495000D01*
X30950000Y3970000D02*
X21762958Y3970000D01*
D52*
%TO.N,Net-(J2-CC2)*%
X8580000Y10845000D02*
X7160000Y12265000D01*
X8510000Y15270000D02*
X9730000Y15270000D01*
X7160000Y13920000D02*
X8510000Y15270000D01*
X7160000Y12265000D02*
X7160000Y13920000D01*
D53*
%TO.N,Net-(J2-D--PadA7)*%
X8930000Y16770000D02*
X9730000Y16770000D01*
X9730000Y17770000D02*
X8870000Y17770000D01*
X8870000Y17770000D02*
X8400000Y17300000D01*
X10955000Y17770000D02*
X12675000Y16050000D01*
X8400000Y17300000D02*
X8930000Y16770000D01*
X9730000Y17770000D02*
X10955000Y17770000D01*
D52*
%TO.N,Net-(J2-CC1)*%
X9121176Y18270000D02*
X9730000Y18270000D01*
X7290000Y20101176D02*
X9121176Y18270000D01*
X7290000Y21820000D02*
X7290000Y20101176D01*
X8320000Y22850000D02*
X7290000Y21820000D01*
X8320000Y23090000D02*
X8320000Y22850000D01*
D53*
%TO.N,Net-(J2-D+-PadA6)*%
X10501482Y16418518D02*
X10352964Y16270000D01*
X9730000Y17270000D02*
X10352964Y17270000D01*
X10639000Y15373796D02*
X10639000Y14826204D01*
X10639000Y14826204D02*
X11315204Y14150000D01*
X10616000Y17006964D02*
X10616000Y16533036D01*
X10501482Y16418518D02*
X10780000Y16140000D01*
X10780000Y15514796D02*
X10639000Y15373796D01*
X12050000Y14150000D02*
X12675000Y14150000D01*
X10616000Y16533036D02*
X10501482Y16418518D01*
X11315204Y14150000D02*
X12675000Y14150000D01*
X10352964Y16270000D02*
X9730000Y16270000D01*
X9730000Y16270000D02*
X9107036Y16270000D01*
X10780000Y16140000D02*
X10780000Y15514796D01*
X10352964Y17270000D02*
X10616000Y17006964D01*
D51*
%TO.N,/SWDIO*%
X22900000Y17091000D02*
X22619000Y16810000D01*
X30450000Y19250000D02*
X27250000Y19250000D01*
X22900000Y19250000D02*
X22900000Y17091000D01*
X30450000Y18650000D02*
X30450000Y19250000D01*
X26350000Y20150000D02*
X23800000Y20150000D01*
X27250000Y19250000D02*
X26350000Y20150000D01*
X23800000Y20150000D02*
X22900000Y19250000D01*
X32462500Y17650000D02*
X31450000Y17650000D01*
X31450000Y17650000D02*
X30450000Y18650000D01*
%TO.N,/SWD_TRC*%
X24053920Y13150000D02*
X22933920Y14270000D01*
X32462500Y15650000D02*
X27950000Y15650000D01*
X22933920Y14270000D02*
X22619000Y14270000D01*
X27950000Y15650000D02*
X25450000Y13150000D01*
X25450000Y13150000D02*
X24053920Y13150000D01*
%TO.N,/SWCLK*%
X32462500Y16650000D02*
X31050000Y16650000D01*
X30700000Y16300000D02*
X25500000Y16300000D01*
X31050000Y16650000D02*
X30700000Y16300000D01*
X25500000Y16300000D02*
X25300000Y16500000D01*
X25300000Y16500000D02*
X23579000Y16500000D01*
X23579000Y16500000D02*
X22619000Y15540000D01*
D50*
%TO.N,/SMPSLXL*%
X34650000Y23912500D02*
X34687500Y23950000D01*
X34650000Y22370000D02*
X34650000Y23912500D01*
D54*
%TO.N,/SMPSLX*%
X34650000Y19337500D02*
X34650000Y21400000D01*
D51*
%TO.N,/UART_TX*%
X38150000Y12462500D02*
X38150000Y12016272D01*
X38150000Y12016272D02*
X40000000Y10166272D01*
X40000000Y10166272D02*
X40000000Y9020000D01*
%TO.N,/UART_RX*%
X42112500Y9000000D02*
X42300000Y9000000D01*
X38650000Y12462500D02*
X42112500Y9000000D01*
D52*
%TO.N,Net-(R7-Pad2)*%
X43990000Y3910000D02*
X41010000Y3910000D01*
X41010000Y3910000D02*
X40910000Y3810000D01*
D55*
%TO.N,/USB_D+*%
X20975678Y20050000D02*
X20824678Y19899000D01*
X20749000Y19899000D02*
X20575322Y19899000D01*
X21750000Y20600000D02*
X21200000Y20050000D01*
X20575322Y19899000D02*
X17224678Y19899000D01*
X20824678Y19899000D02*
X20749000Y19899000D01*
X17224678Y15762179D02*
X15612499Y14150000D01*
X15612499Y14150000D02*
X14950000Y14150000D01*
X32074673Y18150000D02*
X29624673Y20600000D01*
X32462500Y18150000D02*
X32074673Y18150000D01*
X17224678Y19899000D02*
X17224678Y15762179D01*
X29624673Y20600000D02*
X21750000Y20600000D01*
X21200000Y20050000D02*
X20975678Y20050000D01*
%TO.N,/USB_D-*%
X16650000Y16050000D02*
X16900000Y16300000D01*
X16900000Y16300000D02*
X16900000Y20000000D01*
X17100000Y20200000D02*
X20700000Y20200000D01*
X20700000Y20200000D02*
X21500000Y21000000D01*
X14950000Y16050000D02*
X16650000Y16050000D01*
X30112500Y21000000D02*
X32462500Y18650000D01*
X21500000Y21000000D02*
X30112500Y21000000D01*
X16900000Y20000000D02*
X17100000Y20200000D01*
D51*
%TO.N,Net-(U3-OSC_OUT)*%
X39337500Y18650000D02*
X39700000Y19012500D01*
X42850000Y20210000D02*
X42850000Y20850000D01*
X39700000Y19600000D02*
X42240000Y19600000D01*
X42240000Y19600000D02*
X42850000Y20210000D01*
X39700000Y19012500D02*
X39700000Y19600000D01*
%TO.N,Net-(U3-OSC_IN)*%
X38650000Y20450000D02*
X38950000Y20750000D01*
X40150000Y22150000D02*
X40250000Y22250000D01*
X39800000Y20750000D02*
X40150000Y21100000D01*
X38650000Y19337500D02*
X38650000Y20450000D01*
X40250000Y22250000D02*
X41750000Y22250000D01*
X40150000Y21100000D02*
X40150000Y22150000D01*
X38950000Y20750000D02*
X39800000Y20750000D01*
%TD*%
%TA.AperFunction,Conductor*%
%TO.N,+3V3*%
G36*
X15442469Y8925701D02*
G01*
X15492247Y8876671D01*
X15507640Y8823925D01*
X15520000Y8620000D01*
X15712630Y8617734D01*
X15776262Y8599284D01*
X15851303Y8552997D01*
X16012292Y8499651D01*
X16111655Y8489500D01*
X16708344Y8489501D01*
X16708352Y8489502D01*
X16708355Y8489502D01*
X16791878Y8498034D01*
X16807708Y8499651D01*
X16968697Y8552997D01*
X17017577Y8583147D01*
X17034551Y8587854D01*
X17049140Y8596988D01*
X17084127Y8601599D01*
X17218976Y8600013D01*
X17221011Y8599970D01*
X18100789Y8573838D01*
X18167211Y8552173D01*
X18211378Y8498034D01*
X18220789Y8441059D01*
X18148082Y7423157D01*
X18123671Y7357691D01*
X18067741Y7315814D01*
X18026572Y7308011D01*
X17570000Y7300000D01*
X17311661Y7025515D01*
X17251380Y6990188D01*
X17221364Y6986500D01*
X14196835Y6986500D01*
X14129796Y7006185D01*
X14084041Y7058989D01*
X14072864Y7113166D01*
X14079530Y7423157D01*
X14096308Y8203347D01*
X14117428Y8269943D01*
X14151385Y8303776D01*
X14204662Y8339374D01*
X14323126Y8457838D01*
X14416203Y8597137D01*
X14480316Y8751918D01*
X14485735Y8779163D01*
X14518118Y8841072D01*
X14578833Y8875647D01*
X14597565Y8878585D01*
X15374087Y8940036D01*
X15442469Y8925701D01*
G37*
%TD.AperFunction*%
%TD*%
%TA.AperFunction,Conductor*%
%TO.N,/SMPSFB*%
G36*
X37343039Y24680315D02*
G01*
X37388794Y24627511D01*
X37400000Y24576000D01*
X37400000Y23051362D01*
X37380315Y22984323D01*
X37363681Y22963681D01*
X37300000Y22900001D01*
X37300000Y21254073D01*
X37280315Y21187034D01*
X37260376Y21163207D01*
X35920784Y19919300D01*
X35905299Y19907064D01*
X35897889Y19902114D01*
X35897888Y19902112D01*
X35839760Y19815117D01*
X35839758Y19815113D01*
X35824500Y19738406D01*
X35824500Y19738404D01*
X35824500Y19738402D01*
X35824500Y19738401D01*
X35824500Y19373999D01*
X35821950Y19365314D01*
X35823239Y19356353D01*
X35812261Y19332317D01*
X35804817Y19306961D01*
X35797974Y19301033D01*
X35794214Y19292797D01*
X35771982Y19278511D01*
X35752013Y19261206D01*
X35741497Y19258919D01*
X35735436Y19255023D01*
X35700501Y19250000D01*
X35599500Y19250000D01*
X35532461Y19269685D01*
X35486706Y19322489D01*
X35475500Y19374000D01*
X35475499Y19738398D01*
X35475499Y19738400D01*
X35460240Y19815117D01*
X35460239Y19815119D01*
X35460237Y19815124D01*
X35420898Y19873999D01*
X35415247Y19892044D01*
X35405023Y19907954D01*
X35400571Y19938916D01*
X35400020Y19940676D01*
X35400000Y19942889D01*
X35400000Y20096116D01*
X35419685Y20163155D01*
X35439393Y20186767D01*
X36149999Y20849999D01*
X36149999Y20850000D01*
X36150000Y20850000D01*
X36150000Y24576000D01*
X36169685Y24643039D01*
X36222489Y24688794D01*
X36274000Y24700000D01*
X37276000Y24700000D01*
X37343039Y24680315D01*
G37*
%TD.AperFunction*%
%TD*%
M02*
