%TF.GenerationSoftware,KiCad,Pcbnew,9.0.0*%
%TF.CreationDate,2026-07-28T23:24:21-03:00*%
%TF.ProjectId,Phil_Tutorial,5068696c-5f54-4757-946f-7269616c2e6b,rev?*%
%TF.SameCoordinates,PX38444c0PY5a995c0*%
%TF.FileFunction,Legend,Top*%
%TF.FilePolarity,Positive*%
%FSLAX46Y46*%
G04 Gerber Fmt 4.6, Leading zero omitted, Abs format (unit mm)*
G04 Created by KiCad (PCBNEW 9.0.0) date 2026-07-28 23:24:21*
%MOMM*%
%LPD*%
G01*
G04 APERTURE LIST*
%ADD10C,0.200000*%
%ADD11C,0.150000*%
%ADD12C,0.100000*%
%ADD13C,0.120000*%
G04 APERTURE END LIST*
D10*
G36*
X21340454Y23758223D02*
G01*
X21374961Y23740354D01*
X21405103Y23709481D01*
X21425769Y23674635D01*
X21441815Y23629953D01*
X21452434Y23573216D01*
X21456333Y23501813D01*
X21450812Y23419359D01*
X21435885Y23355501D01*
X21413346Y23306480D01*
X21388020Y23273141D01*
X21359476Y23250541D01*
X21327119Y23237098D01*
X21289698Y23232474D01*
X21253279Y23237155D01*
X21220357Y23251039D01*
X21189851Y23274878D01*
X21161239Y23310639D01*
X21134604Y23361312D01*
X21134604Y23632056D01*
X21162676Y23683713D01*
X21192985Y23720397D01*
X21225490Y23745013D01*
X21260769Y23759434D01*
X21299957Y23764313D01*
X21340454Y23758223D01*
G37*
G36*
X21554087Y25454404D02*
G01*
X21591953Y25438848D01*
X21622535Y25413553D01*
X21646910Y25377043D01*
X21664827Y25326324D01*
X21674747Y25257223D01*
X21330426Y25257223D01*
X21338874Y25314651D01*
X21354408Y25360923D01*
X21376221Y25398090D01*
X21401730Y25425092D01*
X21431360Y25444139D01*
X21465923Y25455842D01*
X21506708Y25459945D01*
X21554087Y25454404D01*
G37*
G36*
X23456250Y25454404D02*
G01*
X23494117Y25438848D01*
X23524698Y25413553D01*
X23549074Y25377043D01*
X23566990Y25326324D01*
X23576911Y25257223D01*
X23232589Y25257223D01*
X23241037Y25314651D01*
X23256571Y25360923D01*
X23278385Y25398090D01*
X23303894Y25425092D01*
X23333523Y25444139D01*
X23368086Y25455842D01*
X23408871Y25459945D01*
X23456250Y25454404D01*
G37*
G36*
X26360546Y25032886D02*
G01*
X26329565Y24984107D01*
X26296545Y24948956D01*
X26261363Y24925068D01*
X26223395Y24910964D01*
X26181577Y24906185D01*
X26134501Y24911537D01*
X26101373Y24925783D01*
X26078445Y24947868D01*
X26063968Y24979057D01*
X26058601Y25022628D01*
X26063441Y25059404D01*
X26077329Y25089807D01*
X26100591Y25115403D01*
X26135165Y25136771D01*
X26184325Y25153420D01*
X26272711Y25169361D01*
X26360546Y25176012D01*
X26360546Y25032886D01*
G37*
G36*
X28279848Y22735338D02*
G01*
X19774741Y22735338D01*
X19774741Y23632056D01*
X20959726Y23632056D01*
X20959726Y23361312D01*
X20959726Y23116093D01*
X21085450Y23116093D01*
X21120927Y23233329D01*
X21152309Y23182627D01*
X21188810Y23144990D01*
X21230778Y23118478D01*
X21279307Y23102231D01*
X21336104Y23096553D01*
X21393138Y23102335D01*
X21444613Y23119266D01*
X21491816Y23147514D01*
X21535590Y23188266D01*
X21570415Y23234743D01*
X21598230Y23288412D01*
X21618950Y23350344D01*
X21632073Y23421876D01*
X21636706Y23504561D01*
X21631472Y23594936D01*
X21616825Y23670993D01*
X21593980Y23734930D01*
X21563617Y23788615D01*
X21519942Y23838563D01*
X21470026Y23873242D01*
X21435358Y23885946D01*
X21733488Y23885946D01*
X21993789Y23130808D01*
X21982860Y23097286D01*
X21962807Y23051702D01*
X21938514Y23018961D01*
X21910113Y22996526D01*
X21876883Y22982995D01*
X21837352Y22978279D01*
X21791366Y22980563D01*
X21738983Y22987865D01*
X21745761Y22853959D01*
X21792153Y22848360D01*
X21841443Y22846449D01*
X21914300Y22852334D01*
X21973526Y22868688D01*
X22021755Y22894320D01*
X22057642Y22924538D01*
X22091092Y22965623D01*
X22122072Y23019655D01*
X22150166Y23089226D01*
X22420726Y23885946D01*
X22883994Y23885946D01*
X22883994Y23758879D01*
X23008313Y23758879D01*
X23008313Y23116093D01*
X23183191Y23116093D01*
X23183191Y23289078D01*
X23426640Y23289078D01*
X23454559Y23230789D01*
X23491157Y23184163D01*
X23536895Y23147560D01*
X23593189Y23120323D01*
X23662272Y23102849D01*
X23747026Y23096553D01*
X23818580Y23100795D01*
X23878351Y23112630D01*
X23928205Y23131041D01*
X23969714Y23155477D01*
X24008377Y23190337D01*
X24035489Y23230786D01*
X24052080Y23277916D01*
X24057886Y23333530D01*
X24052240Y23390251D01*
X24036495Y23435817D01*
X24011418Y23472626D01*
X23982390Y23496989D01*
X24188067Y23496989D01*
X24193736Y23409135D01*
X24209704Y23334484D01*
X24234859Y23270958D01*
X24268728Y23216843D01*
X24308616Y23174017D01*
X24354331Y23140909D01*
X24406669Y23116842D01*
X24466858Y23101824D01*
X24536480Y23096553D01*
X24611773Y23103054D01*
X24675729Y23121507D01*
X24730469Y23151141D01*
X24771209Y23185587D01*
X24804821Y23227870D01*
X24831626Y23279067D01*
X24851370Y23340735D01*
X24687422Y23385737D01*
X24671384Y23322038D01*
X24648418Y23277906D01*
X24619607Y23248553D01*
X24584369Y23231086D01*
X24540571Y23224964D01*
X24490588Y23231789D01*
X24450667Y23251173D01*
X24418297Y23283565D01*
X24392739Y23332052D01*
X24375167Y23401842D01*
X24368440Y23499737D01*
X24375152Y23597039D01*
X24392693Y23666444D01*
X24418221Y23714700D01*
X24450580Y23746969D01*
X24490524Y23766296D01*
X24540571Y23773106D01*
X24580158Y23767319D01*
X24612421Y23750658D01*
X24639227Y23722306D01*
X24660966Y23679158D01*
X24676492Y23616302D01*
X24847279Y23655381D01*
X24825188Y23725741D01*
X24793257Y23782855D01*
X24751658Y23828915D01*
X24708505Y23859956D01*
X24659087Y23882534D01*
X24645326Y23885946D01*
X24927818Y23885946D01*
X24927818Y23757535D01*
X25042551Y23757535D01*
X25042551Y23304465D01*
X25048386Y23240494D01*
X25064146Y23192366D01*
X25088346Y23156393D01*
X25115549Y23133514D01*
X25151149Y23116114D01*
X25197213Y23104673D01*
X25256385Y23100461D01*
X25333026Y23102852D01*
X25393650Y23109315D01*
X25400489Y23235039D01*
X25360584Y23228557D01*
X25311035Y23226185D01*
X25276243Y23230786D01*
X25250946Y23243348D01*
X25232664Y23263640D01*
X25220649Y23293557D01*
X25216085Y23336705D01*
X25216085Y23757535D01*
X25388215Y23757535D01*
X25388215Y23885946D01*
X25537814Y23885946D01*
X25537814Y23116093D01*
X25714096Y23116093D01*
X25714096Y23619966D01*
X25750999Y23671593D01*
X25791949Y23710946D01*
X25828044Y23733879D01*
X25861446Y23746555D01*
X25893065Y23750574D01*
X25931758Y23745304D01*
X25960080Y23730836D01*
X25980727Y23707267D01*
X25994400Y23672222D01*
X25999616Y23621370D01*
X25999616Y23116093D01*
X26179929Y23116093D01*
X26402434Y23116093D01*
X26578716Y23116093D01*
X26578716Y23618378D01*
X26615616Y23670080D01*
X26656569Y23709542D01*
X26692758Y23733372D01*
X26726142Y23746488D01*
X26757685Y23750636D01*
X26796358Y23745359D01*
X26824676Y23730869D01*
X26845330Y23707253D01*
X26859014Y23672122D01*
X26864236Y23621126D01*
X26864236Y23116093D01*
X27044548Y23116093D01*
X27044548Y23671501D01*
X27037990Y23736544D01*
X27019542Y23789813D01*
X26989899Y23833800D01*
X26957669Y23863029D01*
X26920248Y23883989D01*
X26876605Y23897001D01*
X26825279Y23901578D01*
X26770965Y23896098D01*
X26720026Y23879803D01*
X26671428Y23852216D01*
X26624446Y23811988D01*
X26578716Y23756986D01*
X26578716Y24222024D01*
X26402434Y24222024D01*
X26402434Y23116093D01*
X26179929Y23116093D01*
X26179929Y23670524D01*
X26173354Y23735935D01*
X26154892Y23789306D01*
X26125279Y23833190D01*
X26093011Y23862710D01*
X26055575Y23883854D01*
X26011946Y23896967D01*
X25960660Y23901578D01*
X25916038Y23897605D01*
X25872299Y23885625D01*
X25828830Y23865185D01*
X25785264Y23834925D01*
X25745256Y23796554D01*
X25708601Y23749170D01*
X25708601Y23885946D01*
X25537814Y23885946D01*
X25388215Y23885946D01*
X25216085Y23885946D01*
X25216085Y24136051D01*
X25042551Y24096544D01*
X25042551Y23885946D01*
X24927818Y23885946D01*
X24645326Y23885946D01*
X24602242Y23896629D01*
X24536480Y23901578D01*
X24462988Y23895232D01*
X24399315Y23877065D01*
X24343648Y23847652D01*
X24294679Y23806567D01*
X24257808Y23761446D01*
X24228497Y23709156D01*
X24206721Y23648620D01*
X24192937Y23578446D01*
X24188067Y23496989D01*
X23982390Y23496989D01*
X23972294Y23505462D01*
X23910800Y23537489D01*
X23819444Y23567820D01*
X23755208Y23584917D01*
X23684804Y23608031D01*
X23649328Y23627415D01*
X23632696Y23645478D01*
X23622357Y23669084D01*
X23618615Y23700016D01*
X23625489Y23729829D01*
X23646642Y23754482D01*
X23670370Y23768804D01*
X23700529Y23778002D01*
X23738843Y23781349D01*
X23779036Y23776418D01*
X23811487Y23762471D01*
X23838025Y23739556D01*
X23859457Y23706129D01*
X23875436Y23659289D01*
X24042132Y23706794D01*
X24015124Y23766753D01*
X23980054Y23814196D01*
X23936708Y23851016D01*
X23883934Y23878132D01*
X23819767Y23895390D01*
X23741591Y23901578D01*
X23658476Y23894751D01*
X23591453Y23875838D01*
X23537343Y23846257D01*
X23500115Y23812998D01*
X23474316Y23775403D01*
X23458724Y23732601D01*
X23453324Y23683102D01*
X23458670Y23624461D01*
X23473365Y23578501D01*
X23496310Y23542480D01*
X23533225Y23510156D01*
X23591599Y23478907D01*
X23678699Y23449606D01*
X23742935Y23431899D01*
X23822474Y23405636D01*
X23858400Y23388179D01*
X23876192Y23370804D01*
X23887195Y23347564D01*
X23891190Y23316494D01*
X23885888Y23281470D01*
X23871034Y23255194D01*
X23846072Y23235430D01*
X23807823Y23221989D01*
X23751117Y23216782D01*
X23704425Y23222150D01*
X23666526Y23237303D01*
X23635414Y23261994D01*
X23610061Y23297546D01*
X23590588Y23346658D01*
X23426640Y23289078D01*
X23183191Y23289078D01*
X23183191Y23758879D01*
X23342315Y23758879D01*
X23342315Y23885946D01*
X23183191Y23885946D01*
X23183191Y23989078D01*
X23187569Y24029647D01*
X23199128Y24057891D01*
X23216808Y24077154D01*
X23241410Y24089146D01*
X23275393Y24093552D01*
X23338224Y24087446D01*
X23358069Y24213170D01*
X23296856Y24219841D01*
X23237840Y24222024D01*
X23172339Y24216720D01*
X23121193Y24202234D01*
X23081405Y24179926D01*
X23050788Y24150016D01*
X23028184Y24111557D01*
X23013620Y24062568D01*
X23008313Y24000252D01*
X23008313Y23885946D01*
X22883994Y23885946D01*
X22420726Y23885946D01*
X22245848Y23885946D01*
X22157737Y23566599D01*
X22124948Y23446187D01*
X22088739Y23311487D01*
X22075061Y23311487D01*
X22010825Y23563851D01*
X21919295Y23885946D01*
X21733488Y23885946D01*
X21435358Y23885946D01*
X21412646Y23894269D01*
X21345691Y23901578D01*
X21289190Y23894529D01*
X21235049Y23873184D01*
X21196788Y23847621D01*
X21163423Y23815611D01*
X21134604Y23776525D01*
X21134604Y24222024D01*
X20959726Y24222024D01*
X20959726Y23632056D01*
X19774741Y23632056D01*
X19774741Y24796093D01*
X19885852Y24796093D01*
X20052486Y24796093D01*
X20052486Y25342464D01*
X20048395Y25728795D01*
X20068240Y25728795D01*
X20160442Y25352050D01*
X20303202Y24796093D01*
X20523875Y24796093D01*
X20670726Y25358889D01*
X20708512Y25505525D01*
X20760241Y25728795D01*
X20780025Y25728795D01*
X20777277Y25345212D01*
X20777277Y24796093D01*
X20957650Y24796093D01*
X20957650Y25175646D01*
X21155548Y25175646D01*
X21161460Y25087218D01*
X21178088Y25012448D01*
X21204272Y24949122D01*
X21239568Y24895438D01*
X21280341Y24853501D01*
X21327544Y24820817D01*
X21382095Y24796879D01*
X21445341Y24781850D01*
X21518981Y24776553D01*
X21601933Y24783466D01*
X21670448Y24802831D01*
X21727265Y24833470D01*
X21774382Y24875446D01*
X21812876Y24930049D01*
X21842786Y24999669D01*
X21682929Y25046197D01*
X21662305Y24989424D01*
X21635980Y24949130D01*
X21604386Y24921759D01*
X21566716Y24905291D01*
X21521057Y24899529D01*
X21465410Y24906354D01*
X21420470Y24925659D01*
X21383732Y24957354D01*
X21354639Y25003100D01*
X21335428Y25063011D01*
X21327739Y25141086D01*
X21846877Y25141086D01*
X21846877Y25177417D01*
X21840871Y25266613D01*
X21823916Y25342610D01*
X21797110Y25407519D01*
X21760843Y25463059D01*
X21720329Y25505786D01*
X21675182Y25538504D01*
X21624780Y25562025D01*
X21609473Y25565946D01*
X22024625Y25565946D01*
X22024625Y24796093D01*
X22198160Y24796093D01*
X22198160Y25221380D01*
X22233454Y25298330D01*
X22272709Y25352322D01*
X22315571Y25388202D01*
X22362780Y25409130D01*
X22416085Y25416225D01*
X22426590Y25565946D01*
X22494182Y25565946D01*
X22494182Y25437535D01*
X22608915Y25437535D01*
X22608915Y24984465D01*
X22614750Y24920494D01*
X22630510Y24872366D01*
X22654711Y24836393D01*
X22681913Y24813514D01*
X22717514Y24796114D01*
X22763577Y24784673D01*
X22822750Y24780461D01*
X22899390Y24782852D01*
X22960014Y24789315D01*
X22966853Y24915039D01*
X22926949Y24908557D01*
X22877399Y24906185D01*
X22842607Y24910786D01*
X22817311Y24923348D01*
X22799028Y24943640D01*
X22787013Y24973557D01*
X22782450Y25016705D01*
X22782450Y25175646D01*
X23057711Y25175646D01*
X23063623Y25087218D01*
X23080251Y25012448D01*
X23106435Y24949122D01*
X23141731Y24895438D01*
X23182504Y24853501D01*
X23229708Y24820817D01*
X23284258Y24796879D01*
X23347504Y24781850D01*
X23421145Y24776553D01*
X23504096Y24783466D01*
X23572611Y24802831D01*
X23629428Y24833470D01*
X23676545Y24875446D01*
X23715039Y24930049D01*
X23744950Y24999669D01*
X23585093Y25046197D01*
X23564468Y24989424D01*
X23538143Y24949130D01*
X23506549Y24921759D01*
X23468880Y24905291D01*
X23423221Y24899529D01*
X23367573Y24906354D01*
X23322633Y24925659D01*
X23285895Y24957354D01*
X23256802Y25003100D01*
X23237591Y25063011D01*
X23229903Y25141086D01*
X23749041Y25141086D01*
X23749041Y25177417D01*
X23743034Y25266613D01*
X23726079Y25342610D01*
X23699274Y25407519D01*
X23663006Y25463059D01*
X23622493Y25505786D01*
X23577346Y25538504D01*
X23526943Y25562025D01*
X23511636Y25565946D01*
X23926788Y25565946D01*
X23926788Y24796093D01*
X24103071Y24796093D01*
X24103071Y25299966D01*
X24139973Y25351593D01*
X24180923Y25390946D01*
X24217019Y25413879D01*
X24250420Y25426555D01*
X24282040Y25430574D01*
X24320733Y25425304D01*
X24349055Y25410836D01*
X24369701Y25387267D01*
X24383374Y25352222D01*
X24388591Y25301370D01*
X24388591Y24796093D01*
X24568903Y24796093D01*
X24568903Y24969078D01*
X24729920Y24969078D01*
X24757838Y24910789D01*
X24794437Y24864163D01*
X24840175Y24827560D01*
X24896469Y24800323D01*
X24965552Y24782849D01*
X25050306Y24776553D01*
X25121859Y24780795D01*
X25181631Y24792630D01*
X25191008Y24796093D01*
X25536471Y24796093D01*
X25712692Y24796093D01*
X25712692Y25008950D01*
X25890562Y25008950D01*
X25897326Y24946446D01*
X25916567Y24894298D01*
X25947959Y24850253D01*
X25982551Y24820356D01*
X26023056Y24798740D01*
X26070645Y24785232D01*
X26126928Y24780461D01*
X26189893Y24785543D01*
X26244237Y24800036D01*
X26291475Y24823347D01*
X26332746Y24855614D01*
X26368728Y24897698D01*
X26381734Y24796093D01*
X26543606Y24796093D01*
X26534370Y24911541D01*
X26531663Y25011576D01*
X26691679Y25011576D01*
X26715930Y24948007D01*
X26747431Y24896264D01*
X26786039Y24854570D01*
X26832291Y24821784D01*
X26887355Y24797496D01*
X26952936Y24782056D01*
X27031176Y24776553D01*
X27102053Y24781780D01*
X27163921Y24796723D01*
X27218250Y24820733D01*
X27266199Y24853795D01*
X27312604Y24901868D01*
X27323676Y24920412D01*
X27506778Y24920412D01*
X27506778Y24796093D01*
X28168737Y24796093D01*
X28168737Y24936166D01*
X27688495Y24936166D01*
X27719999Y24988696D01*
X27770326Y25053903D01*
X27844628Y25134378D01*
X27948735Y25232921D01*
X28023807Y25306810D01*
X28076493Y25366689D01*
X28111340Y25414821D01*
X28141140Y25472715D01*
X28158710Y25532326D01*
X28164585Y25594645D01*
X28159356Y25657354D01*
X28144474Y25711083D01*
X28120557Y25757457D01*
X28087404Y25797671D01*
X28042407Y25833452D01*
X27988411Y25859797D01*
X27923601Y25876516D01*
X27845604Y25882485D01*
X27783603Y25878035D01*
X27728690Y25865241D01*
X27679741Y25844582D01*
X27635860Y25816051D01*
X27591769Y25773649D01*
X27557206Y25722343D01*
X27531865Y25660677D01*
X27516303Y25586585D01*
X27691181Y25550315D01*
X27700729Y25617385D01*
X27717444Y25666248D01*
X27739801Y25701059D01*
X27767421Y25724884D01*
X27801137Y25739368D01*
X27842856Y25744488D01*
X27881622Y25740410D01*
X27913466Y25728901D01*
X27939882Y25710294D01*
X27963109Y25681181D01*
X27977669Y25643938D01*
X27982929Y25596110D01*
X27975739Y25535165D01*
X27954903Y25482537D01*
X27909486Y25419323D01*
X27812143Y25317063D01*
X27706201Y25207721D01*
X27621671Y25105638D01*
X27555960Y25010117D01*
X27506778Y24920412D01*
X27323676Y24920412D01*
X27345482Y24956934D01*
X27365689Y25020386D01*
X27372750Y25094313D01*
X27366710Y25158662D01*
X27349471Y25213631D01*
X27321520Y25261070D01*
X27289639Y25295773D01*
X27250725Y25324392D01*
X27203756Y25347102D01*
X27147314Y25363591D01*
X27147314Y25373177D01*
X27204482Y25388861D01*
X27251759Y25413279D01*
X27290806Y25446328D01*
X27324098Y25493232D01*
X27344436Y25548303D01*
X27351562Y25613818D01*
X27346620Y25667064D01*
X27332272Y25714511D01*
X27308639Y25757326D01*
X27275053Y25796328D01*
X27227997Y25832955D01*
X27172800Y25859707D01*
X27107883Y25876530D01*
X27031176Y25882485D01*
X26956141Y25876427D01*
X26891412Y25859154D01*
X26835171Y25831377D01*
X26791958Y25798051D01*
X26756659Y25757796D01*
X26728707Y25709829D01*
X26708104Y25652897D01*
X26880234Y25601117D01*
X26890241Y25644496D01*
X26905870Y25679067D01*
X26926701Y25706447D01*
X26955330Y25728937D01*
X26988777Y25742508D01*
X27028489Y25747235D01*
X27069596Y25743184D01*
X27102982Y25731838D01*
X27130278Y25713713D01*
X27154526Y25684817D01*
X27169788Y25646998D01*
X27175340Y25597453D01*
X27169591Y25544755D01*
X27153794Y25504373D01*
X27128751Y25473377D01*
X27093381Y25450194D01*
X27044913Y25434892D01*
X26979274Y25429170D01*
X26905513Y25429170D01*
X26905513Y25286410D01*
X26986785Y25286410D01*
X27054849Y25280091D01*
X27105614Y25263069D01*
X27143176Y25236969D01*
X27170184Y25201542D01*
X27187448Y25154722D01*
X27193781Y25092970D01*
X27189045Y25041868D01*
X27175818Y25000351D01*
X27154824Y24966452D01*
X27122258Y24936949D01*
X27081451Y24918902D01*
X27029833Y24912474D01*
X26987542Y24916223D01*
X26953751Y24926600D01*
X26926701Y24942883D01*
X26901637Y24969024D01*
X26880224Y25007466D01*
X26863137Y25061829D01*
X26691679Y25011576D01*
X26531663Y25011576D01*
X26531333Y25023788D01*
X26531333Y25329641D01*
X26524843Y25399599D01*
X26506881Y25455247D01*
X26478606Y25499639D01*
X26439621Y25534798D01*
X26388035Y25561469D01*
X26320696Y25579013D01*
X26233479Y25585485D01*
X26146982Y25578581D01*
X26077365Y25559480D01*
X26021342Y25529707D01*
X25976466Y25489496D01*
X25941354Y25437770D01*
X25915841Y25372261D01*
X26080461Y25327565D01*
X26091022Y25366641D01*
X26106806Y25398539D01*
X26127600Y25424468D01*
X26156086Y25446266D01*
X26188888Y25459371D01*
X26227312Y25463914D01*
X26270298Y25460341D01*
X26301709Y25450852D01*
X26324337Y25436619D01*
X26343227Y25412636D01*
X26355776Y25377811D01*
X26360546Y25328237D01*
X26360546Y25284578D01*
X26238351Y25276645D01*
X26141277Y25262719D01*
X26057593Y25239566D01*
X25994954Y25208536D01*
X25949113Y25170682D01*
X25917090Y25125858D01*
X25897466Y25072730D01*
X25892043Y25022628D01*
X25890562Y25008950D01*
X25712692Y25008950D01*
X25712692Y25565946D01*
X25536471Y25565946D01*
X25536471Y24796093D01*
X25191008Y24796093D01*
X25231485Y24811041D01*
X25272994Y24835477D01*
X25311657Y24870337D01*
X25338768Y24910786D01*
X25355360Y24957916D01*
X25361166Y25013530D01*
X25355520Y25070251D01*
X25339775Y25115817D01*
X25314698Y25152626D01*
X25275574Y25185462D01*
X25214080Y25217489D01*
X25122724Y25247820D01*
X25058488Y25264917D01*
X24988084Y25288031D01*
X24952608Y25307415D01*
X24935976Y25325478D01*
X24925637Y25349084D01*
X24921895Y25380016D01*
X24928769Y25409829D01*
X24949922Y25434482D01*
X24973650Y25448804D01*
X25003809Y25458002D01*
X25042123Y25461349D01*
X25082316Y25456418D01*
X25114767Y25442471D01*
X25141305Y25419556D01*
X25162737Y25386129D01*
X25178716Y25339289D01*
X25345412Y25386794D01*
X25318404Y25446753D01*
X25283334Y25494196D01*
X25239988Y25531016D01*
X25187214Y25558132D01*
X25123047Y25575390D01*
X25044871Y25581578D01*
X24961756Y25574751D01*
X24894733Y25555838D01*
X24840623Y25526257D01*
X24803395Y25492998D01*
X24777596Y25455403D01*
X24762004Y25412601D01*
X24756603Y25363102D01*
X24761950Y25304461D01*
X24776645Y25258501D01*
X24799590Y25222480D01*
X24836505Y25190156D01*
X24894879Y25158907D01*
X24981979Y25129606D01*
X25046214Y25111899D01*
X25125753Y25085636D01*
X25161680Y25068179D01*
X25179472Y25050804D01*
X25190475Y25027564D01*
X25194470Y24996494D01*
X25189168Y24961470D01*
X25174314Y24935194D01*
X25149352Y24915430D01*
X25111103Y24901989D01*
X25054397Y24896782D01*
X25007704Y24902150D01*
X24969806Y24917303D01*
X24938694Y24941994D01*
X24913341Y24977546D01*
X24893868Y25026658D01*
X24729920Y24969078D01*
X24568903Y24969078D01*
X24568903Y25350524D01*
X24562329Y25415935D01*
X24543866Y25469306D01*
X24514254Y25513190D01*
X24481985Y25542710D01*
X24444549Y25563854D01*
X24400920Y25576967D01*
X24349634Y25581578D01*
X24305012Y25577605D01*
X24261273Y25565625D01*
X24217804Y25545185D01*
X24174238Y25514925D01*
X24134230Y25476554D01*
X24097575Y25429170D01*
X24097575Y25565946D01*
X23926788Y25565946D01*
X23511636Y25565946D01*
X23470298Y25576535D01*
X23406124Y25581578D01*
X23334887Y25575281D01*
X23272300Y25557137D01*
X23216731Y25527537D01*
X23167010Y25485895D01*
X23129038Y25440066D01*
X23098966Y25387302D01*
X23076706Y25326578D01*
X23062796Y25257223D01*
X23062662Y25256556D01*
X23057711Y25175646D01*
X22782450Y25175646D01*
X22782450Y25437535D01*
X22954580Y25437535D01*
X22954580Y25565946D01*
X22782450Y25565946D01*
X22782450Y25702173D01*
X25529632Y25702173D01*
X25720203Y25702173D01*
X25720203Y25882485D01*
X25529632Y25882485D01*
X25529632Y25702173D01*
X22782450Y25702173D01*
X22782450Y25816051D01*
X22608915Y25776544D01*
X22608915Y25565946D01*
X22494182Y25565946D01*
X22426590Y25565946D01*
X22427687Y25581578D01*
X22377160Y25576254D01*
X22332206Y25560729D01*
X22291528Y25534852D01*
X22254323Y25497409D01*
X22220358Y25446235D01*
X22189978Y25378368D01*
X22189978Y25565946D01*
X22024625Y25565946D01*
X21609473Y25565946D01*
X21568135Y25576535D01*
X21503960Y25581578D01*
X21432724Y25575281D01*
X21370137Y25557137D01*
X21314568Y25527537D01*
X21264847Y25485895D01*
X21226874Y25440066D01*
X21196803Y25387302D01*
X21174542Y25326578D01*
X21160632Y25257223D01*
X21160498Y25256556D01*
X21155548Y25175646D01*
X20957650Y25175646D01*
X20957650Y25882485D01*
X20650210Y25882485D01*
X20511541Y25324207D01*
X20471241Y25155740D01*
X20427521Y24968040D01*
X20407737Y24968040D01*
X20372459Y25142462D01*
X20329152Y25326954D01*
X20192560Y25882485D01*
X19885852Y25882485D01*
X19885852Y24796093D01*
X19774741Y24796093D01*
X19774741Y25993596D01*
X28279848Y25993596D01*
X28279848Y22735338D01*
G37*
D11*
X52788095Y25395181D02*
X52788095Y26395181D01*
X52788095Y25918991D02*
X53359523Y25918991D01*
X53359523Y25395181D02*
X53359523Y26395181D01*
X53740476Y26395181D02*
X54359523Y26395181D01*
X54359523Y26395181D02*
X54026190Y26014229D01*
X54026190Y26014229D02*
X54169047Y26014229D01*
X54169047Y26014229D02*
X54264285Y25966610D01*
X54264285Y25966610D02*
X54311904Y25918991D01*
X54311904Y25918991D02*
X54359523Y25823753D01*
X54359523Y25823753D02*
X54359523Y25585658D01*
X54359523Y25585658D02*
X54311904Y25490420D01*
X54311904Y25490420D02*
X54264285Y25442800D01*
X54264285Y25442800D02*
X54169047Y25395181D01*
X54169047Y25395181D02*
X53883333Y25395181D01*
X53883333Y25395181D02*
X53788095Y25442800D01*
X53788095Y25442800D02*
X53740476Y25490420D01*
X30758333Y20925420D02*
X30710714Y20877800D01*
X30710714Y20877800D02*
X30567857Y20830181D01*
X30567857Y20830181D02*
X30472619Y20830181D01*
X30472619Y20830181D02*
X30329762Y20877800D01*
X30329762Y20877800D02*
X30234524Y20973039D01*
X30234524Y20973039D02*
X30186905Y21068277D01*
X30186905Y21068277D02*
X30139286Y21258753D01*
X30139286Y21258753D02*
X30139286Y21401610D01*
X30139286Y21401610D02*
X30186905Y21592086D01*
X30186905Y21592086D02*
X30234524Y21687324D01*
X30234524Y21687324D02*
X30329762Y21782562D01*
X30329762Y21782562D02*
X30472619Y21830181D01*
X30472619Y21830181D02*
X30567857Y21830181D01*
X30567857Y21830181D02*
X30710714Y21782562D01*
X30710714Y21782562D02*
X30758333Y21734943D01*
X31139286Y21734943D02*
X31186905Y21782562D01*
X31186905Y21782562D02*
X31282143Y21830181D01*
X31282143Y21830181D02*
X31520238Y21830181D01*
X31520238Y21830181D02*
X31615476Y21782562D01*
X31615476Y21782562D02*
X31663095Y21734943D01*
X31663095Y21734943D02*
X31710714Y21639705D01*
X31710714Y21639705D02*
X31710714Y21544467D01*
X31710714Y21544467D02*
X31663095Y21401610D01*
X31663095Y21401610D02*
X31091667Y20830181D01*
X31091667Y20830181D02*
X31710714Y20830181D01*
X35583333Y25245181D02*
X35107143Y25245181D01*
X35107143Y25245181D02*
X35107143Y26245181D01*
X36440476Y25245181D02*
X35869048Y25245181D01*
X36154762Y25245181D02*
X36154762Y26245181D01*
X36154762Y26245181D02*
X36059524Y26102324D01*
X36059524Y26102324D02*
X35964286Y26007086D01*
X35964286Y26007086D02*
X35869048Y25959467D01*
X13038095Y18145181D02*
X13038095Y17335658D01*
X13038095Y17335658D02*
X13085714Y17240420D01*
X13085714Y17240420D02*
X13133333Y17192800D01*
X13133333Y17192800D02*
X13228571Y17145181D01*
X13228571Y17145181D02*
X13419047Y17145181D01*
X13419047Y17145181D02*
X13514285Y17192800D01*
X13514285Y17192800D02*
X13561904Y17240420D01*
X13561904Y17240420D02*
X13609523Y17335658D01*
X13609523Y17335658D02*
X13609523Y18145181D01*
X14038095Y18049943D02*
X14085714Y18097562D01*
X14085714Y18097562D02*
X14180952Y18145181D01*
X14180952Y18145181D02*
X14419047Y18145181D01*
X14419047Y18145181D02*
X14514285Y18097562D01*
X14514285Y18097562D02*
X14561904Y18049943D01*
X14561904Y18049943D02*
X14609523Y17954705D01*
X14609523Y17954705D02*
X14609523Y17859467D01*
X14609523Y17859467D02*
X14561904Y17716610D01*
X14561904Y17716610D02*
X13990476Y17145181D01*
X13990476Y17145181D02*
X14609523Y17145181D01*
X38607142Y23120420D02*
X38559523Y23072800D01*
X38559523Y23072800D02*
X38416666Y23025181D01*
X38416666Y23025181D02*
X38321428Y23025181D01*
X38321428Y23025181D02*
X38178571Y23072800D01*
X38178571Y23072800D02*
X38083333Y23168039D01*
X38083333Y23168039D02*
X38035714Y23263277D01*
X38035714Y23263277D02*
X37988095Y23453753D01*
X37988095Y23453753D02*
X37988095Y23596610D01*
X37988095Y23596610D02*
X38035714Y23787086D01*
X38035714Y23787086D02*
X38083333Y23882324D01*
X38083333Y23882324D02*
X38178571Y23977562D01*
X38178571Y23977562D02*
X38321428Y24025181D01*
X38321428Y24025181D02*
X38416666Y24025181D01*
X38416666Y24025181D02*
X38559523Y23977562D01*
X38559523Y23977562D02*
X38607142Y23929943D01*
X39559523Y23025181D02*
X38988095Y23025181D01*
X39273809Y23025181D02*
X39273809Y24025181D01*
X39273809Y24025181D02*
X39178571Y23882324D01*
X39178571Y23882324D02*
X39083333Y23787086D01*
X39083333Y23787086D02*
X38988095Y23739467D01*
X40416666Y23691848D02*
X40416666Y23025181D01*
X40178571Y24072800D02*
X39940476Y23358515D01*
X39940476Y23358515D02*
X40559523Y23358515D01*
X29233333Y21340420D02*
X29185714Y21292800D01*
X29185714Y21292800D02*
X29042857Y21245181D01*
X29042857Y21245181D02*
X28947619Y21245181D01*
X28947619Y21245181D02*
X28804762Y21292800D01*
X28804762Y21292800D02*
X28709524Y21388039D01*
X28709524Y21388039D02*
X28661905Y21483277D01*
X28661905Y21483277D02*
X28614286Y21673753D01*
X28614286Y21673753D02*
X28614286Y21816610D01*
X28614286Y21816610D02*
X28661905Y22007086D01*
X28661905Y22007086D02*
X28709524Y22102324D01*
X28709524Y22102324D02*
X28804762Y22197562D01*
X28804762Y22197562D02*
X28947619Y22245181D01*
X28947619Y22245181D02*
X29042857Y22245181D01*
X29042857Y22245181D02*
X29185714Y22197562D01*
X29185714Y22197562D02*
X29233333Y22149943D01*
X30185714Y21245181D02*
X29614286Y21245181D01*
X29900000Y21245181D02*
X29900000Y22245181D01*
X29900000Y22245181D02*
X29804762Y22102324D01*
X29804762Y22102324D02*
X29709524Y22007086D01*
X29709524Y22007086D02*
X29614286Y21959467D01*
X31107142Y5890420D02*
X31059523Y5842800D01*
X31059523Y5842800D02*
X30916666Y5795181D01*
X30916666Y5795181D02*
X30821428Y5795181D01*
X30821428Y5795181D02*
X30678571Y5842800D01*
X30678571Y5842800D02*
X30583333Y5938039D01*
X30583333Y5938039D02*
X30535714Y6033277D01*
X30535714Y6033277D02*
X30488095Y6223753D01*
X30488095Y6223753D02*
X30488095Y6366610D01*
X30488095Y6366610D02*
X30535714Y6557086D01*
X30535714Y6557086D02*
X30583333Y6652324D01*
X30583333Y6652324D02*
X30678571Y6747562D01*
X30678571Y6747562D02*
X30821428Y6795181D01*
X30821428Y6795181D02*
X30916666Y6795181D01*
X30916666Y6795181D02*
X31059523Y6747562D01*
X31059523Y6747562D02*
X31107142Y6699943D01*
X32059523Y5795181D02*
X31488095Y5795181D01*
X31773809Y5795181D02*
X31773809Y6795181D01*
X31773809Y6795181D02*
X31678571Y6652324D01*
X31678571Y6652324D02*
X31583333Y6557086D01*
X31583333Y6557086D02*
X31488095Y6509467D01*
X32392857Y6795181D02*
X33059523Y6795181D01*
X33059523Y6795181D02*
X32630952Y5795181D01*
X39754819Y20740477D02*
X40754819Y21407143D01*
X39754819Y21407143D02*
X40754819Y20740477D01*
X40754819Y22311905D02*
X40754819Y21740477D01*
X40754819Y22026191D02*
X39754819Y22026191D01*
X39754819Y22026191D02*
X39897676Y21930953D01*
X39897676Y21930953D02*
X39992914Y21835715D01*
X39992914Y21835715D02*
X40040533Y21740477D01*
X33804819Y23583334D02*
X33804819Y23107144D01*
X33804819Y23107144D02*
X32804819Y23107144D01*
X32900057Y23869049D02*
X32852438Y23916668D01*
X32852438Y23916668D02*
X32804819Y24011906D01*
X32804819Y24011906D02*
X32804819Y24250001D01*
X32804819Y24250001D02*
X32852438Y24345239D01*
X32852438Y24345239D02*
X32900057Y24392858D01*
X32900057Y24392858D02*
X32995295Y24440477D01*
X32995295Y24440477D02*
X33090533Y24440477D01*
X33090533Y24440477D02*
X33233390Y24392858D01*
X33233390Y24392858D02*
X33804819Y23821430D01*
X33804819Y23821430D02*
X33804819Y24440477D01*
X37053333Y10050420D02*
X37005714Y10002800D01*
X37005714Y10002800D02*
X36862857Y9955181D01*
X36862857Y9955181D02*
X36767619Y9955181D01*
X36767619Y9955181D02*
X36624762Y10002800D01*
X36624762Y10002800D02*
X36529524Y10098039D01*
X36529524Y10098039D02*
X36481905Y10193277D01*
X36481905Y10193277D02*
X36434286Y10383753D01*
X36434286Y10383753D02*
X36434286Y10526610D01*
X36434286Y10526610D02*
X36481905Y10717086D01*
X36481905Y10717086D02*
X36529524Y10812324D01*
X36529524Y10812324D02*
X36624762Y10907562D01*
X36624762Y10907562D02*
X36767619Y10955181D01*
X36767619Y10955181D02*
X36862857Y10955181D01*
X36862857Y10955181D02*
X37005714Y10907562D01*
X37005714Y10907562D02*
X37053333Y10859943D01*
X37386667Y10955181D02*
X38053333Y10955181D01*
X38053333Y10955181D02*
X37624762Y9955181D01*
X34357142Y5990420D02*
X34309523Y5942800D01*
X34309523Y5942800D02*
X34166666Y5895181D01*
X34166666Y5895181D02*
X34071428Y5895181D01*
X34071428Y5895181D02*
X33928571Y5942800D01*
X33928571Y5942800D02*
X33833333Y6038039D01*
X33833333Y6038039D02*
X33785714Y6133277D01*
X33785714Y6133277D02*
X33738095Y6323753D01*
X33738095Y6323753D02*
X33738095Y6466610D01*
X33738095Y6466610D02*
X33785714Y6657086D01*
X33785714Y6657086D02*
X33833333Y6752324D01*
X33833333Y6752324D02*
X33928571Y6847562D01*
X33928571Y6847562D02*
X34071428Y6895181D01*
X34071428Y6895181D02*
X34166666Y6895181D01*
X34166666Y6895181D02*
X34309523Y6847562D01*
X34309523Y6847562D02*
X34357142Y6799943D01*
X35309523Y5895181D02*
X34738095Y5895181D01*
X35023809Y5895181D02*
X35023809Y6895181D01*
X35023809Y6895181D02*
X34928571Y6752324D01*
X34928571Y6752324D02*
X34833333Y6657086D01*
X34833333Y6657086D02*
X34738095Y6609467D01*
X35880952Y6466610D02*
X35785714Y6514229D01*
X35785714Y6514229D02*
X35738095Y6561848D01*
X35738095Y6561848D02*
X35690476Y6657086D01*
X35690476Y6657086D02*
X35690476Y6704705D01*
X35690476Y6704705D02*
X35738095Y6799943D01*
X35738095Y6799943D02*
X35785714Y6847562D01*
X35785714Y6847562D02*
X35880952Y6895181D01*
X35880952Y6895181D02*
X36071428Y6895181D01*
X36071428Y6895181D02*
X36166666Y6847562D01*
X36166666Y6847562D02*
X36214285Y6799943D01*
X36214285Y6799943D02*
X36261904Y6704705D01*
X36261904Y6704705D02*
X36261904Y6657086D01*
X36261904Y6657086D02*
X36214285Y6561848D01*
X36214285Y6561848D02*
X36166666Y6514229D01*
X36166666Y6514229D02*
X36071428Y6466610D01*
X36071428Y6466610D02*
X35880952Y6466610D01*
X35880952Y6466610D02*
X35785714Y6418991D01*
X35785714Y6418991D02*
X35738095Y6371372D01*
X35738095Y6371372D02*
X35690476Y6276134D01*
X35690476Y6276134D02*
X35690476Y6085658D01*
X35690476Y6085658D02*
X35738095Y5990420D01*
X35738095Y5990420D02*
X35785714Y5942800D01*
X35785714Y5942800D02*
X35880952Y5895181D01*
X35880952Y5895181D02*
X36071428Y5895181D01*
X36071428Y5895181D02*
X36166666Y5942800D01*
X36166666Y5942800D02*
X36214285Y5990420D01*
X36214285Y5990420D02*
X36261904Y6085658D01*
X36261904Y6085658D02*
X36261904Y6276134D01*
X36261904Y6276134D02*
X36214285Y6371372D01*
X36214285Y6371372D02*
X36166666Y6418991D01*
X36166666Y6418991D02*
X36071428Y6466610D01*
X2428571Y26068991D02*
X2095238Y26068991D01*
X2095238Y25545181D02*
X2095238Y26545181D01*
X2095238Y26545181D02*
X2571428Y26545181D01*
X2952381Y25545181D02*
X2952381Y26545181D01*
X3428571Y25545181D02*
X3428571Y26545181D01*
X3428571Y26545181D02*
X3666666Y26545181D01*
X3666666Y26545181D02*
X3809523Y26497562D01*
X3809523Y26497562D02*
X3904761Y26402324D01*
X3904761Y26402324D02*
X3952380Y26307086D01*
X3952380Y26307086D02*
X3999999Y26116610D01*
X3999999Y26116610D02*
X3999999Y25973753D01*
X3999999Y25973753D02*
X3952380Y25783277D01*
X3952380Y25783277D02*
X3904761Y25688039D01*
X3904761Y25688039D02*
X3809523Y25592800D01*
X3809523Y25592800D02*
X3666666Y25545181D01*
X3666666Y25545181D02*
X3428571Y25545181D01*
X4952380Y25545181D02*
X4380952Y25545181D01*
X4666666Y25545181D02*
X4666666Y26545181D01*
X4666666Y26545181D02*
X4571428Y26402324D01*
X4571428Y26402324D02*
X4476190Y26307086D01*
X4476190Y26307086D02*
X4380952Y26259467D01*
X8159819Y5531667D02*
X8874104Y5531667D01*
X8874104Y5531667D02*
X9016961Y5484048D01*
X9016961Y5484048D02*
X9112200Y5388810D01*
X9112200Y5388810D02*
X9159819Y5245953D01*
X9159819Y5245953D02*
X9159819Y5150715D01*
X9159819Y6531667D02*
X9159819Y5960239D01*
X9159819Y6245953D02*
X8159819Y6245953D01*
X8159819Y6245953D02*
X8302676Y6150715D01*
X8302676Y6150715D02*
X8397914Y6055477D01*
X8397914Y6055477D02*
X8445533Y5960239D01*
X15339580Y8498334D02*
X15387200Y8450715D01*
X15387200Y8450715D02*
X15434819Y8307858D01*
X15434819Y8307858D02*
X15434819Y8212620D01*
X15434819Y8212620D02*
X15387200Y8069763D01*
X15387200Y8069763D02*
X15291961Y7974525D01*
X15291961Y7974525D02*
X15196723Y7926906D01*
X15196723Y7926906D02*
X15006247Y7879287D01*
X15006247Y7879287D02*
X14863390Y7879287D01*
X14863390Y7879287D02*
X14672914Y7926906D01*
X14672914Y7926906D02*
X14577676Y7974525D01*
X14577676Y7974525D02*
X14482438Y8069763D01*
X14482438Y8069763D02*
X14434819Y8212620D01*
X14434819Y8212620D02*
X14434819Y8307858D01*
X14434819Y8307858D02*
X14482438Y8450715D01*
X14482438Y8450715D02*
X14530057Y8498334D01*
X14768152Y9355477D02*
X15434819Y9355477D01*
X14387200Y9117382D02*
X15101485Y8879287D01*
X15101485Y8879287D02*
X15101485Y9498334D01*
X43483333Y17715181D02*
X43007143Y17715181D01*
X43007143Y17715181D02*
X43007143Y18715181D01*
X43721429Y18715181D02*
X44340476Y18715181D01*
X44340476Y18715181D02*
X44007143Y18334229D01*
X44007143Y18334229D02*
X44150000Y18334229D01*
X44150000Y18334229D02*
X44245238Y18286610D01*
X44245238Y18286610D02*
X44292857Y18238991D01*
X44292857Y18238991D02*
X44340476Y18143753D01*
X44340476Y18143753D02*
X44340476Y17905658D01*
X44340476Y17905658D02*
X44292857Y17810420D01*
X44292857Y17810420D02*
X44245238Y17762800D01*
X44245238Y17762800D02*
X44150000Y17715181D01*
X44150000Y17715181D02*
X43864286Y17715181D01*
X43864286Y17715181D02*
X43769048Y17762800D01*
X43769048Y17762800D02*
X43721429Y17810420D01*
X29458333Y9190420D02*
X29410714Y9142800D01*
X29410714Y9142800D02*
X29267857Y9095181D01*
X29267857Y9095181D02*
X29172619Y9095181D01*
X29172619Y9095181D02*
X29029762Y9142800D01*
X29029762Y9142800D02*
X28934524Y9238039D01*
X28934524Y9238039D02*
X28886905Y9333277D01*
X28886905Y9333277D02*
X28839286Y9523753D01*
X28839286Y9523753D02*
X28839286Y9666610D01*
X28839286Y9666610D02*
X28886905Y9857086D01*
X28886905Y9857086D02*
X28934524Y9952324D01*
X28934524Y9952324D02*
X29029762Y10047562D01*
X29029762Y10047562D02*
X29172619Y10095181D01*
X29172619Y10095181D02*
X29267857Y10095181D01*
X29267857Y10095181D02*
X29410714Y10047562D01*
X29410714Y10047562D02*
X29458333Y9999943D01*
X30363095Y10095181D02*
X29886905Y10095181D01*
X29886905Y10095181D02*
X29839286Y9618991D01*
X29839286Y9618991D02*
X29886905Y9666610D01*
X29886905Y9666610D02*
X29982143Y9714229D01*
X29982143Y9714229D02*
X30220238Y9714229D01*
X30220238Y9714229D02*
X30315476Y9666610D01*
X30315476Y9666610D02*
X30363095Y9618991D01*
X30363095Y9618991D02*
X30410714Y9523753D01*
X30410714Y9523753D02*
X30410714Y9285658D01*
X30410714Y9285658D02*
X30363095Y9190420D01*
X30363095Y9190420D02*
X30315476Y9142800D01*
X30315476Y9142800D02*
X30220238Y9095181D01*
X30220238Y9095181D02*
X29982143Y9095181D01*
X29982143Y9095181D02*
X29886905Y9142800D01*
X29886905Y9142800D02*
X29839286Y9190420D01*
X43033333Y2345181D02*
X42700000Y2821372D01*
X42461905Y2345181D02*
X42461905Y3345181D01*
X42461905Y3345181D02*
X42842857Y3345181D01*
X42842857Y3345181D02*
X42938095Y3297562D01*
X42938095Y3297562D02*
X42985714Y3249943D01*
X42985714Y3249943D02*
X43033333Y3154705D01*
X43033333Y3154705D02*
X43033333Y3011848D01*
X43033333Y3011848D02*
X42985714Y2916610D01*
X42985714Y2916610D02*
X42938095Y2868991D01*
X42938095Y2868991D02*
X42842857Y2821372D01*
X42842857Y2821372D02*
X42461905Y2821372D01*
X43366667Y3345181D02*
X44033333Y3345181D01*
X44033333Y3345181D02*
X43604762Y2345181D01*
X5696666Y23465181D02*
X5696666Y22750896D01*
X5696666Y22750896D02*
X5649047Y22608039D01*
X5649047Y22608039D02*
X5553809Y22512800D01*
X5553809Y22512800D02*
X5410952Y22465181D01*
X5410952Y22465181D02*
X5315714Y22465181D01*
X6125238Y23369943D02*
X6172857Y23417562D01*
X6172857Y23417562D02*
X6268095Y23465181D01*
X6268095Y23465181D02*
X6506190Y23465181D01*
X6506190Y23465181D02*
X6601428Y23417562D01*
X6601428Y23417562D02*
X6649047Y23369943D01*
X6649047Y23369943D02*
X6696666Y23274705D01*
X6696666Y23274705D02*
X6696666Y23179467D01*
X6696666Y23179467D02*
X6649047Y23036610D01*
X6649047Y23036610D02*
X6077619Y22465181D01*
X6077619Y22465181D02*
X6696666Y22465181D01*
X43984819Y7373334D02*
X43508628Y7040001D01*
X43984819Y6801906D02*
X42984819Y6801906D01*
X42984819Y6801906D02*
X42984819Y7182858D01*
X42984819Y7182858D02*
X43032438Y7278096D01*
X43032438Y7278096D02*
X43080057Y7325715D01*
X43080057Y7325715D02*
X43175295Y7373334D01*
X43175295Y7373334D02*
X43318152Y7373334D01*
X43318152Y7373334D02*
X43413390Y7325715D01*
X43413390Y7325715D02*
X43461009Y7278096D01*
X43461009Y7278096D02*
X43508628Y7182858D01*
X43508628Y7182858D02*
X43508628Y6801906D01*
X43080057Y7754287D02*
X43032438Y7801906D01*
X43032438Y7801906D02*
X42984819Y7897144D01*
X42984819Y7897144D02*
X42984819Y8135239D01*
X42984819Y8135239D02*
X43032438Y8230477D01*
X43032438Y8230477D02*
X43080057Y8278096D01*
X43080057Y8278096D02*
X43175295Y8325715D01*
X43175295Y8325715D02*
X43270533Y8325715D01*
X43270533Y8325715D02*
X43413390Y8278096D01*
X43413390Y8278096D02*
X43984819Y7706668D01*
X43984819Y7706668D02*
X43984819Y8325715D01*
X29907142Y10940420D02*
X29859523Y10892800D01*
X29859523Y10892800D02*
X29716666Y10845181D01*
X29716666Y10845181D02*
X29621428Y10845181D01*
X29621428Y10845181D02*
X29478571Y10892800D01*
X29478571Y10892800D02*
X29383333Y10988039D01*
X29383333Y10988039D02*
X29335714Y11083277D01*
X29335714Y11083277D02*
X29288095Y11273753D01*
X29288095Y11273753D02*
X29288095Y11416610D01*
X29288095Y11416610D02*
X29335714Y11607086D01*
X29335714Y11607086D02*
X29383333Y11702324D01*
X29383333Y11702324D02*
X29478571Y11797562D01*
X29478571Y11797562D02*
X29621428Y11845181D01*
X29621428Y11845181D02*
X29716666Y11845181D01*
X29716666Y11845181D02*
X29859523Y11797562D01*
X29859523Y11797562D02*
X29907142Y11749943D01*
X30859523Y10845181D02*
X30288095Y10845181D01*
X30573809Y10845181D02*
X30573809Y11845181D01*
X30573809Y11845181D02*
X30478571Y11702324D01*
X30478571Y11702324D02*
X30383333Y11607086D01*
X30383333Y11607086D02*
X30288095Y11559467D01*
X31811904Y10845181D02*
X31240476Y10845181D01*
X31526190Y10845181D02*
X31526190Y11845181D01*
X31526190Y11845181D02*
X31430952Y11702324D01*
X31430952Y11702324D02*
X31335714Y11607086D01*
X31335714Y11607086D02*
X31240476Y11559467D01*
X46859580Y3707143D02*
X46907200Y3659524D01*
X46907200Y3659524D02*
X46954819Y3516667D01*
X46954819Y3516667D02*
X46954819Y3421429D01*
X46954819Y3421429D02*
X46907200Y3278572D01*
X46907200Y3278572D02*
X46811961Y3183334D01*
X46811961Y3183334D02*
X46716723Y3135715D01*
X46716723Y3135715D02*
X46526247Y3088096D01*
X46526247Y3088096D02*
X46383390Y3088096D01*
X46383390Y3088096D02*
X46192914Y3135715D01*
X46192914Y3135715D02*
X46097676Y3183334D01*
X46097676Y3183334D02*
X46002438Y3278572D01*
X46002438Y3278572D02*
X45954819Y3421429D01*
X45954819Y3421429D02*
X45954819Y3516667D01*
X45954819Y3516667D02*
X46002438Y3659524D01*
X46002438Y3659524D02*
X46050057Y3707143D01*
X46954819Y4659524D02*
X46954819Y4088096D01*
X46954819Y4373810D02*
X45954819Y4373810D01*
X45954819Y4373810D02*
X46097676Y4278572D01*
X46097676Y4278572D02*
X46192914Y4183334D01*
X46192914Y4183334D02*
X46240533Y4088096D01*
X46954819Y5135715D02*
X46954819Y5326191D01*
X46954819Y5326191D02*
X46907200Y5421429D01*
X46907200Y5421429D02*
X46859580Y5469048D01*
X46859580Y5469048D02*
X46716723Y5564286D01*
X46716723Y5564286D02*
X46526247Y5611905D01*
X46526247Y5611905D02*
X46145295Y5611905D01*
X46145295Y5611905D02*
X46050057Y5564286D01*
X46050057Y5564286D02*
X46002438Y5516667D01*
X46002438Y5516667D02*
X45954819Y5421429D01*
X45954819Y5421429D02*
X45954819Y5230953D01*
X45954819Y5230953D02*
X46002438Y5135715D01*
X46002438Y5135715D02*
X46050057Y5088096D01*
X46050057Y5088096D02*
X46145295Y5040477D01*
X46145295Y5040477D02*
X46383390Y5040477D01*
X46383390Y5040477D02*
X46478628Y5088096D01*
X46478628Y5088096D02*
X46526247Y5135715D01*
X46526247Y5135715D02*
X46573866Y5230953D01*
X46573866Y5230953D02*
X46573866Y5421429D01*
X46573866Y5421429D02*
X46526247Y5516667D01*
X46526247Y5516667D02*
X46478628Y5564286D01*
X46478628Y5564286D02*
X46383390Y5611905D01*
D12*
X46268452Y18316391D02*
X45935119Y18316391D01*
X45935119Y17792581D02*
X45935119Y18792581D01*
X45935119Y18792581D02*
X46411309Y18792581D01*
X47268452Y17792581D02*
X46792262Y17792581D01*
X46792262Y17792581D02*
X46792262Y18792581D01*
X47458929Y18792581D02*
X48030357Y18792581D01*
X47744643Y17792581D02*
X47744643Y18792581D01*
X48887500Y17792581D02*
X48316072Y17792581D01*
X48601786Y17792581D02*
X48601786Y18792581D01*
X48601786Y18792581D02*
X48506548Y18649724D01*
X48506548Y18649724D02*
X48411310Y18554486D01*
X48411310Y18554486D02*
X48316072Y18506867D01*
D11*
X47878571Y8118991D02*
X47545238Y8118991D01*
X47545238Y7595181D02*
X47545238Y8595181D01*
X47545238Y8595181D02*
X48021428Y8595181D01*
X48402381Y7595181D02*
X48402381Y8595181D01*
X48878571Y7595181D02*
X48878571Y8595181D01*
X48878571Y8595181D02*
X49116666Y8595181D01*
X49116666Y8595181D02*
X49259523Y8547562D01*
X49259523Y8547562D02*
X49354761Y8452324D01*
X49354761Y8452324D02*
X49402380Y8357086D01*
X49402380Y8357086D02*
X49449999Y8166610D01*
X49449999Y8166610D02*
X49449999Y8023753D01*
X49449999Y8023753D02*
X49402380Y7833277D01*
X49402380Y7833277D02*
X49354761Y7738039D01*
X49354761Y7738039D02*
X49259523Y7642800D01*
X49259523Y7642800D02*
X49116666Y7595181D01*
X49116666Y7595181D02*
X48878571Y7595181D01*
X49783333Y8595181D02*
X50402380Y8595181D01*
X50402380Y8595181D02*
X50069047Y8214229D01*
X50069047Y8214229D02*
X50211904Y8214229D01*
X50211904Y8214229D02*
X50307142Y8166610D01*
X50307142Y8166610D02*
X50354761Y8118991D01*
X50354761Y8118991D02*
X50402380Y8023753D01*
X50402380Y8023753D02*
X50402380Y7785658D01*
X50402380Y7785658D02*
X50354761Y7690420D01*
X50354761Y7690420D02*
X50307142Y7642800D01*
X50307142Y7642800D02*
X50211904Y7595181D01*
X50211904Y7595181D02*
X49926190Y7595181D01*
X49926190Y7595181D02*
X49830952Y7642800D01*
X49830952Y7642800D02*
X49783333Y7690420D01*
X50738095Y6245181D02*
X50738095Y7245181D01*
X50738095Y6768991D02*
X51309523Y6768991D01*
X51309523Y6245181D02*
X51309523Y7245181D01*
X52214285Y6911848D02*
X52214285Y6245181D01*
X51976190Y7292800D02*
X51738095Y6578515D01*
X51738095Y6578515D02*
X52357142Y6578515D01*
X46159819Y9443334D02*
X45683628Y9110001D01*
X46159819Y8871906D02*
X45159819Y8871906D01*
X45159819Y8871906D02*
X45159819Y9252858D01*
X45159819Y9252858D02*
X45207438Y9348096D01*
X45207438Y9348096D02*
X45255057Y9395715D01*
X45255057Y9395715D02*
X45350295Y9443334D01*
X45350295Y9443334D02*
X45493152Y9443334D01*
X45493152Y9443334D02*
X45588390Y9395715D01*
X45588390Y9395715D02*
X45636009Y9348096D01*
X45636009Y9348096D02*
X45683628Y9252858D01*
X45683628Y9252858D02*
X45683628Y8871906D01*
X45159819Y9776668D02*
X45159819Y10395715D01*
X45159819Y10395715D02*
X45540771Y10062382D01*
X45540771Y10062382D02*
X45540771Y10205239D01*
X45540771Y10205239D02*
X45588390Y10300477D01*
X45588390Y10300477D02*
X45636009Y10348096D01*
X45636009Y10348096D02*
X45731247Y10395715D01*
X45731247Y10395715D02*
X45969342Y10395715D01*
X45969342Y10395715D02*
X46064580Y10348096D01*
X46064580Y10348096D02*
X46112200Y10300477D01*
X46112200Y10300477D02*
X46159819Y10205239D01*
X46159819Y10205239D02*
X46159819Y9919525D01*
X46159819Y9919525D02*
X46112200Y9824287D01*
X46112200Y9824287D02*
X46064580Y9776668D01*
X41624819Y8343334D02*
X41148628Y8010001D01*
X41624819Y7771906D02*
X40624819Y7771906D01*
X40624819Y7771906D02*
X40624819Y8152858D01*
X40624819Y8152858D02*
X40672438Y8248096D01*
X40672438Y8248096D02*
X40720057Y8295715D01*
X40720057Y8295715D02*
X40815295Y8343334D01*
X40815295Y8343334D02*
X40958152Y8343334D01*
X40958152Y8343334D02*
X41053390Y8295715D01*
X41053390Y8295715D02*
X41101009Y8248096D01*
X41101009Y8248096D02*
X41148628Y8152858D01*
X41148628Y8152858D02*
X41148628Y7771906D01*
X41624819Y9295715D02*
X41624819Y8724287D01*
X41624819Y9010001D02*
X40624819Y9010001D01*
X40624819Y9010001D02*
X40767676Y8914763D01*
X40767676Y8914763D02*
X40862914Y8819525D01*
X40862914Y8819525D02*
X40910533Y8724287D01*
X30783333Y22290420D02*
X30735714Y22242800D01*
X30735714Y22242800D02*
X30592857Y22195181D01*
X30592857Y22195181D02*
X30497619Y22195181D01*
X30497619Y22195181D02*
X30354762Y22242800D01*
X30354762Y22242800D02*
X30259524Y22338039D01*
X30259524Y22338039D02*
X30211905Y22433277D01*
X30211905Y22433277D02*
X30164286Y22623753D01*
X30164286Y22623753D02*
X30164286Y22766610D01*
X30164286Y22766610D02*
X30211905Y22957086D01*
X30211905Y22957086D02*
X30259524Y23052324D01*
X30259524Y23052324D02*
X30354762Y23147562D01*
X30354762Y23147562D02*
X30497619Y23195181D01*
X30497619Y23195181D02*
X30592857Y23195181D01*
X30592857Y23195181D02*
X30735714Y23147562D01*
X30735714Y23147562D02*
X30783333Y23099943D01*
X31259524Y22195181D02*
X31450000Y22195181D01*
X31450000Y22195181D02*
X31545238Y22242800D01*
X31545238Y22242800D02*
X31592857Y22290420D01*
X31592857Y22290420D02*
X31688095Y22433277D01*
X31688095Y22433277D02*
X31735714Y22623753D01*
X31735714Y22623753D02*
X31735714Y23004705D01*
X31735714Y23004705D02*
X31688095Y23099943D01*
X31688095Y23099943D02*
X31640476Y23147562D01*
X31640476Y23147562D02*
X31545238Y23195181D01*
X31545238Y23195181D02*
X31354762Y23195181D01*
X31354762Y23195181D02*
X31259524Y23147562D01*
X31259524Y23147562D02*
X31211905Y23099943D01*
X31211905Y23099943D02*
X31164286Y23004705D01*
X31164286Y23004705D02*
X31164286Y22766610D01*
X31164286Y22766610D02*
X31211905Y22671372D01*
X31211905Y22671372D02*
X31259524Y22623753D01*
X31259524Y22623753D02*
X31354762Y22576134D01*
X31354762Y22576134D02*
X31545238Y22576134D01*
X31545238Y22576134D02*
X31640476Y22623753D01*
X31640476Y22623753D02*
X31688095Y22671372D01*
X31688095Y22671372D02*
X31735714Y22766610D01*
X41059580Y12707143D02*
X41107200Y12659524D01*
X41107200Y12659524D02*
X41154819Y12516667D01*
X41154819Y12516667D02*
X41154819Y12421429D01*
X41154819Y12421429D02*
X41107200Y12278572D01*
X41107200Y12278572D02*
X41011961Y12183334D01*
X41011961Y12183334D02*
X40916723Y12135715D01*
X40916723Y12135715D02*
X40726247Y12088096D01*
X40726247Y12088096D02*
X40583390Y12088096D01*
X40583390Y12088096D02*
X40392914Y12135715D01*
X40392914Y12135715D02*
X40297676Y12183334D01*
X40297676Y12183334D02*
X40202438Y12278572D01*
X40202438Y12278572D02*
X40154819Y12421429D01*
X40154819Y12421429D02*
X40154819Y12516667D01*
X40154819Y12516667D02*
X40202438Y12659524D01*
X40202438Y12659524D02*
X40250057Y12707143D01*
X41154819Y13659524D02*
X41154819Y13088096D01*
X41154819Y13373810D02*
X40154819Y13373810D01*
X40154819Y13373810D02*
X40297676Y13278572D01*
X40297676Y13278572D02*
X40392914Y13183334D01*
X40392914Y13183334D02*
X40440533Y13088096D01*
X40154819Y14278572D02*
X40154819Y14373810D01*
X40154819Y14373810D02*
X40202438Y14469048D01*
X40202438Y14469048D02*
X40250057Y14516667D01*
X40250057Y14516667D02*
X40345295Y14564286D01*
X40345295Y14564286D02*
X40535771Y14611905D01*
X40535771Y14611905D02*
X40773866Y14611905D01*
X40773866Y14611905D02*
X40964342Y14564286D01*
X40964342Y14564286D02*
X41059580Y14516667D01*
X41059580Y14516667D02*
X41107200Y14469048D01*
X41107200Y14469048D02*
X41154819Y14373810D01*
X41154819Y14373810D02*
X41154819Y14278572D01*
X41154819Y14278572D02*
X41107200Y14183334D01*
X41107200Y14183334D02*
X41059580Y14135715D01*
X41059580Y14135715D02*
X40964342Y14088096D01*
X40964342Y14088096D02*
X40773866Y14040477D01*
X40773866Y14040477D02*
X40535771Y14040477D01*
X40535771Y14040477D02*
X40345295Y14088096D01*
X40345295Y14088096D02*
X40250057Y14135715D01*
X40250057Y14135715D02*
X40202438Y14183334D01*
X40202438Y14183334D02*
X40154819Y14278572D01*
X9718333Y22585181D02*
X9385000Y23061372D01*
X9146905Y22585181D02*
X9146905Y23585181D01*
X9146905Y23585181D02*
X9527857Y23585181D01*
X9527857Y23585181D02*
X9623095Y23537562D01*
X9623095Y23537562D02*
X9670714Y23489943D01*
X9670714Y23489943D02*
X9718333Y23394705D01*
X9718333Y23394705D02*
X9718333Y23251848D01*
X9718333Y23251848D02*
X9670714Y23156610D01*
X9670714Y23156610D02*
X9623095Y23108991D01*
X9623095Y23108991D02*
X9527857Y23061372D01*
X9527857Y23061372D02*
X9146905Y23061372D01*
X10575476Y23251848D02*
X10575476Y22585181D01*
X10337381Y23632800D02*
X10099286Y22918515D01*
X10099286Y22918515D02*
X10718333Y22918515D01*
X30524819Y15138096D02*
X31334342Y15138096D01*
X31334342Y15138096D02*
X31429580Y15185715D01*
X31429580Y15185715D02*
X31477200Y15233334D01*
X31477200Y15233334D02*
X31524819Y15328572D01*
X31524819Y15328572D02*
X31524819Y15519048D01*
X31524819Y15519048D02*
X31477200Y15614286D01*
X31477200Y15614286D02*
X31429580Y15661905D01*
X31429580Y15661905D02*
X31334342Y15709524D01*
X31334342Y15709524D02*
X30524819Y15709524D01*
X30524819Y16090477D02*
X30524819Y16709524D01*
X30524819Y16709524D02*
X30905771Y16376191D01*
X30905771Y16376191D02*
X30905771Y16519048D01*
X30905771Y16519048D02*
X30953390Y16614286D01*
X30953390Y16614286D02*
X31001009Y16661905D01*
X31001009Y16661905D02*
X31096247Y16709524D01*
X31096247Y16709524D02*
X31334342Y16709524D01*
X31334342Y16709524D02*
X31429580Y16661905D01*
X31429580Y16661905D02*
X31477200Y16614286D01*
X31477200Y16614286D02*
X31524819Y16519048D01*
X31524819Y16519048D02*
X31524819Y16233334D01*
X31524819Y16233334D02*
X31477200Y16138096D01*
X31477200Y16138096D02*
X31429580Y16090477D01*
X5728333Y10190181D02*
X5395000Y10666372D01*
X5156905Y10190181D02*
X5156905Y11190181D01*
X5156905Y11190181D02*
X5537857Y11190181D01*
X5537857Y11190181D02*
X5633095Y11142562D01*
X5633095Y11142562D02*
X5680714Y11094943D01*
X5680714Y11094943D02*
X5728333Y10999705D01*
X5728333Y10999705D02*
X5728333Y10856848D01*
X5728333Y10856848D02*
X5680714Y10761610D01*
X5680714Y10761610D02*
X5633095Y10713991D01*
X5633095Y10713991D02*
X5537857Y10666372D01*
X5537857Y10666372D02*
X5156905Y10666372D01*
X6633095Y11190181D02*
X6156905Y11190181D01*
X6156905Y11190181D02*
X6109286Y10713991D01*
X6109286Y10713991D02*
X6156905Y10761610D01*
X6156905Y10761610D02*
X6252143Y10809229D01*
X6252143Y10809229D02*
X6490238Y10809229D01*
X6490238Y10809229D02*
X6585476Y10761610D01*
X6585476Y10761610D02*
X6633095Y10713991D01*
X6633095Y10713991D02*
X6680714Y10618753D01*
X6680714Y10618753D02*
X6680714Y10380658D01*
X6680714Y10380658D02*
X6633095Y10285420D01*
X6633095Y10285420D02*
X6585476Y10237800D01*
X6585476Y10237800D02*
X6490238Y10190181D01*
X6490238Y10190181D02*
X6252143Y10190181D01*
X6252143Y10190181D02*
X6156905Y10237800D01*
X6156905Y10237800D02*
X6109286Y10285420D01*
X27257142Y6140420D02*
X27209523Y6092800D01*
X27209523Y6092800D02*
X27066666Y6045181D01*
X27066666Y6045181D02*
X26971428Y6045181D01*
X26971428Y6045181D02*
X26828571Y6092800D01*
X26828571Y6092800D02*
X26733333Y6188039D01*
X26733333Y6188039D02*
X26685714Y6283277D01*
X26685714Y6283277D02*
X26638095Y6473753D01*
X26638095Y6473753D02*
X26638095Y6616610D01*
X26638095Y6616610D02*
X26685714Y6807086D01*
X26685714Y6807086D02*
X26733333Y6902324D01*
X26733333Y6902324D02*
X26828571Y6997562D01*
X26828571Y6997562D02*
X26971428Y7045181D01*
X26971428Y7045181D02*
X27066666Y7045181D01*
X27066666Y7045181D02*
X27209523Y6997562D01*
X27209523Y6997562D02*
X27257142Y6949943D01*
X28209523Y6045181D02*
X27638095Y6045181D01*
X27923809Y6045181D02*
X27923809Y7045181D01*
X27923809Y7045181D02*
X27828571Y6902324D01*
X27828571Y6902324D02*
X27733333Y6807086D01*
X27733333Y6807086D02*
X27638095Y6759467D01*
X28542857Y7045181D02*
X29161904Y7045181D01*
X29161904Y7045181D02*
X28828571Y6664229D01*
X28828571Y6664229D02*
X28971428Y6664229D01*
X28971428Y6664229D02*
X29066666Y6616610D01*
X29066666Y6616610D02*
X29114285Y6568991D01*
X29114285Y6568991D02*
X29161904Y6473753D01*
X29161904Y6473753D02*
X29161904Y6235658D01*
X29161904Y6235658D02*
X29114285Y6140420D01*
X29114285Y6140420D02*
X29066666Y6092800D01*
X29066666Y6092800D02*
X28971428Y6045181D01*
X28971428Y6045181D02*
X28685714Y6045181D01*
X28685714Y6045181D02*
X28590476Y6092800D01*
X28590476Y6092800D02*
X28542857Y6140420D01*
X45359580Y13357143D02*
X45407200Y13309524D01*
X45407200Y13309524D02*
X45454819Y13166667D01*
X45454819Y13166667D02*
X45454819Y13071429D01*
X45454819Y13071429D02*
X45407200Y12928572D01*
X45407200Y12928572D02*
X45311961Y12833334D01*
X45311961Y12833334D02*
X45216723Y12785715D01*
X45216723Y12785715D02*
X45026247Y12738096D01*
X45026247Y12738096D02*
X44883390Y12738096D01*
X44883390Y12738096D02*
X44692914Y12785715D01*
X44692914Y12785715D02*
X44597676Y12833334D01*
X44597676Y12833334D02*
X44502438Y12928572D01*
X44502438Y12928572D02*
X44454819Y13071429D01*
X44454819Y13071429D02*
X44454819Y13166667D01*
X44454819Y13166667D02*
X44502438Y13309524D01*
X44502438Y13309524D02*
X44550057Y13357143D01*
X45454819Y14309524D02*
X45454819Y13738096D01*
X45454819Y14023810D02*
X44454819Y14023810D01*
X44454819Y14023810D02*
X44597676Y13928572D01*
X44597676Y13928572D02*
X44692914Y13833334D01*
X44692914Y13833334D02*
X44740533Y13738096D01*
X44454819Y15214286D02*
X44454819Y14738096D01*
X44454819Y14738096D02*
X44931009Y14690477D01*
X44931009Y14690477D02*
X44883390Y14738096D01*
X44883390Y14738096D02*
X44835771Y14833334D01*
X44835771Y14833334D02*
X44835771Y15071429D01*
X44835771Y15071429D02*
X44883390Y15166667D01*
X44883390Y15166667D02*
X44931009Y15214286D01*
X44931009Y15214286D02*
X45026247Y15261905D01*
X45026247Y15261905D02*
X45264342Y15261905D01*
X45264342Y15261905D02*
X45359580Y15214286D01*
X45359580Y15214286D02*
X45407200Y15166667D01*
X45407200Y15166667D02*
X45454819Y15071429D01*
X45454819Y15071429D02*
X45454819Y14833334D01*
X45454819Y14833334D02*
X45407200Y14738096D01*
X45407200Y14738096D02*
X45359580Y14690477D01*
X16238095Y5745181D02*
X16238095Y6745181D01*
X16238095Y6268991D02*
X16809523Y6268991D01*
X16809523Y5745181D02*
X16809523Y6745181D01*
X17238095Y6649943D02*
X17285714Y6697562D01*
X17285714Y6697562D02*
X17380952Y6745181D01*
X17380952Y6745181D02*
X17619047Y6745181D01*
X17619047Y6745181D02*
X17714285Y6697562D01*
X17714285Y6697562D02*
X17761904Y6649943D01*
X17761904Y6649943D02*
X17809523Y6554705D01*
X17809523Y6554705D02*
X17809523Y6459467D01*
X17809523Y6459467D02*
X17761904Y6316610D01*
X17761904Y6316610D02*
X17190476Y5745181D01*
X17190476Y5745181D02*
X17809523Y5745181D01*
X16559580Y12008334D02*
X16607200Y11960715D01*
X16607200Y11960715D02*
X16654819Y11817858D01*
X16654819Y11817858D02*
X16654819Y11722620D01*
X16654819Y11722620D02*
X16607200Y11579763D01*
X16607200Y11579763D02*
X16511961Y11484525D01*
X16511961Y11484525D02*
X16416723Y11436906D01*
X16416723Y11436906D02*
X16226247Y11389287D01*
X16226247Y11389287D02*
X16083390Y11389287D01*
X16083390Y11389287D02*
X15892914Y11436906D01*
X15892914Y11436906D02*
X15797676Y11484525D01*
X15797676Y11484525D02*
X15702438Y11579763D01*
X15702438Y11579763D02*
X15654819Y11722620D01*
X15654819Y11722620D02*
X15654819Y11817858D01*
X15654819Y11817858D02*
X15702438Y11960715D01*
X15702438Y11960715D02*
X15750057Y12008334D01*
X15654819Y12341668D02*
X15654819Y12960715D01*
X15654819Y12960715D02*
X16035771Y12627382D01*
X16035771Y12627382D02*
X16035771Y12770239D01*
X16035771Y12770239D02*
X16083390Y12865477D01*
X16083390Y12865477D02*
X16131009Y12913096D01*
X16131009Y12913096D02*
X16226247Y12960715D01*
X16226247Y12960715D02*
X16464342Y12960715D01*
X16464342Y12960715D02*
X16559580Y12913096D01*
X16559580Y12913096D02*
X16607200Y12865477D01*
X16607200Y12865477D02*
X16654819Y12770239D01*
X16654819Y12770239D02*
X16654819Y12484525D01*
X16654819Y12484525D02*
X16607200Y12389287D01*
X16607200Y12389287D02*
X16559580Y12341668D01*
X15517319Y8375596D02*
X16326842Y8375596D01*
X16326842Y8375596D02*
X16422080Y8423215D01*
X16422080Y8423215D02*
X16469700Y8470834D01*
X16469700Y8470834D02*
X16517319Y8566072D01*
X16517319Y8566072D02*
X16517319Y8756548D01*
X16517319Y8756548D02*
X16469700Y8851786D01*
X16469700Y8851786D02*
X16422080Y8899405D01*
X16422080Y8899405D02*
X16326842Y8947024D01*
X16326842Y8947024D02*
X15517319Y8947024D01*
X16517319Y9947024D02*
X16517319Y9375596D01*
X16517319Y9661310D02*
X15517319Y9661310D01*
X15517319Y9661310D02*
X15660176Y9566072D01*
X15660176Y9566072D02*
X15755414Y9470834D01*
X15755414Y9470834D02*
X15803033Y9375596D01*
X53466666Y21045181D02*
X53466666Y20330896D01*
X53466666Y20330896D02*
X53419047Y20188039D01*
X53419047Y20188039D02*
X53323809Y20092800D01*
X53323809Y20092800D02*
X53180952Y20045181D01*
X53180952Y20045181D02*
X53085714Y20045181D01*
X54371428Y20711848D02*
X54371428Y20045181D01*
X54133333Y21092800D02*
X53895238Y20378515D01*
X53895238Y20378515D02*
X54514285Y20378515D01*
X16438819Y15206667D02*
X17153104Y15206667D01*
X17153104Y15206667D02*
X17295961Y15159048D01*
X17295961Y15159048D02*
X17391200Y15063810D01*
X17391200Y15063810D02*
X17438819Y14920953D01*
X17438819Y14920953D02*
X17438819Y14825715D01*
X16438819Y15587620D02*
X16438819Y16206667D01*
X16438819Y16206667D02*
X16819771Y15873334D01*
X16819771Y15873334D02*
X16819771Y16016191D01*
X16819771Y16016191D02*
X16867390Y16111429D01*
X16867390Y16111429D02*
X16915009Y16159048D01*
X16915009Y16159048D02*
X17010247Y16206667D01*
X17010247Y16206667D02*
X17248342Y16206667D01*
X17248342Y16206667D02*
X17343580Y16159048D01*
X17343580Y16159048D02*
X17391200Y16111429D01*
X17391200Y16111429D02*
X17438819Y16016191D01*
X17438819Y16016191D02*
X17438819Y15730477D01*
X17438819Y15730477D02*
X17391200Y15635239D01*
X17391200Y15635239D02*
X17343580Y15587620D01*
X43557142Y19040420D02*
X43509523Y18992800D01*
X43509523Y18992800D02*
X43366666Y18945181D01*
X43366666Y18945181D02*
X43271428Y18945181D01*
X43271428Y18945181D02*
X43128571Y18992800D01*
X43128571Y18992800D02*
X43033333Y19088039D01*
X43033333Y19088039D02*
X42985714Y19183277D01*
X42985714Y19183277D02*
X42938095Y19373753D01*
X42938095Y19373753D02*
X42938095Y19516610D01*
X42938095Y19516610D02*
X42985714Y19707086D01*
X42985714Y19707086D02*
X43033333Y19802324D01*
X43033333Y19802324D02*
X43128571Y19897562D01*
X43128571Y19897562D02*
X43271428Y19945181D01*
X43271428Y19945181D02*
X43366666Y19945181D01*
X43366666Y19945181D02*
X43509523Y19897562D01*
X43509523Y19897562D02*
X43557142Y19849943D01*
X44509523Y18945181D02*
X43938095Y18945181D01*
X44223809Y18945181D02*
X44223809Y19945181D01*
X44223809Y19945181D02*
X44128571Y19802324D01*
X44128571Y19802324D02*
X44033333Y19707086D01*
X44033333Y19707086D02*
X43938095Y19659467D01*
X44890476Y19849943D02*
X44938095Y19897562D01*
X44938095Y19897562D02*
X45033333Y19945181D01*
X45033333Y19945181D02*
X45271428Y19945181D01*
X45271428Y19945181D02*
X45366666Y19897562D01*
X45366666Y19897562D02*
X45414285Y19849943D01*
X45414285Y19849943D02*
X45461904Y19754705D01*
X45461904Y19754705D02*
X45461904Y19659467D01*
X45461904Y19659467D02*
X45414285Y19516610D01*
X45414285Y19516610D02*
X44842857Y18945181D01*
X44842857Y18945181D02*
X45461904Y18945181D01*
X43454819Y9786906D02*
X42454819Y9786906D01*
X42454819Y9786906D02*
X42454819Y10025001D01*
X42454819Y10025001D02*
X42502438Y10167858D01*
X42502438Y10167858D02*
X42597676Y10263096D01*
X42597676Y10263096D02*
X42692914Y10310715D01*
X42692914Y10310715D02*
X42883390Y10358334D01*
X42883390Y10358334D02*
X43026247Y10358334D01*
X43026247Y10358334D02*
X43216723Y10310715D01*
X43216723Y10310715D02*
X43311961Y10263096D01*
X43311961Y10263096D02*
X43407200Y10167858D01*
X43407200Y10167858D02*
X43454819Y10025001D01*
X43454819Y10025001D02*
X43454819Y9786906D01*
X43454819Y11310715D02*
X43454819Y10739287D01*
X43454819Y11025001D02*
X42454819Y11025001D01*
X42454819Y11025001D02*
X42597676Y10929763D01*
X42597676Y10929763D02*
X42692914Y10834525D01*
X42692914Y10834525D02*
X42740533Y10739287D01*
X16238095Y25745181D02*
X16238095Y26745181D01*
X16238095Y26268991D02*
X16809523Y26268991D01*
X16809523Y25745181D02*
X16809523Y26745181D01*
X17809523Y25745181D02*
X17238095Y25745181D01*
X17523809Y25745181D02*
X17523809Y26745181D01*
X17523809Y26745181D02*
X17428571Y26602324D01*
X17428571Y26602324D02*
X17333333Y26507086D01*
X17333333Y26507086D02*
X17238095Y26459467D01*
X46883333Y445181D02*
X46550000Y921372D01*
X46311905Y445181D02*
X46311905Y1445181D01*
X46311905Y1445181D02*
X46692857Y1445181D01*
X46692857Y1445181D02*
X46788095Y1397562D01*
X46788095Y1397562D02*
X46835714Y1349943D01*
X46835714Y1349943D02*
X46883333Y1254705D01*
X46883333Y1254705D02*
X46883333Y1111848D01*
X46883333Y1111848D02*
X46835714Y1016610D01*
X46835714Y1016610D02*
X46788095Y968991D01*
X46788095Y968991D02*
X46692857Y921372D01*
X46692857Y921372D02*
X46311905Y921372D01*
X47740476Y1445181D02*
X47550000Y1445181D01*
X47550000Y1445181D02*
X47454762Y1397562D01*
X47454762Y1397562D02*
X47407143Y1349943D01*
X47407143Y1349943D02*
X47311905Y1207086D01*
X47311905Y1207086D02*
X47264286Y1016610D01*
X47264286Y1016610D02*
X47264286Y635658D01*
X47264286Y635658D02*
X47311905Y540420D01*
X47311905Y540420D02*
X47359524Y492800D01*
X47359524Y492800D02*
X47454762Y445181D01*
X47454762Y445181D02*
X47645238Y445181D01*
X47645238Y445181D02*
X47740476Y492800D01*
X47740476Y492800D02*
X47788095Y540420D01*
X47788095Y540420D02*
X47835714Y635658D01*
X47835714Y635658D02*
X47835714Y873753D01*
X47835714Y873753D02*
X47788095Y968991D01*
X47788095Y968991D02*
X47740476Y1016610D01*
X47740476Y1016610D02*
X47645238Y1064229D01*
X47645238Y1064229D02*
X47454762Y1064229D01*
X47454762Y1064229D02*
X47359524Y1016610D01*
X47359524Y1016610D02*
X47311905Y968991D01*
X47311905Y968991D02*
X47264286Y873753D01*
X45928571Y26068991D02*
X45595238Y26068991D01*
X45595238Y25545181D02*
X45595238Y26545181D01*
X45595238Y26545181D02*
X46071428Y26545181D01*
X46452381Y25545181D02*
X46452381Y26545181D01*
X46928571Y25545181D02*
X46928571Y26545181D01*
X46928571Y26545181D02*
X47166666Y26545181D01*
X47166666Y26545181D02*
X47309523Y26497562D01*
X47309523Y26497562D02*
X47404761Y26402324D01*
X47404761Y26402324D02*
X47452380Y26307086D01*
X47452380Y26307086D02*
X47499999Y26116610D01*
X47499999Y26116610D02*
X47499999Y25973753D01*
X47499999Y25973753D02*
X47452380Y25783277D01*
X47452380Y25783277D02*
X47404761Y25688039D01*
X47404761Y25688039D02*
X47309523Y25592800D01*
X47309523Y25592800D02*
X47166666Y25545181D01*
X47166666Y25545181D02*
X46928571Y25545181D01*
X47880952Y26449943D02*
X47928571Y26497562D01*
X47928571Y26497562D02*
X48023809Y26545181D01*
X48023809Y26545181D02*
X48261904Y26545181D01*
X48261904Y26545181D02*
X48357142Y26497562D01*
X48357142Y26497562D02*
X48404761Y26449943D01*
X48404761Y26449943D02*
X48452380Y26354705D01*
X48452380Y26354705D02*
X48452380Y26259467D01*
X48452380Y26259467D02*
X48404761Y26116610D01*
X48404761Y26116610D02*
X47833333Y25545181D01*
X47833333Y25545181D02*
X48452380Y25545181D01*
X28699580Y12853334D02*
X28747200Y12805715D01*
X28747200Y12805715D02*
X28794819Y12662858D01*
X28794819Y12662858D02*
X28794819Y12567620D01*
X28794819Y12567620D02*
X28747200Y12424763D01*
X28747200Y12424763D02*
X28651961Y12329525D01*
X28651961Y12329525D02*
X28556723Y12281906D01*
X28556723Y12281906D02*
X28366247Y12234287D01*
X28366247Y12234287D02*
X28223390Y12234287D01*
X28223390Y12234287D02*
X28032914Y12281906D01*
X28032914Y12281906D02*
X27937676Y12329525D01*
X27937676Y12329525D02*
X27842438Y12424763D01*
X27842438Y12424763D02*
X27794819Y12567620D01*
X27794819Y12567620D02*
X27794819Y12662858D01*
X27794819Y12662858D02*
X27842438Y12805715D01*
X27842438Y12805715D02*
X27890057Y12853334D01*
X28223390Y13424763D02*
X28175771Y13329525D01*
X28175771Y13329525D02*
X28128152Y13281906D01*
X28128152Y13281906D02*
X28032914Y13234287D01*
X28032914Y13234287D02*
X27985295Y13234287D01*
X27985295Y13234287D02*
X27890057Y13281906D01*
X27890057Y13281906D02*
X27842438Y13329525D01*
X27842438Y13329525D02*
X27794819Y13424763D01*
X27794819Y13424763D02*
X27794819Y13615239D01*
X27794819Y13615239D02*
X27842438Y13710477D01*
X27842438Y13710477D02*
X27890057Y13758096D01*
X27890057Y13758096D02*
X27985295Y13805715D01*
X27985295Y13805715D02*
X28032914Y13805715D01*
X28032914Y13805715D02*
X28128152Y13758096D01*
X28128152Y13758096D02*
X28175771Y13710477D01*
X28175771Y13710477D02*
X28223390Y13615239D01*
X28223390Y13615239D02*
X28223390Y13424763D01*
X28223390Y13424763D02*
X28271009Y13329525D01*
X28271009Y13329525D02*
X28318628Y13281906D01*
X28318628Y13281906D02*
X28413866Y13234287D01*
X28413866Y13234287D02*
X28604342Y13234287D01*
X28604342Y13234287D02*
X28699580Y13281906D01*
X28699580Y13281906D02*
X28747200Y13329525D01*
X28747200Y13329525D02*
X28794819Y13424763D01*
X28794819Y13424763D02*
X28794819Y13615239D01*
X28794819Y13615239D02*
X28747200Y13710477D01*
X28747200Y13710477D02*
X28699580Y13758096D01*
X28699580Y13758096D02*
X28604342Y13805715D01*
X28604342Y13805715D02*
X28413866Y13805715D01*
X28413866Y13805715D02*
X28318628Y13758096D01*
X28318628Y13758096D02*
X28271009Y13710477D01*
X28271009Y13710477D02*
X28223390Y13615239D01*
X43459580Y13407143D02*
X43507200Y13359524D01*
X43507200Y13359524D02*
X43554819Y13216667D01*
X43554819Y13216667D02*
X43554819Y13121429D01*
X43554819Y13121429D02*
X43507200Y12978572D01*
X43507200Y12978572D02*
X43411961Y12883334D01*
X43411961Y12883334D02*
X43316723Y12835715D01*
X43316723Y12835715D02*
X43126247Y12788096D01*
X43126247Y12788096D02*
X42983390Y12788096D01*
X42983390Y12788096D02*
X42792914Y12835715D01*
X42792914Y12835715D02*
X42697676Y12883334D01*
X42697676Y12883334D02*
X42602438Y12978572D01*
X42602438Y12978572D02*
X42554819Y13121429D01*
X42554819Y13121429D02*
X42554819Y13216667D01*
X42554819Y13216667D02*
X42602438Y13359524D01*
X42602438Y13359524D02*
X42650057Y13407143D01*
X43554819Y14359524D02*
X43554819Y13788096D01*
X43554819Y14073810D02*
X42554819Y14073810D01*
X42554819Y14073810D02*
X42697676Y13978572D01*
X42697676Y13978572D02*
X42792914Y13883334D01*
X42792914Y13883334D02*
X42840533Y13788096D01*
X42554819Y15216667D02*
X42554819Y15026191D01*
X42554819Y15026191D02*
X42602438Y14930953D01*
X42602438Y14930953D02*
X42650057Y14883334D01*
X42650057Y14883334D02*
X42792914Y14788096D01*
X42792914Y14788096D02*
X42983390Y14740477D01*
X42983390Y14740477D02*
X43364342Y14740477D01*
X43364342Y14740477D02*
X43459580Y14788096D01*
X43459580Y14788096D02*
X43507200Y14835715D01*
X43507200Y14835715D02*
X43554819Y14930953D01*
X43554819Y14930953D02*
X43554819Y15121429D01*
X43554819Y15121429D02*
X43507200Y15216667D01*
X43507200Y15216667D02*
X43459580Y15264286D01*
X43459580Y15264286D02*
X43364342Y15311905D01*
X43364342Y15311905D02*
X43126247Y15311905D01*
X43126247Y15311905D02*
X43031009Y15264286D01*
X43031009Y15264286D02*
X42983390Y15216667D01*
X42983390Y15216667D02*
X42935771Y15121429D01*
X42935771Y15121429D02*
X42935771Y14930953D01*
X42935771Y14930953D02*
X42983390Y14835715D01*
X42983390Y14835715D02*
X43031009Y14788096D01*
X43031009Y14788096D02*
X43126247Y14740477D01*
X32090476Y10245181D02*
X32757142Y9245181D01*
X32757142Y10245181D02*
X32090476Y9245181D01*
X33090476Y10149943D02*
X33138095Y10197562D01*
X33138095Y10197562D02*
X33233333Y10245181D01*
X33233333Y10245181D02*
X33471428Y10245181D01*
X33471428Y10245181D02*
X33566666Y10197562D01*
X33566666Y10197562D02*
X33614285Y10149943D01*
X33614285Y10149943D02*
X33661904Y10054705D01*
X33661904Y10054705D02*
X33661904Y9959467D01*
X33661904Y9959467D02*
X33614285Y9816610D01*
X33614285Y9816610D02*
X33042857Y9245181D01*
X33042857Y9245181D02*
X33661904Y9245181D01*
X29183333Y15630420D02*
X29135714Y15582800D01*
X29135714Y15582800D02*
X28992857Y15535181D01*
X28992857Y15535181D02*
X28897619Y15535181D01*
X28897619Y15535181D02*
X28754762Y15582800D01*
X28754762Y15582800D02*
X28659524Y15678039D01*
X28659524Y15678039D02*
X28611905Y15773277D01*
X28611905Y15773277D02*
X28564286Y15963753D01*
X28564286Y15963753D02*
X28564286Y16106610D01*
X28564286Y16106610D02*
X28611905Y16297086D01*
X28611905Y16297086D02*
X28659524Y16392324D01*
X28659524Y16392324D02*
X28754762Y16487562D01*
X28754762Y16487562D02*
X28897619Y16535181D01*
X28897619Y16535181D02*
X28992857Y16535181D01*
X28992857Y16535181D02*
X29135714Y16487562D01*
X29135714Y16487562D02*
X29183333Y16439943D01*
X30040476Y16535181D02*
X29850000Y16535181D01*
X29850000Y16535181D02*
X29754762Y16487562D01*
X29754762Y16487562D02*
X29707143Y16439943D01*
X29707143Y16439943D02*
X29611905Y16297086D01*
X29611905Y16297086D02*
X29564286Y16106610D01*
X29564286Y16106610D02*
X29564286Y15725658D01*
X29564286Y15725658D02*
X29611905Y15630420D01*
X29611905Y15630420D02*
X29659524Y15582800D01*
X29659524Y15582800D02*
X29754762Y15535181D01*
X29754762Y15535181D02*
X29945238Y15535181D01*
X29945238Y15535181D02*
X30040476Y15582800D01*
X30040476Y15582800D02*
X30088095Y15630420D01*
X30088095Y15630420D02*
X30135714Y15725658D01*
X30135714Y15725658D02*
X30135714Y15963753D01*
X30135714Y15963753D02*
X30088095Y16058991D01*
X30088095Y16058991D02*
X30040476Y16106610D01*
X30040476Y16106610D02*
X29945238Y16154229D01*
X29945238Y16154229D02*
X29754762Y16154229D01*
X29754762Y16154229D02*
X29659524Y16106610D01*
X29659524Y16106610D02*
X29611905Y16058991D01*
X29611905Y16058991D02*
X29564286Y15963753D01*
X35966667Y492800D02*
X36109524Y445181D01*
X36109524Y445181D02*
X36347619Y445181D01*
X36347619Y445181D02*
X36442857Y492800D01*
X36442857Y492800D02*
X36490476Y540420D01*
X36490476Y540420D02*
X36538095Y635658D01*
X36538095Y635658D02*
X36538095Y730896D01*
X36538095Y730896D02*
X36490476Y826134D01*
X36490476Y826134D02*
X36442857Y873753D01*
X36442857Y873753D02*
X36347619Y921372D01*
X36347619Y921372D02*
X36157143Y968991D01*
X36157143Y968991D02*
X36061905Y1016610D01*
X36061905Y1016610D02*
X36014286Y1064229D01*
X36014286Y1064229D02*
X35966667Y1159467D01*
X35966667Y1159467D02*
X35966667Y1254705D01*
X35966667Y1254705D02*
X36014286Y1349943D01*
X36014286Y1349943D02*
X36061905Y1397562D01*
X36061905Y1397562D02*
X36157143Y1445181D01*
X36157143Y1445181D02*
X36395238Y1445181D01*
X36395238Y1445181D02*
X36538095Y1397562D01*
X36871429Y1445181D02*
X37109524Y445181D01*
X37109524Y445181D02*
X37300000Y1159467D01*
X37300000Y1159467D02*
X37490476Y445181D01*
X37490476Y445181D02*
X37728572Y1445181D01*
X38633333Y445181D02*
X38061905Y445181D01*
X38347619Y445181D02*
X38347619Y1445181D01*
X38347619Y1445181D02*
X38252381Y1302324D01*
X38252381Y1302324D02*
X38157143Y1207086D01*
X38157143Y1207086D02*
X38061905Y1159467D01*
D13*
%TO.C,C2*%
X33157836Y21710000D02*
X32942164Y21710000D01*
X33157836Y20990000D02*
X32942164Y20990000D01*
%TO.C,L1*%
X36149622Y24510000D02*
X35350378Y24510000D01*
X36149622Y23390000D02*
X35350378Y23390000D01*
%TO.C,U2*%
X13812500Y16660000D02*
X13012500Y16660000D01*
X13812500Y16660000D02*
X14612500Y16660000D01*
X13812500Y13540000D02*
X13012500Y13540000D01*
X13812500Y13540000D02*
X14612500Y13540000D01*
X12512500Y16610000D02*
X12272500Y16940000D01*
X12752500Y16940000D01*
X12512500Y16610000D01*
G36*
X12512500Y16610000D02*
G01*
X12272500Y16940000D01*
X12752500Y16940000D01*
X12512500Y16610000D01*
G37*
%TO.C,C14*%
X37334420Y22560000D02*
X37615580Y22560000D01*
X37334420Y21540000D02*
X37615580Y21540000D01*
%TO.C,C1*%
X31415580Y24510000D02*
X31134420Y24510000D01*
X31415580Y23490000D02*
X31134420Y23490000D01*
%TO.C,C17*%
X29540000Y8137836D02*
X29540000Y7922164D01*
X30260000Y8137836D02*
X30260000Y7922164D01*
%TO.C,X1*%
X41150000Y20200000D02*
X43450000Y20200000D01*
X43450000Y20200000D02*
X43450000Y22900000D01*
%TO.C,C7*%
X37112164Y9610000D02*
X37327836Y9610000D01*
X37112164Y8890000D02*
X37327836Y8890000D01*
%TO.C,C18*%
X33640000Y8107836D02*
X33640000Y7892164D01*
X34360000Y8107836D02*
X34360000Y7892164D01*
%TO.C,J1*%
X2195000Y9355000D02*
X2195000Y5870000D01*
X2195000Y2385000D02*
X2195000Y5870000D01*
X7615000Y8285000D02*
X7915000Y8285000D01*
X7615000Y5870000D02*
X7615000Y8285000D01*
X7615000Y5870000D02*
X7615000Y3455000D01*
X7615000Y3455000D02*
X7915000Y3455000D01*
X7905000Y7995000D02*
X8205000Y7995000D01*
X7915000Y9355000D02*
X2195000Y9355000D01*
X7915000Y8285000D02*
X7915000Y9355000D01*
X7915000Y3455000D02*
X7915000Y2385000D01*
X7915000Y2385000D02*
X2195000Y2385000D01*
X8205000Y7995000D02*
X8205000Y8495000D01*
%TO.C,C4*%
X15900000Y8524420D02*
X15900000Y8805580D01*
X16920000Y8524420D02*
X16920000Y8805580D01*
%TO.C,C5*%
X29765580Y11510000D02*
X29484420Y11510000D01*
X29765580Y10490000D02*
X29484420Y10490000D01*
%TO.C,R7*%
X43610000Y4573641D02*
X43610000Y4266359D01*
X44370000Y4573641D02*
X44370000Y4266359D01*
%TO.C,J2*%
X6150000Y21690000D02*
X7850000Y21690000D01*
X6150000Y12350000D02*
X7850000Y12350000D01*
%TO.C,R2*%
X41920000Y8643641D02*
X41920000Y8336359D01*
X42680000Y8643641D02*
X42680000Y8336359D01*
%TO.C,C11*%
X30160000Y12892164D02*
X30160000Y13107836D01*
X30880000Y12892164D02*
X30880000Y13107836D01*
%TO.C,C19*%
X44720000Y4507836D02*
X44720000Y4292164D01*
X45440000Y4507836D02*
X45440000Y4292164D01*
D12*
%TO.C,FLT1*%
X46487500Y17650000D02*
X48287500Y17650000D01*
X46487500Y17350000D02*
X46487500Y17650000D01*
X46487500Y16650000D02*
X46487500Y16950000D01*
X48287500Y17650000D02*
X48287500Y16650000D01*
X48287500Y16650000D02*
X46487500Y16650000D01*
D11*
X46457500Y17150000D02*
G75*
G02*
X46317500Y17150000I-70000J0D01*
G01*
X46317500Y17150000D02*
G75*
G02*
X46457500Y17150000I70000J0D01*
G01*
D13*
%TO.C,R3*%
X46495000Y9456359D02*
X46495000Y9763641D01*
X47255000Y9456359D02*
X47255000Y9763641D01*
%TO.C,R1*%
X39620000Y8663641D02*
X39620000Y8356359D01*
X40380000Y8663641D02*
X40380000Y8356359D01*
%TO.C,C9*%
X33177836Y22810000D02*
X32962164Y22810000D01*
X33177836Y22090000D02*
X32962164Y22090000D01*
%TO.C,C10*%
X40340000Y16027836D02*
X40340000Y15812164D01*
X41060000Y16027836D02*
X41060000Y15812164D01*
%TO.C,R4*%
X7656359Y23470000D02*
X7963641Y23470000D01*
X7656359Y22710000D02*
X7963641Y22710000D01*
%TO.C,U3*%
X32290000Y19510000D02*
X32765000Y19510000D01*
X32290000Y19035000D02*
X32290000Y19510000D01*
X32290000Y12765000D02*
X32290000Y12590000D01*
X32765000Y12290000D02*
X32530000Y12290000D01*
X39510000Y19510000D02*
X39035000Y19510000D01*
X39510000Y19035000D02*
X39510000Y19510000D01*
X39510000Y12765000D02*
X39510000Y12290000D01*
X39510000Y12290000D02*
X39035000Y12290000D01*
X32290000Y12290000D02*
X31960000Y12050000D01*
X31960000Y12530000D01*
X32290000Y12290000D01*
G36*
X32290000Y12290000D02*
G01*
X31960000Y12050000D01*
X31960000Y12530000D01*
X32290000Y12290000D01*
G37*
%TO.C,R5*%
X7916359Y11225000D02*
X8223641Y11225000D01*
X7916359Y10465000D02*
X8223641Y10465000D01*
%TO.C,C13*%
X28187836Y8210000D02*
X27972164Y8210000D01*
X28187836Y7490000D02*
X27972164Y7490000D01*
%TO.C,C15*%
X44640000Y16587836D02*
X44640000Y16372164D01*
X45360000Y16587836D02*
X45360000Y16372164D01*
%TO.C,C3*%
X13878080Y12685000D02*
X13596920Y12685000D01*
X13878080Y11665000D02*
X13596920Y11665000D01*
%TO.C,U1*%
X12102500Y9137500D02*
X12102500Y9937500D01*
X12102500Y9137500D02*
X12102500Y8337500D01*
X15222500Y9137500D02*
X15222500Y9937500D01*
X15222500Y9137500D02*
X15222500Y8337500D01*
X15502500Y10197500D02*
X15172500Y10437500D01*
X15502500Y10677500D01*
X15502500Y10197500D01*
G36*
X15502500Y10197500D02*
G01*
X15172500Y10437500D01*
X15502500Y10677500D01*
X15502500Y10197500D01*
G37*
%TO.C,J4*%
X50240000Y18550000D02*
X50240000Y17910000D01*
X50240000Y17910000D02*
X49610000Y17910000D01*
X50240000Y15750000D02*
X50240000Y16390000D01*
X52960000Y18500000D02*
X52960000Y15800000D01*
%TO.C,J3*%
X20714000Y17445000D02*
X21349000Y17445000D01*
X20714000Y16810000D02*
X20714000Y17445000D01*
%TO.C,C12*%
X40290000Y18507836D02*
X40290000Y18292164D01*
X41010000Y18507836D02*
X41010000Y18292164D01*
D12*
%TO.C,D1*%
X44275000Y8425000D02*
G75*
G02*
X44175000Y8425000I-50000J0D01*
G01*
X44175000Y8425000D02*
G75*
G02*
X44275000Y8425000I50000J0D01*
G01*
D13*
%TO.C,R6*%
X45333641Y2300000D02*
X45026359Y2300000D01*
X45333641Y1540000D02*
X45026359Y1540000D01*
%TO.C,C8*%
X29140000Y12912164D02*
X29140000Y13127836D01*
X29860000Y12912164D02*
X29860000Y13127836D01*
%TO.C,C16*%
X41640000Y16627836D02*
X41640000Y16412164D01*
X42360000Y16627836D02*
X42360000Y16412164D01*
%TO.C,X2*%
X30800000Y8800000D02*
X30800000Y7200000D01*
X30800000Y7200000D02*
X33200000Y7200000D01*
X33200000Y8800000D02*
X30800000Y8800000D01*
%TO.C,C6*%
X29457836Y17510000D02*
X29242164Y17510000D01*
X29457836Y16790000D02*
X29242164Y16790000D01*
%TO.C,SW1*%
X34250000Y5510000D02*
X40370000Y5510000D01*
X34250000Y1810000D02*
X34250000Y5510000D01*
X40370000Y5510000D02*
X40370000Y1810000D01*
X40370000Y1810000D02*
X34250000Y1810000D01*
%TD*%
M02*
