%TF.GenerationSoftware,KiCad,Pcbnew,9.0.0*%
%TF.CreationDate,2026-07-28T23:24:21-03:00*%
%TF.ProjectId,Phil_Tutorial,5068696c-5f54-4757-946f-7269616c2e6b,rev?*%
%TF.SameCoordinates,PX38444c0PY5a995c0*%
%TF.FileFunction,Soldermask,Bot*%
%TF.FilePolarity,Negative*%
%FSLAX46Y46*%
G04 Gerber Fmt 4.6, Leading zero omitted, Abs format (unit mm)*
G04 Created by KiCad (PCBNEW 9.0.0) date 2026-07-28 23:24:21*
%MOMM*%
%LPD*%
G01*
G04 APERTURE LIST*
G04 APERTURE END LIST*
G36*
X17444806Y5236190D02*
G01*
X17732882Y5159001D01*
X18008418Y5044870D01*
X18266700Y4895751D01*
X18503308Y4714195D01*
X18714195Y4503308D01*
X18895751Y4266700D01*
X19044870Y4008418D01*
X19159001Y3732882D01*
X19236190Y3444806D01*
X19275118Y3149119D01*
X19275118Y2850881D01*
X19236190Y2555194D01*
X19159001Y2267118D01*
X19044870Y1991582D01*
X18895751Y1733300D01*
X18714195Y1496692D01*
X18503308Y1285805D01*
X18266700Y1104249D01*
X18008418Y955130D01*
X17732882Y840999D01*
X17444806Y763810D01*
X17149119Y724882D01*
X16850881Y724882D01*
X16555194Y763810D01*
X16267118Y840999D01*
X15991582Y955130D01*
X15733300Y1104249D01*
X15496692Y1285805D01*
X15285805Y1496692D01*
X15104249Y1733300D01*
X14955130Y1991582D01*
X14840999Y2267118D01*
X14763810Y2555194D01*
X14724882Y2850881D01*
X14724882Y3149119D01*
X14763810Y3444806D01*
X14840999Y3732882D01*
X14955130Y4008418D01*
X15104249Y4266700D01*
X15285805Y4503308D01*
X15496692Y4714195D01*
X15733300Y4895751D01*
X15991582Y5044870D01*
X16267118Y5159001D01*
X16555194Y5236190D01*
X16850881Y5275118D01*
X17149119Y5275118D01*
X17444806Y5236190D01*
G37*
G36*
X51944806Y5736190D02*
G01*
X52232882Y5659001D01*
X52508418Y5544870D01*
X52766700Y5395751D01*
X53003308Y5214195D01*
X53214195Y5003308D01*
X53395751Y4766700D01*
X53544870Y4508418D01*
X53659001Y4232882D01*
X53736190Y3944806D01*
X53775118Y3649119D01*
X53775118Y3350881D01*
X53736190Y3055194D01*
X53659001Y2767118D01*
X53544870Y2491582D01*
X53395751Y2233300D01*
X53214195Y1996692D01*
X53003308Y1785805D01*
X52766700Y1604249D01*
X52508418Y1455130D01*
X52232882Y1340999D01*
X51944806Y1263810D01*
X51649119Y1224882D01*
X51350881Y1224882D01*
X51055194Y1263810D01*
X50767118Y1340999D01*
X50491582Y1455130D01*
X50233300Y1604249D01*
X49996692Y1785805D01*
X49785805Y1996692D01*
X49604249Y2233300D01*
X49455130Y2491582D01*
X49340999Y2767118D01*
X49263810Y3055194D01*
X49224882Y3350881D01*
X49224882Y3649119D01*
X49263810Y3944806D01*
X49340999Y4232882D01*
X49455130Y4508418D01*
X49604249Y4766700D01*
X49785805Y5003308D01*
X49996692Y5214195D01*
X50233300Y5395751D01*
X50491582Y5544870D01*
X50767118Y5659001D01*
X51055194Y5736190D01*
X51350881Y5775118D01*
X51649119Y5775118D01*
X51944806Y5736190D01*
G37*
G36*
X7067653Y4470894D02*
G01*
X7188688Y4438462D01*
X7297205Y4375810D01*
X7385810Y4287205D01*
X7448462Y4178688D01*
X7480894Y4057653D01*
X7480894Y3932347D01*
X7448462Y3811312D01*
X7385810Y3702795D01*
X7297205Y3614190D01*
X7188688Y3551538D01*
X7067653Y3519106D01*
X7005000Y3515000D01*
X7002957Y3515000D01*
X6507043Y3515000D01*
X6505000Y3515000D01*
X6442347Y3519106D01*
X6321312Y3551538D01*
X6212795Y3614190D01*
X6124190Y3702795D01*
X6061538Y3811312D01*
X6029106Y3932347D01*
X6029106Y4057653D01*
X6061538Y4178688D01*
X6124190Y4287205D01*
X6212795Y4375810D01*
X6321312Y4438462D01*
X6442347Y4470894D01*
X6505000Y4475000D01*
X7005000Y4475000D01*
X7067653Y4470894D01*
G37*
G36*
X7067653Y5720894D02*
G01*
X7188688Y5688462D01*
X7297205Y5625810D01*
X7385810Y5537205D01*
X7448462Y5428688D01*
X7480894Y5307653D01*
X7480894Y5182347D01*
X7448462Y5061312D01*
X7385810Y4952795D01*
X7297205Y4864190D01*
X7188688Y4801538D01*
X7067653Y4769106D01*
X7005000Y4765000D01*
X7002957Y4765000D01*
X6507043Y4765000D01*
X6505000Y4765000D01*
X6442347Y4769106D01*
X6321312Y4801538D01*
X6212795Y4864190D01*
X6124190Y4952795D01*
X6061538Y5061312D01*
X6029106Y5182347D01*
X6029106Y5307653D01*
X6061538Y5428688D01*
X6124190Y5537205D01*
X6212795Y5625810D01*
X6321312Y5688462D01*
X6442347Y5720894D01*
X6505000Y5725000D01*
X7005000Y5725000D01*
X7067653Y5720894D01*
G37*
G36*
X7067653Y6970894D02*
G01*
X7188688Y6938462D01*
X7297205Y6875810D01*
X7385810Y6787205D01*
X7448462Y6678688D01*
X7480894Y6557653D01*
X7480894Y6432347D01*
X7448462Y6311312D01*
X7385810Y6202795D01*
X7297205Y6114190D01*
X7188688Y6051538D01*
X7067653Y6019106D01*
X7005000Y6015000D01*
X7002957Y6015000D01*
X6507043Y6015000D01*
X6505000Y6015000D01*
X6442347Y6019106D01*
X6321312Y6051538D01*
X6212795Y6114190D01*
X6124190Y6202795D01*
X6061538Y6311312D01*
X6029106Y6432347D01*
X6029106Y6557653D01*
X6061538Y6678688D01*
X6124190Y6787205D01*
X6212795Y6875810D01*
X6321312Y6938462D01*
X6442347Y6970894D01*
X6505000Y6975000D01*
X7005000Y6975000D01*
X7067653Y6970894D01*
G37*
G36*
X7269106Y8217563D02*
G01*
X7274078Y8215368D01*
X7275950Y8215121D01*
X7299376Y8204197D01*
X7363238Y8175999D01*
X7435999Y8103238D01*
X7464206Y8039356D01*
X7475120Y8015951D01*
X7475366Y8014082D01*
X7477563Y8009106D01*
X7485000Y7945000D01*
X7485000Y7545000D01*
X7477563Y7480894D01*
X7475365Y7475919D01*
X7475120Y7474050D01*
X7464214Y7450664D01*
X7435999Y7386762D01*
X7363238Y7314001D01*
X7299336Y7285786D01*
X7275950Y7274880D01*
X7274081Y7274635D01*
X7269106Y7272437D01*
X7205000Y7265000D01*
X6305000Y7265000D01*
X6240894Y7272437D01*
X6235918Y7274634D01*
X6234049Y7274880D01*
X6210644Y7285794D01*
X6146762Y7314001D01*
X6074001Y7386762D01*
X6045803Y7450624D01*
X6034879Y7474050D01*
X6034632Y7475922D01*
X6032437Y7480894D01*
X6025000Y7545000D01*
X6025000Y7945000D01*
X6032437Y8009106D01*
X6034632Y8014079D01*
X6034879Y8015951D01*
X6045811Y8039396D01*
X6074001Y8103238D01*
X6146762Y8175999D01*
X6210604Y8204189D01*
X6234049Y8215121D01*
X6235921Y8215368D01*
X6240894Y8217563D01*
X6305000Y8225000D01*
X7205000Y8225000D01*
X7269106Y8217563D01*
G37*
G36*
X5379603Y13279699D02*
G01*
X5430307Y13277208D01*
X5436553Y13275966D01*
X5450705Y13275038D01*
X5478045Y13267713D01*
X5543275Y13254737D01*
X5574063Y13241985D01*
X5596956Y13235850D01*
X5617481Y13224000D01*
X5648267Y13211248D01*
X5703554Y13174307D01*
X5728082Y13160145D01*
X5734796Y13153431D01*
X5742759Y13148110D01*
X5823109Y13067760D01*
X5828429Y13059798D01*
X5835145Y13053082D01*
X5849308Y13028551D01*
X5886247Y12973268D01*
X5898997Y12942485D01*
X5910850Y12921956D01*
X5916985Y12899060D01*
X5929736Y12868276D01*
X5942708Y12803058D01*
X5950038Y12775705D01*
X5950038Y12766212D01*
X5951906Y12756821D01*
X5951906Y12643180D01*
X5950038Y12633790D01*
X5950038Y12624295D01*
X5942708Y12596940D01*
X5929736Y12531725D01*
X5916985Y12500944D01*
X5910850Y12478044D01*
X5898996Y12457513D01*
X5886247Y12426733D01*
X5849312Y12371457D01*
X5835145Y12346918D01*
X5828427Y12340201D01*
X5823109Y12332241D01*
X5742759Y12251891D01*
X5734799Y12246573D01*
X5728082Y12239855D01*
X5703543Y12225688D01*
X5648267Y12188753D01*
X5617487Y12176004D01*
X5596956Y12164150D01*
X5574056Y12158015D01*
X5543275Y12145264D01*
X5478059Y12132292D01*
X5450705Y12124962D01*
X5436545Y12124034D01*
X5430307Y12122793D01*
X5379610Y12120303D01*
X5375000Y12120000D01*
X5373460Y12120000D01*
X4576540Y12120000D01*
X4575000Y12120000D01*
X4570390Y12120303D01*
X4519692Y12122793D01*
X4513452Y12124035D01*
X4499295Y12124962D01*
X4471942Y12132291D01*
X4406724Y12145264D01*
X4375940Y12158015D01*
X4353044Y12164150D01*
X4332515Y12176003D01*
X4301732Y12188753D01*
X4246449Y12225692D01*
X4221918Y12239855D01*
X4215202Y12246571D01*
X4207240Y12251891D01*
X4126890Y12332241D01*
X4121569Y12340204D01*
X4114855Y12346918D01*
X4100693Y12371446D01*
X4063752Y12426733D01*
X4051000Y12457519D01*
X4039150Y12478044D01*
X4033015Y12500937D01*
X4020263Y12531725D01*
X4007290Y12596946D01*
X3999962Y12624295D01*
X3999962Y12633789D01*
X3998094Y12643180D01*
X3998094Y12756821D01*
X3999962Y12766213D01*
X3999962Y12775705D01*
X4007289Y12803052D01*
X4020263Y12868276D01*
X4033016Y12899067D01*
X4039150Y12921956D01*
X4050998Y12942479D01*
X4063752Y12973268D01*
X4100698Y13028562D01*
X4114855Y13053082D01*
X4121567Y13059795D01*
X4126890Y13067760D01*
X4207240Y13148110D01*
X4215205Y13153433D01*
X4221918Y13160145D01*
X4246438Y13174302D01*
X4301732Y13211248D01*
X4332521Y13224002D01*
X4353044Y13235850D01*
X4375933Y13241984D01*
X4406724Y13254737D01*
X4471957Y13267713D01*
X4499295Y13275038D01*
X4513445Y13275966D01*
X4519692Y13277208D01*
X4570396Y13279699D01*
X4575000Y13280000D01*
X5375000Y13280000D01*
X5379603Y13279699D01*
G37*
G36*
X9709603Y13279699D02*
G01*
X9760307Y13277208D01*
X9766553Y13275966D01*
X9780705Y13275038D01*
X9808045Y13267713D01*
X9873275Y13254737D01*
X9904063Y13241985D01*
X9926956Y13235850D01*
X9947481Y13224000D01*
X9978267Y13211248D01*
X10033554Y13174307D01*
X10058082Y13160145D01*
X10064796Y13153431D01*
X10072759Y13148110D01*
X10153109Y13067760D01*
X10158429Y13059798D01*
X10165145Y13053082D01*
X10179308Y13028551D01*
X10216247Y12973268D01*
X10228997Y12942485D01*
X10240850Y12921956D01*
X10246985Y12899060D01*
X10259736Y12868276D01*
X10272708Y12803058D01*
X10280038Y12775705D01*
X10280038Y12766212D01*
X10281906Y12756821D01*
X10281906Y12643180D01*
X10280038Y12633790D01*
X10280038Y12624295D01*
X10272708Y12596940D01*
X10259736Y12531725D01*
X10246985Y12500944D01*
X10240850Y12478044D01*
X10228996Y12457513D01*
X10216247Y12426733D01*
X10179312Y12371457D01*
X10165145Y12346918D01*
X10158427Y12340201D01*
X10153109Y12332241D01*
X10072759Y12251891D01*
X10064799Y12246573D01*
X10058082Y12239855D01*
X10033543Y12225688D01*
X9978267Y12188753D01*
X9947487Y12176004D01*
X9926956Y12164150D01*
X9904056Y12158015D01*
X9873275Y12145264D01*
X9808059Y12132292D01*
X9780705Y12124962D01*
X9766545Y12124034D01*
X9760307Y12122793D01*
X9709610Y12120303D01*
X9705000Y12120000D01*
X9703460Y12120000D01*
X8606540Y12120000D01*
X8605000Y12120000D01*
X8600390Y12120303D01*
X8549692Y12122793D01*
X8543452Y12124035D01*
X8529295Y12124962D01*
X8501942Y12132291D01*
X8436724Y12145264D01*
X8405940Y12158015D01*
X8383044Y12164150D01*
X8362515Y12176003D01*
X8331732Y12188753D01*
X8276449Y12225692D01*
X8251918Y12239855D01*
X8245202Y12246571D01*
X8237240Y12251891D01*
X8156890Y12332241D01*
X8151569Y12340204D01*
X8144855Y12346918D01*
X8130693Y12371446D01*
X8093752Y12426733D01*
X8081000Y12457519D01*
X8069150Y12478044D01*
X8063015Y12500937D01*
X8050263Y12531725D01*
X8037290Y12596946D01*
X8029962Y12624295D01*
X8029962Y12633789D01*
X8028094Y12643180D01*
X8028094Y12756821D01*
X8029962Y12766213D01*
X8029962Y12775705D01*
X8037289Y12803052D01*
X8050263Y12868276D01*
X8063016Y12899067D01*
X8069150Y12921956D01*
X8080998Y12942479D01*
X8093752Y12973268D01*
X8130698Y13028562D01*
X8144855Y13053082D01*
X8151567Y13059795D01*
X8156890Y13067760D01*
X8237240Y13148110D01*
X8245205Y13153433D01*
X8251918Y13160145D01*
X8276438Y13174302D01*
X8331732Y13211248D01*
X8362521Y13224002D01*
X8383044Y13235850D01*
X8405933Y13241984D01*
X8436724Y13254737D01*
X8501957Y13267713D01*
X8529295Y13275038D01*
X8543445Y13275966D01*
X8549692Y13277208D01*
X8600396Y13279699D01*
X8605000Y13280000D01*
X9705000Y13280000D01*
X9709603Y13279699D01*
G37*
G36*
X21033666Y13570378D02*
G01*
X21043092Y13570378D01*
X21070248Y13563102D01*
X21134910Y13550240D01*
X21165431Y13537598D01*
X21188158Y13531508D01*
X21208534Y13519744D01*
X21239051Y13507103D01*
X21293862Y13470479D01*
X21318220Y13456416D01*
X21324887Y13449749D01*
X21332777Y13444477D01*
X21412476Y13364778D01*
X21417747Y13356889D01*
X21424416Y13350220D01*
X21438480Y13325860D01*
X21475102Y13271052D01*
X21487741Y13240539D01*
X21499508Y13220158D01*
X21505598Y13197428D01*
X21518239Y13166911D01*
X21531100Y13102253D01*
X21538378Y13075092D01*
X21538378Y13065666D01*
X21540229Y13056360D01*
X21540229Y12943641D01*
X21538378Y12934336D01*
X21538378Y12924908D01*
X21531099Y12897745D01*
X21518239Y12833090D01*
X21505599Y12802576D01*
X21499508Y12779842D01*
X21487739Y12759460D01*
X21475102Y12728949D01*
X21438485Y12674149D01*
X21424416Y12649780D01*
X21417745Y12643110D01*
X21412476Y12635223D01*
X21332777Y12555524D01*
X21324890Y12550255D01*
X21318220Y12543584D01*
X21293851Y12529515D01*
X21239051Y12492898D01*
X21208540Y12480261D01*
X21188158Y12468492D01*
X21165424Y12462401D01*
X21134910Y12449761D01*
X21070254Y12436901D01*
X21043092Y12429622D01*
X21033666Y12429622D01*
X21024360Y12427771D01*
X20911640Y12427771D01*
X20902334Y12429622D01*
X20892908Y12429622D01*
X20865747Y12436900D01*
X20801089Y12449761D01*
X20770572Y12462402D01*
X20747842Y12468492D01*
X20727461Y12480259D01*
X20696948Y12492898D01*
X20642140Y12529520D01*
X20617780Y12543584D01*
X20611111Y12550253D01*
X20603222Y12555524D01*
X20523523Y12635223D01*
X20518251Y12643113D01*
X20511584Y12649780D01*
X20497521Y12674138D01*
X20460897Y12728949D01*
X20448256Y12759466D01*
X20436492Y12779842D01*
X20430402Y12802569D01*
X20417760Y12833090D01*
X20404898Y12897751D01*
X20397622Y12924908D01*
X20397622Y12934335D01*
X20395771Y12943641D01*
X20395771Y13056360D01*
X20397622Y13065667D01*
X20397622Y13075092D01*
X20404898Y13102247D01*
X20417760Y13166911D01*
X20430403Y13197435D01*
X20436492Y13220158D01*
X20448255Y13240533D01*
X20460897Y13271052D01*
X20497525Y13325871D01*
X20511584Y13350220D01*
X20518249Y13356886D01*
X20523523Y13364778D01*
X20603222Y13444477D01*
X20611114Y13449751D01*
X20617780Y13456416D01*
X20642129Y13470475D01*
X20696948Y13507103D01*
X20727467Y13519745D01*
X20747842Y13531508D01*
X20770565Y13537597D01*
X20801089Y13550240D01*
X20865753Y13563102D01*
X20892908Y13570378D01*
X20902334Y13570378D01*
X20911640Y13572229D01*
X21024360Y13572229D01*
X21033666Y13570378D01*
G37*
G36*
X23065666Y13570378D02*
G01*
X23075092Y13570378D01*
X23102248Y13563102D01*
X23166910Y13550240D01*
X23197431Y13537598D01*
X23220158Y13531508D01*
X23240534Y13519744D01*
X23271051Y13507103D01*
X23325862Y13470479D01*
X23350220Y13456416D01*
X23356887Y13449749D01*
X23364777Y13444477D01*
X23444476Y13364778D01*
X23449747Y13356889D01*
X23456416Y13350220D01*
X23470480Y13325860D01*
X23507102Y13271052D01*
X23519741Y13240539D01*
X23531508Y13220158D01*
X23537598Y13197428D01*
X23550239Y13166911D01*
X23563100Y13102253D01*
X23570378Y13075092D01*
X23570378Y13065666D01*
X23572229Y13056360D01*
X23572229Y12943641D01*
X23570378Y12934336D01*
X23570378Y12924908D01*
X23563099Y12897745D01*
X23550239Y12833090D01*
X23537599Y12802576D01*
X23531508Y12779842D01*
X23519739Y12759460D01*
X23507102Y12728949D01*
X23470485Y12674149D01*
X23456416Y12649780D01*
X23449745Y12643110D01*
X23444476Y12635223D01*
X23364777Y12555524D01*
X23356890Y12550255D01*
X23350220Y12543584D01*
X23325851Y12529515D01*
X23271051Y12492898D01*
X23240540Y12480261D01*
X23220158Y12468492D01*
X23197424Y12462401D01*
X23166910Y12449761D01*
X23102254Y12436901D01*
X23075092Y12429622D01*
X23065666Y12429622D01*
X23056360Y12427771D01*
X22943640Y12427771D01*
X22934334Y12429622D01*
X22924908Y12429622D01*
X22897747Y12436900D01*
X22833089Y12449761D01*
X22802572Y12462402D01*
X22779842Y12468492D01*
X22759461Y12480259D01*
X22728948Y12492898D01*
X22674140Y12529520D01*
X22649780Y12543584D01*
X22643111Y12550253D01*
X22635222Y12555524D01*
X22555523Y12635223D01*
X22550251Y12643113D01*
X22543584Y12649780D01*
X22529521Y12674138D01*
X22492897Y12728949D01*
X22480256Y12759466D01*
X22468492Y12779842D01*
X22462402Y12802569D01*
X22449760Y12833090D01*
X22436898Y12897751D01*
X22429622Y12924908D01*
X22429622Y12934335D01*
X22427771Y12943641D01*
X22427771Y13056360D01*
X22429622Y13065667D01*
X22429622Y13075092D01*
X22436898Y13102247D01*
X22449760Y13166911D01*
X22462403Y13197435D01*
X22468492Y13220158D01*
X22480255Y13240533D01*
X22492897Y13271052D01*
X22529525Y13325871D01*
X22543584Y13350220D01*
X22550249Y13356886D01*
X22555523Y13364778D01*
X22635222Y13444477D01*
X22643114Y13449751D01*
X22649780Y13456416D01*
X22674129Y13470475D01*
X22728948Y13507103D01*
X22759467Y13519745D01*
X22779842Y13531508D01*
X22802565Y13537597D01*
X22833089Y13550240D01*
X22897753Y13563102D01*
X22924908Y13570378D01*
X22934334Y13570378D01*
X22943640Y13572229D01*
X23056360Y13572229D01*
X23065666Y13570378D01*
G37*
G36*
X19739880Y16137430D02*
G01*
X19929032Y16075971D01*
X20106241Y15985679D01*
X20267143Y15868777D01*
X20407777Y15728143D01*
X20524679Y15567241D01*
X20614971Y15390032D01*
X20676430Y15200880D01*
X20707543Y15004443D01*
X20707543Y14805557D01*
X20676430Y14609120D01*
X20614971Y14419968D01*
X20524679Y14242759D01*
X20407777Y14081857D01*
X20267143Y13941223D01*
X20106241Y13824321D01*
X19929032Y13734029D01*
X19739880Y13672570D01*
X19543443Y13641457D01*
X19344557Y13641457D01*
X19148120Y13672570D01*
X18958968Y13734029D01*
X18781759Y13824321D01*
X18620857Y13941223D01*
X18480223Y14081857D01*
X18363321Y14242759D01*
X18273029Y14419968D01*
X18211570Y14609120D01*
X18180457Y14805557D01*
X18180457Y15004443D01*
X18211570Y15200880D01*
X18273029Y15390032D01*
X18363321Y15567241D01*
X18480223Y15728143D01*
X18620857Y15868777D01*
X18781759Y15985679D01*
X18958968Y16075971D01*
X19148120Y16137430D01*
X19344557Y16168543D01*
X19543443Y16168543D01*
X19739880Y16137430D01*
G37*
G36*
X24819880Y16137430D02*
G01*
X25009032Y16075971D01*
X25186241Y15985679D01*
X25347143Y15868777D01*
X25487777Y15728143D01*
X25604679Y15567241D01*
X25694971Y15390032D01*
X25756430Y15200880D01*
X25787543Y15004443D01*
X25787543Y14805557D01*
X25756430Y14609120D01*
X25694971Y14419968D01*
X25604679Y14242759D01*
X25487777Y14081857D01*
X25347143Y13941223D01*
X25186241Y13824321D01*
X25009032Y13734029D01*
X24819880Y13672570D01*
X24623443Y13641457D01*
X24424557Y13641457D01*
X24228120Y13672570D01*
X24038968Y13734029D01*
X23861759Y13824321D01*
X23700857Y13941223D01*
X23560223Y14081857D01*
X23443321Y14242759D01*
X23353029Y14419968D01*
X23291570Y14609120D01*
X23260457Y14805557D01*
X23260457Y15004443D01*
X23291570Y15200880D01*
X23353029Y15390032D01*
X23443321Y15567241D01*
X23560223Y15728143D01*
X23700857Y15868777D01*
X23861759Y15985679D01*
X24038968Y16075971D01*
X24228120Y16137430D01*
X24424557Y16168543D01*
X24623443Y16168543D01*
X24819880Y16137430D01*
G37*
G36*
X8809987Y14504171D02*
G01*
X8901548Y14451308D01*
X8976308Y14376548D01*
X9029171Y14284987D01*
X9056535Y14182863D01*
X9056535Y14077137D01*
X9029171Y13975013D01*
X8976308Y13883452D01*
X8901548Y13808692D01*
X8809987Y13755829D01*
X8707863Y13728465D01*
X8602137Y13728465D01*
X8500013Y13755829D01*
X8408452Y13808692D01*
X8333692Y13883452D01*
X8280829Y13975013D01*
X8253465Y14077137D01*
X8253465Y14182863D01*
X8280829Y14284987D01*
X8333692Y14376548D01*
X8408452Y14451308D01*
X8500013Y14504171D01*
X8602137Y14531535D01*
X8707863Y14531535D01*
X8809987Y14504171D01*
G37*
G36*
X19739880Y19312430D02*
G01*
X19929032Y19250971D01*
X20106241Y19160679D01*
X20267143Y19043777D01*
X20407777Y18903143D01*
X20524679Y18742241D01*
X20614971Y18565032D01*
X20676430Y18375880D01*
X20707543Y18179443D01*
X20707543Y17980557D01*
X20676430Y17784120D01*
X20614971Y17594968D01*
X20524679Y17417759D01*
X20407777Y17256857D01*
X20267143Y17116223D01*
X20106241Y16999321D01*
X19929032Y16909029D01*
X19739880Y16847570D01*
X19543443Y16816457D01*
X19344557Y16816457D01*
X19148120Y16847570D01*
X18958968Y16909029D01*
X18781759Y16999321D01*
X18620857Y17116223D01*
X18480223Y17256857D01*
X18363321Y17417759D01*
X18273029Y17594968D01*
X18211570Y17784120D01*
X18180457Y17980557D01*
X18180457Y18179443D01*
X18211570Y18375880D01*
X18273029Y18565032D01*
X18363321Y18742241D01*
X18480223Y18903143D01*
X18620857Y19043777D01*
X18781759Y19160679D01*
X18958968Y19250971D01*
X19148120Y19312430D01*
X19344557Y19343543D01*
X19543443Y19343543D01*
X19739880Y19312430D01*
G37*
G36*
X24819880Y19312430D02*
G01*
X25009032Y19250971D01*
X25186241Y19160679D01*
X25347143Y19043777D01*
X25487777Y18903143D01*
X25604679Y18742241D01*
X25694971Y18565032D01*
X25756430Y18375880D01*
X25787543Y18179443D01*
X25787543Y17980557D01*
X25756430Y17784120D01*
X25694971Y17594968D01*
X25604679Y17417759D01*
X25487777Y17256857D01*
X25347143Y17116223D01*
X25186241Y16999321D01*
X25009032Y16909029D01*
X24819880Y16847570D01*
X24623443Y16816457D01*
X24424557Y16816457D01*
X24228120Y16847570D01*
X24038968Y16909029D01*
X23861759Y16999321D01*
X23700857Y17116223D01*
X23560223Y17256857D01*
X23443321Y17417759D01*
X23353029Y17594968D01*
X23291570Y17784120D01*
X23260457Y17980557D01*
X23260457Y18179443D01*
X23291570Y18375880D01*
X23353029Y18565032D01*
X23443321Y18742241D01*
X23560223Y18903143D01*
X23700857Y19043777D01*
X23861759Y19160679D01*
X24038968Y19250971D01*
X24228120Y19312430D01*
X24424557Y19343543D01*
X24623443Y19343543D01*
X24819880Y19312430D01*
G37*
G36*
X22049666Y18650378D02*
G01*
X22059092Y18650378D01*
X22086248Y18643102D01*
X22150910Y18630240D01*
X22181431Y18617598D01*
X22204158Y18611508D01*
X22224534Y18599744D01*
X22255051Y18587103D01*
X22309862Y18550479D01*
X22334220Y18536416D01*
X22340887Y18529749D01*
X22348777Y18524477D01*
X22428476Y18444778D01*
X22433747Y18436889D01*
X22440416Y18430220D01*
X22454480Y18405860D01*
X22491102Y18351052D01*
X22503741Y18320539D01*
X22515508Y18300158D01*
X22521598Y18277428D01*
X22534239Y18246911D01*
X22547100Y18182253D01*
X22554378Y18155092D01*
X22554378Y18145666D01*
X22556229Y18136360D01*
X22556229Y18023641D01*
X22554378Y18014336D01*
X22554378Y18004908D01*
X22547099Y17977745D01*
X22534239Y17913090D01*
X22521599Y17882576D01*
X22515508Y17859842D01*
X22503739Y17839460D01*
X22491102Y17808949D01*
X22454485Y17754149D01*
X22440416Y17729780D01*
X22433745Y17723110D01*
X22428476Y17715223D01*
X22348777Y17635524D01*
X22340890Y17630255D01*
X22334220Y17623584D01*
X22309851Y17609515D01*
X22255051Y17572898D01*
X22224540Y17560261D01*
X22204158Y17548492D01*
X22181424Y17542401D01*
X22150910Y17529761D01*
X22086254Y17516901D01*
X22059092Y17509622D01*
X22049666Y17509622D01*
X22040360Y17507771D01*
X21927640Y17507771D01*
X21918334Y17509622D01*
X21908908Y17509622D01*
X21881747Y17516900D01*
X21817089Y17529761D01*
X21786572Y17542402D01*
X21763842Y17548492D01*
X21743461Y17560259D01*
X21712948Y17572898D01*
X21658140Y17609520D01*
X21633780Y17623584D01*
X21627111Y17630253D01*
X21619222Y17635524D01*
X21539523Y17715223D01*
X21534251Y17723113D01*
X21527584Y17729780D01*
X21513521Y17754138D01*
X21476897Y17808949D01*
X21464256Y17839466D01*
X21452492Y17859842D01*
X21446402Y17882569D01*
X21433760Y17913090D01*
X21420898Y17977751D01*
X21413622Y18004908D01*
X21413622Y18014335D01*
X21411771Y18023641D01*
X21411771Y18136360D01*
X21413622Y18145667D01*
X21413622Y18155092D01*
X21420898Y18182247D01*
X21433760Y18246911D01*
X21446403Y18277435D01*
X21452492Y18300158D01*
X21464255Y18320533D01*
X21476897Y18351052D01*
X21513525Y18405871D01*
X21527584Y18430220D01*
X21534249Y18436886D01*
X21539523Y18444778D01*
X21619222Y18524477D01*
X21627114Y18529751D01*
X21633780Y18536416D01*
X21658129Y18550475D01*
X21712948Y18587103D01*
X21743467Y18599745D01*
X21763842Y18611508D01*
X21786565Y18617597D01*
X21817089Y18630240D01*
X21881753Y18643102D01*
X21908908Y18650378D01*
X21918334Y18650378D01*
X21927640Y18652229D01*
X22040360Y18652229D01*
X22049666Y18650378D01*
G37*
G36*
X8809987Y20284171D02*
G01*
X8901548Y20231308D01*
X8976308Y20156548D01*
X9029171Y20064987D01*
X9056535Y19962863D01*
X9056535Y19857137D01*
X9029171Y19755013D01*
X8976308Y19663452D01*
X8901548Y19588692D01*
X8809987Y19535829D01*
X8707863Y19508465D01*
X8602137Y19508465D01*
X8500013Y19535829D01*
X8408452Y19588692D01*
X8333692Y19663452D01*
X8280829Y19755013D01*
X8253465Y19857137D01*
X8253465Y19962863D01*
X8280829Y20064987D01*
X8333692Y20156548D01*
X8408452Y20231308D01*
X8500013Y20284171D01*
X8602137Y20311535D01*
X8707863Y20311535D01*
X8809987Y20284171D01*
G37*
G36*
X17444806Y25236190D02*
G01*
X17732882Y25159001D01*
X18008418Y25044870D01*
X18266700Y24895751D01*
X18503308Y24714195D01*
X18714195Y24503308D01*
X18895751Y24266700D01*
X19044870Y24008418D01*
X19159001Y23732882D01*
X19236190Y23444806D01*
X19275118Y23149119D01*
X19275118Y22850881D01*
X19236190Y22555194D01*
X19159001Y22267118D01*
X19044870Y21991582D01*
X18895751Y21733300D01*
X18714195Y21496692D01*
X18503308Y21285805D01*
X18266700Y21104249D01*
X18008418Y20955130D01*
X17732882Y20840999D01*
X17444806Y20763810D01*
X17149119Y20724882D01*
X16850881Y20724882D01*
X16555194Y20763810D01*
X16267118Y20840999D01*
X15991582Y20955130D01*
X15733300Y21104249D01*
X15496692Y21285805D01*
X15285805Y21496692D01*
X15104249Y21733300D01*
X14955130Y21991582D01*
X14840999Y22267118D01*
X14763810Y22555194D01*
X14724882Y22850881D01*
X14724882Y23149119D01*
X14763810Y23444806D01*
X14840999Y23732882D01*
X14955130Y24008418D01*
X15104249Y24266700D01*
X15285805Y24503308D01*
X15496692Y24714195D01*
X15733300Y24895751D01*
X15991582Y25044870D01*
X16267118Y25159001D01*
X16555194Y25236190D01*
X16850881Y25275118D01*
X17149119Y25275118D01*
X17444806Y25236190D01*
G37*
G36*
X51944806Y25236190D02*
G01*
X52232882Y25159001D01*
X52508418Y25044870D01*
X52766700Y24895751D01*
X53003308Y24714195D01*
X53214195Y24503308D01*
X53395751Y24266700D01*
X53544870Y24008418D01*
X53659001Y23732882D01*
X53736190Y23444806D01*
X53775118Y23149119D01*
X53775118Y22850881D01*
X53736190Y22555194D01*
X53659001Y22267118D01*
X53544870Y21991582D01*
X53395751Y21733300D01*
X53214195Y21496692D01*
X53003308Y21285805D01*
X52766700Y21104249D01*
X52508418Y20955130D01*
X52232882Y20840999D01*
X51944806Y20763810D01*
X51649119Y20724882D01*
X51350881Y20724882D01*
X51055194Y20763810D01*
X50767118Y20840999D01*
X50491582Y20955130D01*
X50233300Y21104249D01*
X49996692Y21285805D01*
X49785805Y21496692D01*
X49604249Y21733300D01*
X49455130Y21991582D01*
X49340999Y22267118D01*
X49263810Y22555194D01*
X49224882Y22850881D01*
X49224882Y23149119D01*
X49263810Y23444806D01*
X49340999Y23732882D01*
X49455130Y24008418D01*
X49604249Y24266700D01*
X49785805Y24503308D01*
X49996692Y24714195D01*
X50233300Y24895751D01*
X50491582Y25044870D01*
X50767118Y25159001D01*
X51055194Y25236190D01*
X51350881Y25275118D01*
X51649119Y25275118D01*
X51944806Y25236190D01*
G37*
G36*
X5379603Y21919699D02*
G01*
X5430307Y21917208D01*
X5436553Y21915966D01*
X5450705Y21915038D01*
X5478045Y21907713D01*
X5543275Y21894737D01*
X5574063Y21881985D01*
X5596956Y21875850D01*
X5617481Y21864000D01*
X5648267Y21851248D01*
X5703554Y21814307D01*
X5728082Y21800145D01*
X5734796Y21793431D01*
X5742759Y21788110D01*
X5823109Y21707760D01*
X5828429Y21699798D01*
X5835145Y21693082D01*
X5849308Y21668551D01*
X5886247Y21613268D01*
X5898997Y21582485D01*
X5910850Y21561956D01*
X5916985Y21539060D01*
X5929736Y21508276D01*
X5942708Y21443058D01*
X5950038Y21415705D01*
X5950038Y21406212D01*
X5951906Y21396821D01*
X5951906Y21283180D01*
X5950038Y21273790D01*
X5950038Y21264295D01*
X5942708Y21236940D01*
X5929736Y21171725D01*
X5916985Y21140944D01*
X5910850Y21118044D01*
X5898996Y21097513D01*
X5886247Y21066733D01*
X5849312Y21011457D01*
X5835145Y20986918D01*
X5828427Y20980201D01*
X5823109Y20972241D01*
X5742759Y20891891D01*
X5734799Y20886573D01*
X5728082Y20879855D01*
X5703543Y20865688D01*
X5648267Y20828753D01*
X5617487Y20816004D01*
X5596956Y20804150D01*
X5574056Y20798015D01*
X5543275Y20785264D01*
X5478059Y20772292D01*
X5450705Y20764962D01*
X5436545Y20764034D01*
X5430307Y20762793D01*
X5379610Y20760303D01*
X5375000Y20760000D01*
X5373460Y20760000D01*
X4576540Y20760000D01*
X4575000Y20760000D01*
X4570390Y20760303D01*
X4519692Y20762793D01*
X4513452Y20764035D01*
X4499295Y20764962D01*
X4471942Y20772291D01*
X4406724Y20785264D01*
X4375940Y20798015D01*
X4353044Y20804150D01*
X4332515Y20816003D01*
X4301732Y20828753D01*
X4246449Y20865692D01*
X4221918Y20879855D01*
X4215202Y20886571D01*
X4207240Y20891891D01*
X4126890Y20972241D01*
X4121569Y20980204D01*
X4114855Y20986918D01*
X4100693Y21011446D01*
X4063752Y21066733D01*
X4051000Y21097519D01*
X4039150Y21118044D01*
X4033015Y21140937D01*
X4020263Y21171725D01*
X4007290Y21236946D01*
X3999962Y21264295D01*
X3999962Y21273789D01*
X3998094Y21283180D01*
X3998094Y21396821D01*
X3999962Y21406213D01*
X3999962Y21415705D01*
X4007289Y21443052D01*
X4020263Y21508276D01*
X4033016Y21539067D01*
X4039150Y21561956D01*
X4050998Y21582479D01*
X4063752Y21613268D01*
X4100698Y21668562D01*
X4114855Y21693082D01*
X4121567Y21699795D01*
X4126890Y21707760D01*
X4207240Y21788110D01*
X4215205Y21793433D01*
X4221918Y21800145D01*
X4246438Y21814302D01*
X4301732Y21851248D01*
X4332521Y21864002D01*
X4353044Y21875850D01*
X4375933Y21881984D01*
X4406724Y21894737D01*
X4471957Y21907713D01*
X4499295Y21915038D01*
X4513445Y21915966D01*
X4519692Y21917208D01*
X4570396Y21919699D01*
X4575000Y21920000D01*
X5375000Y21920000D01*
X5379603Y21919699D01*
G37*
G36*
X9709603Y21919699D02*
G01*
X9760307Y21917208D01*
X9766553Y21915966D01*
X9780705Y21915038D01*
X9808045Y21907713D01*
X9873275Y21894737D01*
X9904063Y21881985D01*
X9926956Y21875850D01*
X9947481Y21864000D01*
X9978267Y21851248D01*
X10033554Y21814307D01*
X10058082Y21800145D01*
X10064796Y21793431D01*
X10072759Y21788110D01*
X10153109Y21707760D01*
X10158429Y21699798D01*
X10165145Y21693082D01*
X10179308Y21668551D01*
X10216247Y21613268D01*
X10228997Y21582485D01*
X10240850Y21561956D01*
X10246985Y21539060D01*
X10259736Y21508276D01*
X10272708Y21443058D01*
X10280038Y21415705D01*
X10280038Y21406212D01*
X10281906Y21396821D01*
X10281906Y21283180D01*
X10280038Y21273790D01*
X10280038Y21264295D01*
X10272708Y21236940D01*
X10259736Y21171725D01*
X10246985Y21140944D01*
X10240850Y21118044D01*
X10228996Y21097513D01*
X10216247Y21066733D01*
X10179312Y21011457D01*
X10165145Y20986918D01*
X10158427Y20980201D01*
X10153109Y20972241D01*
X10072759Y20891891D01*
X10064799Y20886573D01*
X10058082Y20879855D01*
X10033543Y20865688D01*
X9978267Y20828753D01*
X9947487Y20816004D01*
X9926956Y20804150D01*
X9904056Y20798015D01*
X9873275Y20785264D01*
X9808059Y20772292D01*
X9780705Y20764962D01*
X9766545Y20764034D01*
X9760307Y20762793D01*
X9709610Y20760303D01*
X9705000Y20760000D01*
X9703460Y20760000D01*
X8606540Y20760000D01*
X8605000Y20760000D01*
X8600390Y20760303D01*
X8549692Y20762793D01*
X8543452Y20764035D01*
X8529295Y20764962D01*
X8501942Y20772291D01*
X8436724Y20785264D01*
X8405940Y20798015D01*
X8383044Y20804150D01*
X8362515Y20816003D01*
X8331732Y20828753D01*
X8276449Y20865692D01*
X8251918Y20879855D01*
X8245202Y20886571D01*
X8237240Y20891891D01*
X8156890Y20972241D01*
X8151569Y20980204D01*
X8144855Y20986918D01*
X8130693Y21011446D01*
X8093752Y21066733D01*
X8081000Y21097519D01*
X8069150Y21118044D01*
X8063015Y21140937D01*
X8050263Y21171725D01*
X8037290Y21236946D01*
X8029962Y21264295D01*
X8029962Y21273789D01*
X8028094Y21283180D01*
X8028094Y21396821D01*
X8029962Y21406213D01*
X8029962Y21415705D01*
X8037289Y21443052D01*
X8050263Y21508276D01*
X8063016Y21539067D01*
X8069150Y21561956D01*
X8080998Y21582479D01*
X8093752Y21613268D01*
X8130698Y21668562D01*
X8144855Y21693082D01*
X8151567Y21699795D01*
X8156890Y21707760D01*
X8237240Y21788110D01*
X8245205Y21793433D01*
X8251918Y21800145D01*
X8276438Y21814302D01*
X8331732Y21851248D01*
X8362521Y21864002D01*
X8383044Y21875850D01*
X8405933Y21881984D01*
X8436724Y21894737D01*
X8501957Y21907713D01*
X8529295Y21915038D01*
X8543445Y21915966D01*
X8549692Y21917208D01*
X8600396Y21919699D01*
X8605000Y21920000D01*
X9705000Y21920000D01*
X9709603Y21919699D01*
G37*
M02*
