M48
; DRILL file {KiCad 9.0.0} date 2026-07-28T23:24:06-0300
; FORMAT={-:-/ absolute / metric / decimal}
; #@! TF.CreationDate,2026-07-28T23:24:06-03:00
; #@! TF.GenerationSoftware,Kicad,Pcbnew,9.0.0
; #@! TF.FileFunction,Plated,1,4,PTH
FMAT,2
METRIC
; #@! TA.AperFunction,Plated,PTH,ViaDrill
T1C0.250
; #@! TA.AperFunction,Plated,PTH,ViaDrill
T2C0.300
; #@! TA.AperFunction,Plated,PTH,ViaDrill
T3C0.400
; #@! TA.AperFunction,Plated,PTH,ComponentDrill
T4C0.400
; #@! TA.AperFunction,Plated,PTH,ComponentDrill
T5C0.500
; #@! TA.AperFunction,Plated,PTH,ComponentDrill
T6C0.600
; #@! TA.AperFunction,Plated,PTH,ComponentDrill
T7C2.200
%
G90
G05
T1
X34.89Y10.48
X35.27Y11.35
X42.88Y6.11
X44.13Y5.9
T2
X6.6Y10.8
X7.315Y24.02
X8.9Y3.1
X9.0Y8.25
X9.59Y11.37
X11.3Y15.1
X11.5Y20.25
X11.8Y11.6
X11.81Y12.4
X13.662Y9.0
X15.885Y10.652
X16.0Y12.0
X16.985Y10.652
X17.69Y7.89
X19.4Y12.5
X21.25Y19.25
X26.6Y7.8
X27.7Y11.7
X27.7Y10.4
X27.9Y17.2
X28.5Y12.5
X29.4Y24.7
X29.4Y23.4
X29.5Y14.5
X29.75Y18.25
X29.9Y6.6
X30.5Y14.5
X30.81Y25.17
X31.06Y2.03
X31.5Y11.25
X31.5Y10.0
X31.6Y22.4
X31.6Y21.3
X32.65Y25.24
X33.8Y18.0
X33.8Y16.0
X33.8Y13.9
X34.91Y7.51
X35.8Y13.9
X35.83Y9.22
X35.9Y18.0
X37.7Y8.3
X37.9Y14.0
X38.0Y18.0
X38.0Y16.0
X39.4Y22.7
X39.4Y21.4
X40.531Y20.569
X40.7Y14.61
X41.6Y17.9
X41.63Y14.86
X42.167Y18.878
X42.9Y23.4
X43.0Y16.0
X43.62Y1.9
X44.0Y16.0
X46.125Y3.34
X47.4Y18.2
X47.4Y16.0
X47.8Y10.1
X49.8Y19.6
X50.0Y13.6
X51.6Y19.6
X51.6Y13.6
X53.0Y13.6
X53.1Y19.6
T3
X10.0Y2.0
X12.0Y4.0
X13.0Y25.0
X13.0Y21.0
X19.05Y26.25
X19.7Y20.95
X21.0Y1.0
X22.0Y9.0
X24.0Y2.0
X25.0Y10.0
X25.0Y7.0
X27.8Y21.75
X29.65Y25.9
X41.0Y25.0
X44.0Y25.0
X45.0Y21.0
X47.0Y14.0
X47.0Y12.0
X48.0Y21.0
X52.0Y12.0
X52.0Y9.0
T4
X15.35Y23.0
X15.35Y3.0
X15.833Y24.167
X15.833Y21.833
X15.833Y4.167
X15.833Y1.833
X17.0Y24.65
X17.0Y21.35
X17.0Y4.65
X17.0Y1.35
X18.167Y24.167
X18.167Y21.833
X18.167Y4.167
X18.167Y1.833
X18.65Y23.0
X18.65Y3.0
X49.85Y23.0
X49.85Y3.5
X50.333Y24.167
X50.333Y21.833
X50.333Y4.667
X50.333Y2.333
X51.5Y24.65
X51.5Y21.35
X51.5Y5.15
X51.5Y1.85
X52.667Y24.167
X52.667Y21.833
X52.667Y4.667
X52.667Y2.333
X53.15Y23.0
X53.15Y3.5
T5
X6.755Y7.745
X6.755Y6.495
X6.755Y5.245
X6.755Y3.995
T7
X17.0Y23.0
X17.0Y3.0
X51.5Y23.0
X51.5Y3.5
T6
G00X5.375Y21.34
M15
G01X4.575Y21.34
M16
G05
G00X5.375Y12.7
M15
G01X4.575Y12.7
M16
G05
G00X9.705Y21.34
M15
G01X8.605Y21.34
M16
G05
G00X9.705Y12.7
M15
G01X8.605Y12.7
M16
G05
M30
